<svg width="87" height="86" viewBox="0 0 87 86" fill="none" xmlns="http://www.w3.org/2000/svg">
<rect width="87" height="86" rx="16" fill="#EBF5FF"/>
<path d="M34.5139 67.0801V71.0146H33.6497V67.0801H34.5139Z" stroke="#6B7280" stroke-width="0.902575"/>
<path d="M38.3584 67.0801V71.0146H37.4941V67.0801H38.3584Z" stroke="#6B7280" stroke-width="0.902575"/>
<path d="M42.2029 67.0801V71.0146H41.3386V67.0801H42.2029Z" stroke="#6B7280" stroke-width="0.902575"/>
<path d="M46.0474 67.0801V71.0146H45.1831V67.0801H46.0474Z" stroke="#6B7280" stroke-width="0.902575"/>
<path d="M49.8962 67.0801V71.0146H49.032V67.0801H49.8962Z" stroke="#6B7280" stroke-width="0.902575"/>
<path d="M53.7407 67.0801V71.0146H52.8765V67.0801H53.7407Z" stroke="#6B7280" stroke-width="0.902575"/>
<path d="M70.2202 75.4341C71.6566 75.4342 72.816 76.5886 72.8159 77.9956V81.4058H71.9517V77.9956C71.9517 77.0433 71.1701 76.2789 70.2202 76.2788C69.2702 76.2788 68.4878 77.0432 68.4878 77.9956V81.4058H67.6235V77.9956C67.6235 76.5886 68.7837 75.4341 70.2202 75.4341ZM62.147 75.4341C63.5835 75.4341 64.7438 76.5886 64.7437 77.9956V81.4058H63.8784V77.9956C63.8784 77.0432 63.097 76.2788 62.147 76.2788C61.197 76.2789 60.4155 77.0433 60.4155 77.9956V81.4058H59.5513V77.9956C59.5513 76.5886 60.7106 75.4342 62.147 75.4341ZM24.8491 75.4341C26.2858 75.4341 27.4469 76.5888 27.4468 77.9956V81.4058H26.5825V77.9956C26.5825 77.043 25.7998 76.2788 24.8491 76.2788C23.8993 76.279 23.1177 77.0434 23.1177 77.9956V81.4058H22.2534V77.9956C22.2534 76.5887 23.4129 75.4343 24.8491 75.4341ZM16.7778 75.4341C18.2142 75.4342 19.3736 76.5887 19.3735 77.9956V81.4058H18.5093V77.9956C18.5093 77.0433 17.7277 76.279 16.7778 76.2788C15.8278 76.2788 15.0454 77.0432 15.0454 77.9956V81.4058H14.1812V77.9956C14.1812 76.5886 15.3414 75.4341 16.7778 75.4341ZM70.2202 66.2729C71.6566 66.273 72.816 67.4276 72.8159 68.8345V72.2446H71.9517V68.8345C71.9517 67.8822 71.1701 67.1178 70.2202 67.1177C69.2702 67.1177 68.4878 67.8821 68.4878 68.8345V72.2446H67.6235V68.8345C67.6235 67.4274 68.7837 66.2729 70.2202 66.2729ZM62.147 66.2729C63.5835 66.2729 64.7438 67.4276 64.7437 68.8345V72.2446H63.8784V68.8345C63.8784 67.8821 63.097 67.1177 62.147 67.1177C61.197 67.1178 60.4155 67.8822 60.4155 68.8345V72.2446H59.5513V68.8345C59.5513 67.4275 60.7106 66.2731 62.147 66.2729ZM24.8491 66.2729C26.2858 66.2729 27.4469 67.4277 27.4468 68.8345V72.2446H26.5825V68.8345C26.5825 67.8819 25.7998 67.1177 24.8491 67.1177C23.8993 67.1179 23.1177 67.8822 23.1177 68.8345V72.2446H22.2534V68.8345C22.2534 67.4276 23.4129 66.2732 24.8491 66.2729ZM16.7778 66.2729C18.2142 66.2731 19.3736 67.4276 19.3735 68.8345V72.2446H18.5093V68.8345C18.5093 67.8822 17.7277 67.1178 16.7778 67.1177C15.8278 67.1177 15.0454 67.8821 15.0454 68.8345V72.2446H14.1812V68.8345C14.1812 67.4274 15.3414 66.2729 16.7778 66.2729Z" stroke="#6B7280" stroke-width="0.902575"/>
<path d="M37.1858 54.6714V58.3911H36.3215V54.6714H37.1858Z" stroke="#6B7280" stroke-width="0.902575"/>
<path d="M40.7585 54.6714V58.3911H39.8943V54.6714H40.7585Z" stroke="#6B7280" stroke-width="0.902575"/>
<path d="M47.458 54.6714V58.3911H46.5938V54.6714H47.458Z" stroke="#6B7280" stroke-width="0.902575"/>
<path d="M51.0344 54.6714V58.3911H50.1702V54.6714H51.0344Z" stroke="#6B7280" stroke-width="0.902575"/>
<mask id="path-13-inside-1_268_12237" fill="white">
<path d="M1.97095 85.1036C46.4493 85.1039 28.9746 85.104 85.0256 85.1036V83.3568H76.6067C76.6067 77.8601 76.6067 64.6681 76.6067 60.6154L66.1792 48.9183L55.7603 60.6158V62.8424H54.6688V50.931L58.9235 45.9066V40.9186H53.3513L52.4628 34.0487L56.668 38.2054L60.2419 34.673L49.5654 24.1192H53.9543L47.9249 16.6033L52.1094 12.4669L54.4339 14.7643L62.5654 6.72532L58.9924 3.19287L46.8199 15.2256L43.6916 11.326L40.5664 15.2237L36.5273 11.2313L38.8519 8.93391L30.7195 0.895508L27.1464 4.42796L39.4616 16.6016L33.434 24.1192H37.8226L35.2778 26.6345L32.9542 24.3362L24.8218 32.3755L28.3957 35.908L35.5962 28.7902L34.0349 40.9186H28.4646V45.9066L32.7185 50.9309V62.8424H31.2369V60.6153L20.8096 48.9187L10.3898 60.6158C10.3898 64.9048 10.3898 77.3796 10.3898 83.3567H1.97095V85.1036ZM58.9926 5.66295L60.0668 6.72532L54.4341 12.2941L53.359 11.2317L58.9926 5.66295ZM35.2779 9.99592L29.6452 4.42796L30.7195 3.36559L36.353 8.934L35.2779 9.99592ZM28.3958 33.4379L27.3208 32.3755L32.9543 26.8071L34.0285 27.8695L28.3958 33.4379ZM31.2372 78.8076H39.3118V83.3567H31.2372V78.8076ZM47.6866 78.8076H55.7603V83.3567H47.6866V78.8076ZM45.9194 83.3567H41.0788V77.2219C41.0788 76.6449 41.2902 76.0875 41.6725 75.6521C42.5836 74.6192 44.3654 74.6056 45.293 75.6171L45.3232 75.6521C45.708 76.0875 45.9194 76.6462 45.9194 77.2244V83.3567ZM57.5274 83.3567V64.5892H74.8397V83.3567H57.5274ZM57.5274 61.2751L66.1792 51.5606L74.8397 61.2756V62.8424H57.5274V61.2751ZM34.0158 49.7417L31.2399 46.4626H56.1482L53.3717 49.7417H34.0158ZM52.9017 51.4894V62.8424H44.5768V51.4894H52.9017ZM52.1096 29.1046L57.7431 34.673L56.668 35.7354L51.0345 30.167L52.1096 29.1046ZM50.8601 27.8691L48.5356 30.167L50.4195 32.0291L51.5703 40.9187H47.8151L47.0186 24.1193H47.0666L50.8601 27.8691ZM42.1385 24.123H45.2499L46.0463 40.9186H41.3412L42.1385 24.123ZM43.6942 20.7855L45.2995 22.3724H42.0888L43.6942 20.7855ZM50.2975 22.3724H47.7983L44.9435 19.5504L46.6669 17.8468L50.2975 22.3724ZM43.6916 14.1382L45.5618 16.4693L43.6942 18.3154L41.8242 16.4671L43.6916 14.1382ZM37.089 22.3724L40.7194 17.8449L42.4448 19.5505L39.5898 22.3725L37.089 22.3724ZM37.6378 26.7723L40.3217 24.1192H40.3698L39.5724 40.9186H35.8172L37.6378 26.7723ZM57.1564 42.6653V44.7158H30.232V42.6653C63.3542 42.6653 36.6693 42.6653 57.1564 42.6653ZM34.4858 51.4894H42.8097V62.8424H34.4858V51.4894ZM55.7603 64.5892V77.0608H47.672C47.6347 76.1395 47.2986 75.2544 46.6952 74.5498L46.6538 74.5016C45.8582 73.6004 44.7081 73.0835 43.4983 73.0835C42.2868 73.0835 41.1358 73.6017 40.3394 74.5058C39.7128 75.2179 39.3638 76.1208 39.3264 77.0608H31.2371V64.5892C38.5966 64.5892 48.3854 64.5892 55.7603 64.5892ZM12.1569 61.2751L20.8096 51.5611L29.4701 61.2756V62.8424H12.1569V61.2751ZM12.1569 64.5892H29.47V83.3567H12.1569V64.5892Z"/>
</mask>
<path d="M1.97095 85.1036C46.4493 85.1039 28.9746 85.104 85.0256 85.1036V83.3568H76.6067C76.6067 77.8601 76.6067 64.6681 76.6067 60.6154L66.1792 48.9183L55.7603 60.6158V62.8424H54.6688V50.931L58.9235 45.9066V40.9186H53.3513L52.4628 34.0487L56.668 38.2054L60.2419 34.673L49.5654 24.1192H53.9543L47.9249 16.6033L52.1094 12.4669L54.4339 14.7643L62.5654 6.72532L58.9924 3.19287L46.8199 15.2256L43.6916 11.326L40.5664 15.2237L36.5273 11.2313L38.8519 8.93391L30.7195 0.895508L27.1464 4.42796L39.4616 16.6016L33.434 24.1192H37.8226L35.2778 26.6345L32.9542 24.3362L24.8218 32.3755L28.3957 35.908L35.5962 28.7902L34.0349 40.9186H28.4646V45.9066L32.7185 50.9309V62.8424H31.2369V60.6153L20.8096 48.9187L10.3898 60.6158C10.3898 64.9048 10.3898 77.3796 10.3898 83.3567H1.97095V85.1036ZM58.9926 5.66295L60.0668 6.72532L54.4341 12.2941L53.359 11.2317L58.9926 5.66295ZM35.2779 9.99592L29.6452 4.42796L30.7195 3.36559L36.353 8.934L35.2779 9.99592ZM28.3958 33.4379L27.3208 32.3755L32.9543 26.8071L34.0285 27.8695L28.3958 33.4379ZM31.2372 78.8076H39.3118V83.3567H31.2372V78.8076ZM47.6866 78.8076H55.7603V83.3567H47.6866V78.8076ZM45.9194 83.3567H41.0788V77.2219C41.0788 76.6449 41.2902 76.0875 41.6725 75.6521C42.5836 74.6192 44.3654 74.6056 45.293 75.6171L45.3232 75.6521C45.708 76.0875 45.9194 76.6462 45.9194 77.2244V83.3567ZM57.5274 83.3567V64.5892H74.8397V83.3567H57.5274ZM57.5274 61.2751L66.1792 51.5606L74.8397 61.2756V62.8424H57.5274V61.2751ZM34.0158 49.7417L31.2399 46.4626H56.1482L53.3717 49.7417H34.0158ZM52.9017 51.4894V62.8424H44.5768V51.4894H52.9017ZM52.1096 29.1046L57.7431 34.673L56.668 35.7354L51.0345 30.167L52.1096 29.1046ZM50.8601 27.8691L48.5356 30.167L50.4195 32.0291L51.5703 40.9187H47.8151L47.0186 24.1193H47.0666L50.8601 27.8691ZM42.1385 24.123H45.2499L46.0463 40.9186H41.3412L42.1385 24.123ZM43.6942 20.7855L45.2995 22.3724H42.0888L43.6942 20.7855ZM50.2975 22.3724H47.7983L44.9435 19.5504L46.6669 17.8468L50.2975 22.3724ZM43.6916 14.1382L45.5618 16.4693L43.6942 18.3154L41.8242 16.4671L43.6916 14.1382ZM37.089 22.3724L40.7194 17.8449L42.4448 19.5505L39.5898 22.3725L37.089 22.3724ZM37.6378 26.7723L40.3217 24.1192H40.3698L39.5724 40.9186H35.8172L37.6378 26.7723ZM57.1564 42.6653V44.7158H30.232V42.6653C63.3542 42.6653 36.6693 42.6653 57.1564 42.6653ZM34.4858 51.4894H42.8097V62.8424H34.4858V51.4894ZM55.7603 64.5892V77.0608H47.672C47.6347 76.1395 47.2986 75.2544 46.6952 74.5498L46.6538 74.5016C45.8582 73.6004 44.7081 73.0835 43.4983 73.0835C42.2868 73.0835 41.1358 73.6017 40.3394 74.5058C39.7128 75.2179 39.3638 76.1208 39.3264 77.0608H31.2371V64.5892C38.5966 64.5892 48.3854 64.5892 55.7603 64.5892ZM12.1569 61.2751L20.8096 51.5611L29.4701 61.2756V62.8424H12.1569V61.2751ZM12.1569 64.5892H29.47V83.3567H12.1569V64.5892Z" stroke="#6B7280" stroke-width="1.80515" mask="url(#path-13-inside-1_268_12237)"/>
</svg>
