<svg width="87" height="86" viewBox="0 0 87 86" fill="none" xmlns="http://www.w3.org/2000/svg">
<rect width="87" height="86" rx="16" fill="#EBF5FF"/>
<mask id="path-2-inside-1_268_12378" fill="white">
<path d="M13.5132 64.1609H10.4015V68.5885H7.72522V73.016H4.46662V77.4436H0.904419V79.2353C9.58738 79.2353 75.9312 79.2353 86.0919 79.2353V77.4436H82.5254V73.016H79.2659V68.5885H76.5905V64.1609H73.4787C73.4787 49.0431 73.4787 33.9268 73.4787 18.8693H75.1364L77.0427 15.429H79.0091L84.4104 6.76416H2.58859L7.97915 15.429H9.94562L11.8519 18.8693H13.5131C13.5132 28.7758 13.5132 54.6948 13.5132 64.1609ZM71.6662 59.8838H67.9307V57.2619H71.6663L71.6662 59.8838ZM71.6662 55.4703H67.9307V52.8481H71.6663L71.6662 55.4703ZM71.6662 51.0563H67.9307V48.4344H71.6663L71.6662 51.0563ZM71.6662 46.6428H67.9307V44.0205H71.6663L71.6662 46.6428ZM71.6662 42.2288H67.9307V39.6065H71.6663L71.6662 42.2288ZM71.6662 37.8148H67.9307V35.1929H71.6663L71.6662 37.8148ZM71.6662 33.4012H67.9307V30.7789H71.6663L71.6662 33.4012ZM66.1182 64.1609H59.5204V26.301H66.1182V64.1609ZM57.7079 64.1609H49.4419V26.301H57.7079V64.1609ZM47.6294 18.8693V24.5094H39.3625V18.8693H47.6294ZM47.6294 26.301V64.1609H39.3625V26.301H47.6294ZM49.4419 24.5094V18.8693H57.7079V24.5094H49.4419ZM37.55 18.8693V24.5094H29.284V18.8693H37.55ZM37.55 26.301V64.1609H29.284V26.301H37.55ZM27.4715 64.1609H20.4286V26.301H27.4715V64.1609ZM15.3257 30.7789H18.6162V33.4012H15.3257V30.7789ZM15.3257 35.1929H18.6162V37.8148H15.3257V35.1929ZM15.3257 39.6065H18.6162V42.2288H15.3257V39.6065ZM15.3257 44.0204H18.6162V46.6427H15.3257V44.0204ZM15.3257 48.4345H18.6162V51.0564H15.3257V48.4345ZM15.3257 52.848H18.6162V55.4703H15.3257V52.848ZM15.3257 57.262H18.6162V59.8839H15.3257V57.262ZM18.6161 28.9873H15.3256V26.3011H18.6161V28.9873ZM15.3257 61.6755H18.6162V64.1609H15.3257V61.6755ZM80.7129 74.8077V77.4436H6.27912V74.8077H7.72522H79.2659H80.7129ZM77.4534 70.3801V73.016H9.53772V70.3801H10.4015H76.5904H77.4534ZM74.7779 65.9526V68.5885H12.214V65.9526H13.5132H73.4787H74.7779ZM67.9307 64.1609V61.6755H71.6663V64.1609H67.9307ZM71.6662 28.9873H67.9307V26.3011H71.6663L71.6662 28.9873ZM71.6662 24.5094H59.5204V18.8693H71.6662V24.5094ZM81.1642 8.55583L80.3216 9.90746H6.67188L5.83125 8.55583H81.1642ZM12.9264 17.0776L11.0201 13.6374H8.99161L7.78621 11.6991H79.2049L77.9967 13.6374H75.9683L74.062 17.0776C74.7778 17.0772 62.595 17.0744 12.9264 17.0776ZM15.3257 18.8693H27.4715V24.5094H15.3257V18.8693Z"/>
</mask>
<path d="M13.5132 64.1609H10.4015V68.5885H7.72522V73.016H4.46662V77.4436H0.904419V79.2353C9.58738 79.2353 75.9312 79.2353 86.0919 79.2353V77.4436H82.5254V73.016H79.2659V68.5885H76.5905V64.1609H73.4787C73.4787 49.0431 73.4787 33.9268 73.4787 18.8693H75.1364L77.0427 15.429H79.0091L84.4104 6.76416H2.58859L7.97915 15.429H9.94562L11.8519 18.8693H13.5131C13.5132 28.7758 13.5132 54.6948 13.5132 64.1609ZM71.6662 59.8838H67.9307V57.2619H71.6663L71.6662 59.8838ZM71.6662 55.4703H67.9307V52.8481H71.6663L71.6662 55.4703ZM71.6662 51.0563H67.9307V48.4344H71.6663L71.6662 51.0563ZM71.6662 46.6428H67.9307V44.0205H71.6663L71.6662 46.6428ZM71.6662 42.2288H67.9307V39.6065H71.6663L71.6662 42.2288ZM71.6662 37.8148H67.9307V35.1929H71.6663L71.6662 37.8148ZM71.6662 33.4012H67.9307V30.7789H71.6663L71.6662 33.4012ZM66.1182 64.1609H59.5204V26.301H66.1182V64.1609ZM57.7079 64.1609H49.4419V26.301H57.7079V64.1609ZM47.6294 18.8693V24.5094H39.3625V18.8693H47.6294ZM47.6294 26.301V64.1609H39.3625V26.301H47.6294ZM49.4419 24.5094V18.8693H57.7079V24.5094H49.4419ZM37.55 18.8693V24.5094H29.284V18.8693H37.55ZM37.55 26.301V64.1609H29.284V26.301H37.55ZM27.4715 64.1609H20.4286V26.301H27.4715V64.1609ZM15.3257 30.7789H18.6162V33.4012H15.3257V30.7789ZM15.3257 35.1929H18.6162V37.8148H15.3257V35.1929ZM15.3257 39.6065H18.6162V42.2288H15.3257V39.6065ZM15.3257 44.0204H18.6162V46.6427H15.3257V44.0204ZM15.3257 48.4345H18.6162V51.0564H15.3257V48.4345ZM15.3257 52.848H18.6162V55.4703H15.3257V52.848ZM15.3257 57.262H18.6162V59.8839H15.3257V57.262ZM18.6161 28.9873H15.3256V26.3011H18.6161V28.9873ZM15.3257 61.6755H18.6162V64.1609H15.3257V61.6755ZM80.7129 74.8077V77.4436H6.27912V74.8077H7.72522H79.2659H80.7129ZM77.4534 70.3801V73.016H9.53772V70.3801H10.4015H76.5904H77.4534ZM74.7779 65.9526V68.5885H12.214V65.9526H13.5132H73.4787H74.7779ZM67.9307 64.1609V61.6755H71.6663V64.1609H67.9307ZM71.6662 28.9873H67.9307V26.3011H71.6663L71.6662 28.9873ZM71.6662 24.5094H59.5204V18.8693H71.6662V24.5094ZM81.1642 8.55583L80.3216 9.90746H6.67188L5.83125 8.55583H81.1642ZM12.9264 17.0776L11.0201 13.6374H8.99161L7.78621 11.6991H79.2049L77.9967 13.6374H75.9683L74.062 17.0776C74.7778 17.0772 62.595 17.0744 12.9264 17.0776ZM15.3257 18.8693H27.4715V24.5094H15.3257V18.8693Z" stroke="#6B7280" stroke-width="1.80515" mask="url(#path-2-inside-1_268_12378)"/>
<path d="M15.7711 13.0723V15.2969H14.861V13.0723H15.7711Z" fill="#6B7280" stroke="#6B7280" stroke-width="0.902575"/>
<path d="M19.7979 13.0723V15.2969H18.8877V13.0723H19.7979Z" fill="#6B7280" stroke="#6B7280" stroke-width="0.902575"/>
<path d="M23.8246 13.0723V15.2969H22.9144V13.0723H23.8246Z" fill="#6B7280" stroke="#6B7280" stroke-width="0.902575"/>
<path d="M27.8523 13.0723V15.2969H26.9421V13.0723H27.8523Z" fill="#6B7280" stroke="#6B7280" stroke-width="0.902575"/>
<path d="M31.8792 13.0723V15.2969H30.969V13.0723H31.8792Z" fill="#6B7280" stroke="#6B7280" stroke-width="0.902575"/>
<path d="M35.9023 13.0723V15.2969H34.9922V13.0723H35.9023Z" fill="#6B7280" stroke="#6B7280" stroke-width="0.902575"/>
<path d="M39.9292 13.0723V15.2969H39.019V13.0723H39.9292Z" fill="#6B7280" stroke="#6B7280" stroke-width="0.902575"/>
<path d="M43.9568 13.0723V15.2969H43.0466V13.0723H43.9568Z" fill="#6B7280" stroke="#6B7280" stroke-width="0.902575"/>
<path d="M47.9792 13.0723V15.2969H47.0691V13.0723H47.9792Z" fill="#6B7280" stroke="#6B7280" stroke-width="0.902575"/>
<path d="M52.0068 13.0723V15.2969H51.0967V13.0723H52.0068Z" fill="#6B7280" stroke="#6B7280" stroke-width="0.902575"/>
<path d="M56.0337 13.0723V15.2969H55.1235V13.0723H56.0337Z" fill="#6B7280" stroke="#6B7280" stroke-width="0.902575"/>
<path d="M60.0604 13.0723V15.2969H59.1503V13.0723H60.0604Z" fill="#6B7280" stroke="#6B7280" stroke-width="0.902575"/>
<path d="M64.0837 13.0723V15.2969H63.1736V13.0723H64.0837Z" fill="#6B7280" stroke="#6B7280" stroke-width="0.902575"/>
<path d="M68.1105 13.0723V15.2969H67.2003V13.0723H68.1105Z" fill="#6B7280" stroke="#6B7280" stroke-width="0.902575"/>
<path d="M72.1382 13.0723V15.2969H71.228V13.0723H72.1382Z" fill="#6B7280" stroke="#6B7280" stroke-width="0.902575"/>
</svg>
