<svg width="87" height="86" viewBox="0 0 87 86" fill="none" xmlns="http://www.w3.org/2000/svg">
<rect width="87" height="86" rx="16" fill="#EBF5FF"/>
<mask id="path-2-inside-1_268_12442" fill="white">
<path d="M86.0919 76.7328H81.7963V73.1137H79.213C79.6721 71.7022 80.9647 68.3599 83.9653 64.1741L84.7244 63.1145L83.4462 62.8138C83.2513 62.7672 79.2286 61.854 76.2112 63.5544C75.6089 59.4778 72.9295 48.7895 61.2212 44.2841L60.0124 43.819V45.6307C52.935 32.8106 46.2421 31.0211 45.1048 29.9795L45.8241 31.6683L44.5277 30.0553C44.0392 31.4385 43.843 31.8895 43.4964 33.2817C43.1485 31.8841 42.953 31.4371 42.4652 30.057L41.1506 31.6893L41.8794 29.9795C41.0258 30.7612 33.9463 32.9967 26.9726 45.6302V43.819C26.7348 44.0576 13.1596 47.397 10.7738 63.5532C7.75812 61.8537 3.74153 62.7668 3.5465 62.8139L2.27014 63.1144L3.02749 64.1732C6.02165 68.3597 7.3126 71.7021 7.77126 73.1136H5.19225V76.7328H0.904419V84.4637C11.5008 84.4637 77.1531 84.4637 86.0919 84.4637V76.7328ZM80.0216 76.7328H51.9299V79.056V79.0942H48.1525V74.8681H80.0216V76.7328ZM34.1021 73.1136C35.5011 70.8668 38.6576 66.4991 43.5155 63.6947C44.8609 64.4469 49.3592 67.28 52.8696 73.1136H34.1021ZM26.7388 73.1136H13.4641C14.0319 71.3807 15.5381 67.1296 17.4854 64.3651C19.0417 65.4071 23.0514 68.3479 26.7388 73.1136ZM28.9415 73.1136C27.7641 71.4838 26.5451 70.0343 25.3598 68.7813C25.486 66.3543 26.4548 56.1901 33.7475 48.0276C30.5054 56.2516 29.1191 64.6666 29.6122 73.1136H28.9415ZM31.39 73.1136C30.8429 64.0313 32.5401 54.9794 36.4469 46.1676C37.8943 48.5349 40.833 54.0514 42.5837 62.2149C36.5901 65.6898 33.1076 71.2062 32.0358 73.1136H31.39ZM69.4875 64.3475C71.4412 67.1118 72.9517 71.3775 73.5203 73.1137H60.0368C63.7744 68.2438 67.9095 65.3487 69.4875 64.3475ZM57.8408 73.1136H57.3805C57.8807 64.5329 56.4466 55.987 53.0957 47.6425C60.5334 55.3273 61.5144 66.0255 61.641 68.5465C60.3814 69.8491 59.0842 71.3724 57.8408 73.1136ZM50.5418 46.1604C54.451 54.9724 56.1493 64.0269 55.6028 73.1136H54.9068C51.1107 66.2932 46.0336 63.0727 44.4093 62.1762C46.1637 54.0243 49.0987 48.5189 50.5418 46.1604ZM45.2149 33.7301L52.4828 42.7699L49.0035 34.6085C55.4686 39.8189 58.9465 47.1566 61.7872 53.627V46.4216C74.0414 51.9129 74.59 64.6662 74.6073 65.2234L74.6732 67.2943C75.6913 66.7202 76.3971 63.8765 81.7054 64.3295C78.7324 68.7608 77.6484 72.0793 77.3576 73.1136H75.3829C72.8783 65.0182 70.0363 62.2404 69.9399 62.0544C68.0203 63.124 65.9217 64.5084 63.3096 66.9178C61.6785 49.7028 50.7122 43.417 50.5053 43.0975C47.7817 46.7846 45.8162 51.1622 44.3899 55.4857V39.7017C44.4674 37.2301 44.8781 35.0951 45.2149 33.7301ZM5.28578 64.3295C10.5569 63.8779 11.348 66.7562 12.3154 67.3037C12.7275 56.6723 17.8259 49.7375 25.1978 46.4229V53.6274C28.1197 46.9711 31.5924 39.7569 37.9806 34.6085L34.5109 42.7489L41.7771 33.7279C42.1203 35.1191 42.5432 37.3081 42.609 39.8411L42.6151 39.8409V55.5475C41.1763 51.1694 39.2106 46.795 36.4512 43.0611C36.3041 43.2935 25.3565 50.7624 23.7007 67.123C21.1297 64.6823 19.0394 63.2148 17.059 62.0372C16.9053 62.3338 14.1699 64.8158 11.6014 73.1136H9.62671C9.33608 72.0793 8.25293 68.7608 5.28578 64.3295ZM6.96696 74.868H38.7632V79.0941H35.0673C35.0673 78.8844 35.0673 76.62 35.0673 76.7328H6.96696V74.868ZM33.2925 82.7094H2.67913V78.4872C11.6614 78.4872 19.6645 78.4872 33.2925 78.4872C33.2925 78.5772 33.2925 82.9359 33.2925 82.7094ZM35.0673 82.7094V80.8484H40.538V74.868H46.3778V80.8484H51.9299V82.7094H35.0673ZM84.3172 82.7094H53.7046C53.7046 82.3027 53.7046 78.3569 53.7046 78.4872C62.7722 78.4872 70.3749 78.4872 84.3171 78.4872L84.3172 82.7094Z"/>
</mask>
<path d="M86.0919 76.7328H81.7963V73.1137H79.213C79.6721 71.7022 80.9647 68.3599 83.9653 64.1741L84.7244 63.1145L83.4462 62.8138C83.2513 62.7672 79.2286 61.854 76.2112 63.5544C75.6089 59.4778 72.9295 48.7895 61.2212 44.2841L60.0124 43.819V45.6307C52.935 32.8106 46.2421 31.0211 45.1048 29.9795L45.8241 31.6683L44.5277 30.0553C44.0392 31.4385 43.843 31.8895 43.4964 33.2817C43.1485 31.8841 42.953 31.4371 42.4652 30.057L41.1506 31.6893L41.8794 29.9795C41.0258 30.7612 33.9463 32.9967 26.9726 45.6302V43.819C26.7348 44.0576 13.1596 47.397 10.7738 63.5532C7.75812 61.8537 3.74153 62.7668 3.5465 62.8139L2.27014 63.1144L3.02749 64.1732C6.02165 68.3597 7.3126 71.7021 7.77126 73.1136H5.19225V76.7328H0.904419V84.4637C11.5008 84.4637 77.1531 84.4637 86.0919 84.4637V76.7328ZM80.0216 76.7328H51.9299V79.056V79.0942H48.1525V74.8681H80.0216V76.7328ZM34.1021 73.1136C35.5011 70.8668 38.6576 66.4991 43.5155 63.6947C44.8609 64.4469 49.3592 67.28 52.8696 73.1136H34.1021ZM26.7388 73.1136H13.4641C14.0319 71.3807 15.5381 67.1296 17.4854 64.3651C19.0417 65.4071 23.0514 68.3479 26.7388 73.1136ZM28.9415 73.1136C27.7641 71.4838 26.5451 70.0343 25.3598 68.7813C25.486 66.3543 26.4548 56.1901 33.7475 48.0276C30.5054 56.2516 29.1191 64.6666 29.6122 73.1136H28.9415ZM31.39 73.1136C30.8429 64.0313 32.5401 54.9794 36.4469 46.1676C37.8943 48.5349 40.833 54.0514 42.5837 62.2149C36.5901 65.6898 33.1076 71.2062 32.0358 73.1136H31.39ZM69.4875 64.3475C71.4412 67.1118 72.9517 71.3775 73.5203 73.1137H60.0368C63.7744 68.2438 67.9095 65.3487 69.4875 64.3475ZM57.8408 73.1136H57.3805C57.8807 64.5329 56.4466 55.987 53.0957 47.6425C60.5334 55.3273 61.5144 66.0255 61.641 68.5465C60.3814 69.8491 59.0842 71.3724 57.8408 73.1136ZM50.5418 46.1604C54.451 54.9724 56.1493 64.0269 55.6028 73.1136H54.9068C51.1107 66.2932 46.0336 63.0727 44.4093 62.1762C46.1637 54.0243 49.0987 48.5189 50.5418 46.1604ZM45.2149 33.7301L52.4828 42.7699L49.0035 34.6085C55.4686 39.8189 58.9465 47.1566 61.7872 53.627V46.4216C74.0414 51.9129 74.59 64.6662 74.6073 65.2234L74.6732 67.2943C75.6913 66.7202 76.3971 63.8765 81.7054 64.3295C78.7324 68.7608 77.6484 72.0793 77.3576 73.1136H75.3829C72.8783 65.0182 70.0363 62.2404 69.9399 62.0544C68.0203 63.124 65.9217 64.5084 63.3096 66.9178C61.6785 49.7028 50.7122 43.417 50.5053 43.0975C47.7817 46.7846 45.8162 51.1622 44.3899 55.4857V39.7017C44.4674 37.2301 44.8781 35.0951 45.2149 33.7301ZM5.28578 64.3295C10.5569 63.8779 11.348 66.7562 12.3154 67.3037C12.7275 56.6723 17.8259 49.7375 25.1978 46.4229V53.6274C28.1197 46.9711 31.5924 39.7569 37.9806 34.6085L34.5109 42.7489L41.7771 33.7279C42.1203 35.1191 42.5432 37.3081 42.609 39.8411L42.6151 39.8409V55.5475C41.1763 51.1694 39.2106 46.795 36.4512 43.0611C36.3041 43.2935 25.3565 50.7624 23.7007 67.123C21.1297 64.6823 19.0394 63.2148 17.059 62.0372C16.9053 62.3338 14.1699 64.8158 11.6014 73.1136H9.62671C9.33608 72.0793 8.25293 68.7608 5.28578 64.3295ZM6.96696 74.868H38.7632V79.0941H35.0673C35.0673 78.8844 35.0673 76.62 35.0673 76.7328H6.96696V74.868ZM33.2925 82.7094H2.67913V78.4872C11.6614 78.4872 19.6645 78.4872 33.2925 78.4872C33.2925 78.5772 33.2925 82.9359 33.2925 82.7094ZM35.0673 82.7094V80.8484H40.538V74.868H46.3778V80.8484H51.9299V82.7094H35.0673ZM84.3172 82.7094H53.7046C53.7046 82.3027 53.7046 78.3569 53.7046 78.4872C62.7722 78.4872 70.3749 78.4872 84.3171 78.4872L84.3172 82.7094Z" stroke="#6B7280" stroke-width="1.80515" mask="url(#path-2-inside-1_268_12442)"/>
</svg>
