<svg width="87" height="86" viewBox="0 0 87 86" fill="none" xmlns="http://www.w3.org/2000/svg">
<rect width="87" height="86" rx="16" fill="#EBF5FF"/>
<mask id="path-2-inside-1_268_12080" fill="white">
<path d="M86.0919 83.316H76.4732V52.9342L71.0498 44.0323L66.4712 51.4564L61.9555 44.0332L58.2748 49.9964V40.7443C58.2748 31.2487 56.5699 25.0492 55.6188 19.67C56.6775 19.1377 57.4119 18.0618 57.4119 16.8096C57.4119 15.0337 55.9503 13.5889 54.1542 13.5889C52.3577 13.5889 50.8961 15.0337 50.8961 16.8096C50.8961 18.1048 51.6783 19.217 52.7967 19.7277C52.4594 22.029 52.1314 23.9966 51.8527 25.7537C51.454 22.748 50.9355 20.1504 50.473 17.8458C50.2451 16.7095 50.0362 15.6379 49.853 14.6034C50.9224 14.0748 51.6656 12.9925 51.6656 11.7324C51.6656 9.95652 50.204 8.51172 48.4079 8.51172C46.6113 8.51172 45.1497 9.95652 45.1497 11.7324C45.1497 13.0201 45.9235 14.1255 47.0313 14.6403C46.8121 16.1725 46.5783 17.6412 46.3485 19.053C44.1736 32.3979 45.132 35.0047 44.8825 41.1172L41.5583 34.72L38.2099 41.1238C37.9408 34.8369 38.9559 32.6568 36.7173 18.8812C36.4952 17.5127 36.2701 16.095 36.0618 14.6416C37.1709 14.1273 37.9458 13.0211 37.9458 11.7324C37.9458 9.95652 36.4842 8.51172 34.6876 8.51172C32.8915 8.51172 31.4299 9.95652 31.4299 11.7324C31.4299 12.9915 32.1719 14.073 33.2401 14.6021C32.5904 18.2772 31.8399 21.202 31.2373 25.7434C30.9648 24.0245 30.6323 22.0254 30.2945 19.7194C33.4692 18.2489 32.3643 13.5889 28.9218 13.5889C27.1252 13.5889 25.6636 15.0337 25.6636 16.8096C25.6636 18.0686 26.4056 19.1499 27.4738 19.6791C26.5478 24.9168 24.818 31.1521 24.818 40.7442V50.1728L21.1373 44.241L16.6215 51.6251L12.043 44.2401L6.61959 53.0952V83.316H0.904419V85.1077C51.9224 85.1512 -58.3789 85.1108 86.0919 85.1077V83.316ZM8.43191 75.2364H15.7186V78.9961H8.43191V75.2364ZM8.43191 69.6851H15.7186V73.4448H8.43191V69.6851ZM44.8823 52.6949H38.2097V46.0361H44.8823V52.6949ZM37.7534 54.491H45.3607L47.3212 56.9301H35.896L37.7534 54.491ZM74.6607 78.9961H67.374V75.2364H74.6607V78.9961ZM52.0142 79.5595C51.6719 78.1568 51.2739 76.705 50.8199 75.2364H65.5588V78.9961H52.0142V79.5595ZM58.2748 64.1339H65.5588V67.8936C65.394 67.8936 58.1704 67.8936 58.2748 67.8936C58.2748 67.6735 58.2748 63.9599 58.2748 64.1339ZM56.1337 67.8935H48.0177C47.1091 65.9474 46.0735 64.0608 44.884 62.3112C47.3914 62.3112 49.1328 62.3112 51.6466 62.3112L56.1337 67.8935ZM65.5588 69.6851V73.4448H50.2393C49.8113 72.1885 49.3372 70.9302 48.8141 69.6851C53.0386 69.6851 61.3298 69.6851 65.5588 69.6851ZM74.6607 73.4448H67.374V69.6851H74.6607V73.4448ZM74.6607 67.8935H67.374V64.1338H74.6607V67.8935ZM74.6607 62.3423H67.374V58.5826H74.6607V62.3423ZM65.5588 62.3423H58.2748V58.5826H65.5588V62.3423ZM43.565 60.5195C42.7056 59.4303 42.713 59.4917 42.0591 58.7217H48.7614L50.2064 60.5195C49.3537 60.5195 45.2897 60.5195 43.565 60.5195ZM34.5316 58.7217H41.9921C41.3377 59.5369 41.4171 59.3885 40.5657 60.5195H33.1626L34.5316 58.7217ZM31.8002 62.3112H39.2963C38.14 64.071 37.1249 65.9571 36.2243 67.8935H27.5431L31.8002 62.3112ZM32.2932 78.9961H17.5337V75.2364H33.3867C32.98 76.5125 32.6178 77.7701 32.2932 78.9961ZM33.9825 73.4448H17.5337V69.6851C21.7934 69.6851 31.1357 69.6851 35.4284 69.6851C34.9018 70.9325 34.4194 72.1907 33.9825 73.4448ZM17.5337 67.8935V64.1338H24.8178V67.8935C24.6093 67.8935 17.4293 67.8935 17.5337 67.8935ZM24.8178 62.3423H17.5337V58.5826H24.8178V62.3423ZM15.7186 62.3423H8.43191V58.5826H15.7186V62.3423ZM15.7186 64.1339V67.8936H8.43191V64.1339H15.7186ZM17.5337 80.7877H31.8381C31.6274 81.6583 31.4373 82.5013 31.2646 83.316H17.5337V80.7877ZM33.1148 83.316C34.5615 76.6241 37.2439 67.8792 42.0636 61.5159C47.0236 67.7418 49.6383 76.5475 50.9925 83.316H33.1148ZM52.3017 80.7877H65.5588V83.316H52.8364C52.6766 82.5001 52.4996 81.6573 52.3017 80.7877ZM67.374 83.316V80.7877H74.6607V83.316H67.374ZM71.0401 47.4897L74.6607 53.432V56.791H67.374V53.4346L71.0401 47.4897ZM61.944 47.4914L65.5588 53.4328V56.7909H58.2748V53.4359L61.944 47.4914ZM56.4623 40.7443V52.933V65.4212L52.5085 60.4985C53.0666 35.1934 51.2933 41.1212 54.2519 22.22C55.4952 28.4893 56.4623 33.3764 56.4623 40.7443ZM54.1541 15.3805C54.9511 15.3805 55.5993 16.0218 55.5993 16.8096C55.5993 17.5974 54.9511 18.2381 54.1541 18.2381C53.3572 18.2381 52.7085 17.5974 52.7085 16.8096C52.7085 16.0218 53.3572 15.3805 54.1541 15.3805ZM48.4078 10.3034C49.2047 10.3034 49.853 10.9446 49.853 11.7324C49.853 12.5202 49.2047 13.161 48.4078 13.161C47.6108 13.161 46.9621 12.5202 46.9621 11.7324C46.9621 10.9446 47.6108 10.3034 48.4078 10.3034ZM48.1378 19.3379C48.254 18.624 48.3719 17.8927 48.4887 17.1521C51.1406 30.5158 50.6486 33.3679 50.6486 39.4242V58.1901L46.6948 53.2713V44.6053C47.0344 34.5712 45.8702 33.2539 48.1378 19.3379ZM44.4698 44.2444H38.6186L41.553 38.6315L44.4698 44.2444ZM34.6874 10.3034C35.4844 10.3034 36.1331 10.9446 36.1331 11.7324C36.1331 12.5202 35.4844 13.161 34.6874 13.161C33.8905 13.161 33.2422 12.5202 33.2422 11.7324C33.2422 10.9446 33.8905 10.3034 34.6874 10.3034ZM34.6047 17.1493C37.458 35.215 35.9967 32.9066 36.3972 44.5336L36.3879 44.5472V53.3049L32.4435 58.4846V39.4241C32.4436 32.9581 31.9819 30.3493 34.6047 17.1493ZM28.9216 15.3805C30.8332 15.3805 30.8336 18.2381 28.9216 18.2381C28.1246 18.2381 27.4759 17.5974 27.4759 16.8096C27.4759 16.0218 28.1246 15.3805 28.9216 15.3805ZM26.6303 40.7443C26.6303 33.4569 27.5169 28.8797 28.8401 22.2188C31.7975 41.1153 30.0457 36.1549 30.5841 60.9298L26.6303 66.1142V53.0939V40.7443ZM21.1486 47.6861L24.8178 53.5996V56.791H17.5337V53.5965L21.1486 47.6861ZM12.0525 47.6843L15.7186 53.5982V56.791H8.43191V53.5956L12.0525 47.6843ZM8.43191 80.7877H15.7186V83.316H8.43191V80.7877Z"/>
</mask>
<path d="M86.0919 83.316H76.4732V52.9342L71.0498 44.0323L66.4712 51.4564L61.9555 44.0332L58.2748 49.9964V40.7443C58.2748 31.2487 56.5699 25.0492 55.6188 19.67C56.6775 19.1377 57.4119 18.0618 57.4119 16.8096C57.4119 15.0337 55.9503 13.5889 54.1542 13.5889C52.3577 13.5889 50.8961 15.0337 50.8961 16.8096C50.8961 18.1048 51.6783 19.217 52.7967 19.7277C52.4594 22.029 52.1314 23.9966 51.8527 25.7537C51.454 22.748 50.9355 20.1504 50.473 17.8458C50.2451 16.7095 50.0362 15.6379 49.853 14.6034C50.9224 14.0748 51.6656 12.9925 51.6656 11.7324C51.6656 9.95652 50.204 8.51172 48.4079 8.51172C46.6113 8.51172 45.1497 9.95652 45.1497 11.7324C45.1497 13.0201 45.9235 14.1255 47.0313 14.6403C46.8121 16.1725 46.5783 17.6412 46.3485 19.053C44.1736 32.3979 45.132 35.0047 44.8825 41.1172L41.5583 34.72L38.2099 41.1238C37.9408 34.8369 38.9559 32.6568 36.7173 18.8812C36.4952 17.5127 36.2701 16.095 36.0618 14.6416C37.1709 14.1273 37.9458 13.0211 37.9458 11.7324C37.9458 9.95652 36.4842 8.51172 34.6876 8.51172C32.8915 8.51172 31.4299 9.95652 31.4299 11.7324C31.4299 12.9915 32.1719 14.073 33.2401 14.6021C32.5904 18.2772 31.8399 21.202 31.2373 25.7434C30.9648 24.0245 30.6323 22.0254 30.2945 19.7194C33.4692 18.2489 32.3643 13.5889 28.9218 13.5889C27.1252 13.5889 25.6636 15.0337 25.6636 16.8096C25.6636 18.0686 26.4056 19.1499 27.4738 19.6791C26.5478 24.9168 24.818 31.1521 24.818 40.7442V50.1728L21.1373 44.241L16.6215 51.6251L12.043 44.2401L6.61959 53.0952V83.316H0.904419V85.1077C51.9224 85.1512 -58.3789 85.1108 86.0919 85.1077V83.316ZM8.43191 75.2364H15.7186V78.9961H8.43191V75.2364ZM8.43191 69.6851H15.7186V73.4448H8.43191V69.6851ZM44.8823 52.6949H38.2097V46.0361H44.8823V52.6949ZM37.7534 54.491H45.3607L47.3212 56.9301H35.896L37.7534 54.491ZM74.6607 78.9961H67.374V75.2364H74.6607V78.9961ZM52.0142 79.5595C51.6719 78.1568 51.2739 76.705 50.8199 75.2364H65.5588V78.9961H52.0142V79.5595ZM58.2748 64.1339H65.5588V67.8936C65.394 67.8936 58.1704 67.8936 58.2748 67.8936C58.2748 67.6735 58.2748 63.9599 58.2748 64.1339ZM56.1337 67.8935H48.0177C47.1091 65.9474 46.0735 64.0608 44.884 62.3112C47.3914 62.3112 49.1328 62.3112 51.6466 62.3112L56.1337 67.8935ZM65.5588 69.6851V73.4448H50.2393C49.8113 72.1885 49.3372 70.9302 48.8141 69.6851C53.0386 69.6851 61.3298 69.6851 65.5588 69.6851ZM74.6607 73.4448H67.374V69.6851H74.6607V73.4448ZM74.6607 67.8935H67.374V64.1338H74.6607V67.8935ZM74.6607 62.3423H67.374V58.5826H74.6607V62.3423ZM65.5588 62.3423H58.2748V58.5826H65.5588V62.3423ZM43.565 60.5195C42.7056 59.4303 42.713 59.4917 42.0591 58.7217H48.7614L50.2064 60.5195C49.3537 60.5195 45.2897 60.5195 43.565 60.5195ZM34.5316 58.7217H41.9921C41.3377 59.5369 41.4171 59.3885 40.5657 60.5195H33.1626L34.5316 58.7217ZM31.8002 62.3112H39.2963C38.14 64.071 37.1249 65.9571 36.2243 67.8935H27.5431L31.8002 62.3112ZM32.2932 78.9961H17.5337V75.2364H33.3867C32.98 76.5125 32.6178 77.7701 32.2932 78.9961ZM33.9825 73.4448H17.5337V69.6851C21.7934 69.6851 31.1357 69.6851 35.4284 69.6851C34.9018 70.9325 34.4194 72.1907 33.9825 73.4448ZM17.5337 67.8935V64.1338H24.8178V67.8935C24.6093 67.8935 17.4293 67.8935 17.5337 67.8935ZM24.8178 62.3423H17.5337V58.5826H24.8178V62.3423ZM15.7186 62.3423H8.43191V58.5826H15.7186V62.3423ZM15.7186 64.1339V67.8936H8.43191V64.1339H15.7186ZM17.5337 80.7877H31.8381C31.6274 81.6583 31.4373 82.5013 31.2646 83.316H17.5337V80.7877ZM33.1148 83.316C34.5615 76.6241 37.2439 67.8792 42.0636 61.5159C47.0236 67.7418 49.6383 76.5475 50.9925 83.316H33.1148ZM52.3017 80.7877H65.5588V83.316H52.8364C52.6766 82.5001 52.4996 81.6573 52.3017 80.7877ZM67.374 83.316V80.7877H74.6607V83.316H67.374ZM71.0401 47.4897L74.6607 53.432V56.791H67.374V53.4346L71.0401 47.4897ZM61.944 47.4914L65.5588 53.4328V56.7909H58.2748V53.4359L61.944 47.4914ZM56.4623 40.7443V52.933V65.4212L52.5085 60.4985C53.0666 35.1934 51.2933 41.1212 54.2519 22.22C55.4952 28.4893 56.4623 33.3764 56.4623 40.7443ZM54.1541 15.3805C54.9511 15.3805 55.5993 16.0218 55.5993 16.8096C55.5993 17.5974 54.9511 18.2381 54.1541 18.2381C53.3572 18.2381 52.7085 17.5974 52.7085 16.8096C52.7085 16.0218 53.3572 15.3805 54.1541 15.3805ZM48.4078 10.3034C49.2047 10.3034 49.853 10.9446 49.853 11.7324C49.853 12.5202 49.2047 13.161 48.4078 13.161C47.6108 13.161 46.9621 12.5202 46.9621 11.7324C46.9621 10.9446 47.6108 10.3034 48.4078 10.3034ZM48.1378 19.3379C48.254 18.624 48.3719 17.8927 48.4887 17.1521C51.1406 30.5158 50.6486 33.3679 50.6486 39.4242V58.1901L46.6948 53.2713V44.6053C47.0344 34.5712 45.8702 33.2539 48.1378 19.3379ZM44.4698 44.2444H38.6186L41.553 38.6315L44.4698 44.2444ZM34.6874 10.3034C35.4844 10.3034 36.1331 10.9446 36.1331 11.7324C36.1331 12.5202 35.4844 13.161 34.6874 13.161C33.8905 13.161 33.2422 12.5202 33.2422 11.7324C33.2422 10.9446 33.8905 10.3034 34.6874 10.3034ZM34.6047 17.1493C37.458 35.215 35.9967 32.9066 36.3972 44.5336L36.3879 44.5472V53.3049L32.4435 58.4846V39.4241C32.4436 32.9581 31.9819 30.3493 34.6047 17.1493ZM28.9216 15.3805C30.8332 15.3805 30.8336 18.2381 28.9216 18.2381C28.1246 18.2381 27.4759 17.5974 27.4759 16.8096C27.4759 16.0218 28.1246 15.3805 28.9216 15.3805ZM26.6303 40.7443C26.6303 33.4569 27.5169 28.8797 28.8401 22.2188C31.7975 41.1153 30.0457 36.1549 30.5841 60.9298L26.6303 66.1142V53.0939V40.7443ZM21.1486 47.6861L24.8178 53.5996V56.791H17.5337V53.5965L21.1486 47.6861ZM12.0525 47.6843L15.7186 53.5982V56.791H8.43191V53.5956L12.0525 47.6843ZM8.43191 80.7877H15.7186V83.316H8.43191V80.7877Z" stroke="#6B7280" stroke-width="1.80515" mask="url(#path-2-inside-1_268_12080)"/>
</svg>
