<svg width="87" height="86" viewBox="0 0 87 86" fill="none" xmlns="http://www.w3.org/2000/svg">
<rect width="87" height="86" rx="16" fill="#EBF5FF"/>
<path d="M50.3457 26.0068L49.6826 26.6172L43.4971 20.0488L43.1689 19.7002L42.8398 20.0479L36.6455 26.6172L35.9844 26.0068L43.1689 18.3877L50.3457 26.0068Z" fill="#6B7280" stroke="#6B7280" stroke-width="0.902575"/>
<path d="M43.584 32.7725C46.2433 32.7725 48.3994 34.9111 48.3994 37.5273C48.3994 40.1436 46.2433 42.2822 43.584 42.2822C40.9242 42.2822 38.7686 40.1435 38.7686 37.5273C38.7686 34.9112 40.9242 32.7725 43.584 32.7725ZM43.584 33.6611C41.4352 33.6612 39.6787 35.3906 39.6787 37.5273C39.6787 39.6641 41.4352 41.3935 43.584 41.3936C45.7328 41.3936 47.4893 39.664 47.4893 37.5273C47.4893 35.3907 45.733 33.6611 43.584 33.6611Z" fill="#6B7280" stroke="#6B7280" stroke-width="0.902575"/>
<path d="M32.2731 33.0381V33.9277H30.5397V33.0381H32.2731Z" fill="#6B7280" stroke="#6B7280" stroke-width="0.902575"/>
<path d="M32.2731 36.834V37.7236H30.5397V36.834H32.2731Z" fill="#6B7280" stroke="#6B7280" stroke-width="0.902575"/>
<path d="M32.2731 40.6309V41.5205H30.5397V40.6309H32.2731Z" fill="#6B7280" stroke="#6B7280" stroke-width="0.902575"/>
<path d="M56.5082 33.0381V33.9277H54.7748V33.0381H56.5082Z" fill="#6B7280" stroke="#6B7280" stroke-width="0.902575"/>
<path d="M56.5082 36.834V37.7236H54.7748V36.834H56.5082Z" fill="#6B7280" stroke="#6B7280" stroke-width="0.902575"/>
<path d="M56.5082 40.6309V41.5205H54.7748V40.6309H56.5082Z" fill="#6B7280" stroke="#6B7280" stroke-width="0.902575"/>
<mask id="path-10-inside-1_268_12559" fill="white">
<path d="M78.6835 85.4956H82.92H86.0919V83.7039H82.92V41.4152L79.8897 34.511L76.8709 41.4161V47.4778L71.6127 38.8245V37.216H72.9645V35.4243H71.6127V33.9765H69.8002V35.4243H68.4488V37.216H69.8002V38.8245L64.3343 47.8192V20.3683L61.5859 13.1605L58.826 20.3683V28.9846H58.246L44.9305 14.8481H44.08V11.8798H45.4039V10.0881H44.08V8.77148H42.2675V10.0881H40.944V11.8798H42.2675V14.8481H41.4011L28.3428 28.6977V20.3683L25.5824 13.1605L22.834 20.3683V47.819L17.3683 38.8245V37.216H18.8391V35.4243H17.3683V33.9765H15.5558V35.4243H14.3234V37.216H15.5558V38.8245L10.1258 47.76V41.4152L7.0951 34.511L4.07629 41.416V83.7039H0.904419V85.4956H4.07629H8.31328H10.1258H28.8163H58.1716H76.871H78.6835ZM78.6835 41.787L79.8933 39.0198L81.1075 41.7879V83.7039H78.6835V57.038V48.2721V41.787ZM56.3591 55.2463H45.0235L43.2499 53.5378L41.4764 55.2463H30.6288H29.7225H10.1258V50.0638H12.6768V51.8799H14.4893V50.0638H18.1161V51.8799H19.9286V50.0638H22.8341H23.5554V51.8799H25.3679V50.0638H26.5304H28.3429H28.9943V51.8799H30.8068V50.0638H34.4336V51.8799H36.2461V50.0638H39.8724V51.8799H41.6849V50.0638H45.3118V51.8799H47.1243V50.0638H50.7506V51.8799H52.5631V50.0638H56.1899V51.8799H58.0024V50.0638H58.8264H60.6389H61.6292V51.8799H63.4417V50.0638H64.3348H67.0681V51.8799H68.8806V50.0638H72.5074V51.8799H74.3199V50.0638H76.8714V55.2463H57.2654H56.3591ZM47.7237 83.7013H38.7766V72.8865C38.7766 70.4484 40.7834 68.4643 43.2499 68.4643C45.7169 68.4643 47.7236 70.4484 47.7236 72.8865L47.7237 83.7013ZM43.2499 66.6726C39.7838 66.6726 36.9642 69.4598 36.9642 72.8865V83.7013H35.327V64.1907H51.1735V83.7013H49.5362V72.8865C49.5362 69.4598 46.7161 66.6726 43.2499 66.6726ZM36.649 62.399L43.2499 56.0399L49.8512 62.399H36.649ZM11.929 48.2722L16.462 40.8133L20.995 48.2722H11.929ZM58.8261 43.954H52.3191V30.7763H58.8261V43.954ZM50.5066 43.954H36.6619V30.7763H50.5066V43.954ZM34.8494 43.954H28.3428V30.7763H34.8494V43.954ZM28.3429 45.7457H58.8261V48.2722H28.3429V45.7457ZM70.7064 40.8133L75.2386 48.2704H66.1744L70.7064 40.8133ZM60.6386 20.6956L61.5825 18.2311L62.5219 20.6956V48.2722H60.6386V28.9846V20.6956ZM42.1897 16.6398H44.1421L55.7697 28.9846H30.5496L42.1897 16.6398ZM24.6465 20.6956L25.586 18.2311L26.5303 20.6956V28.9846V30.6201L26.3829 30.7763H26.5303V48.2722H24.6465V20.6956ZM5.88879 83.7039V41.787L7.09864 39.0198L8.31328 41.7878V48.2721V57.038V83.7039H5.88879ZM13.499 68.3216H24.9263V83.7013H23.4612V75.1331C23.4612 72.8174 21.5553 70.933 19.2127 70.933C16.87 70.933 14.9642 72.8174 14.9642 75.1331V83.7013H13.499V68.3216ZM16.7767 75.1331C16.7767 73.8051 17.8697 72.7247 19.2127 72.7247C20.5556 72.7247 21.6487 73.8051 21.6487 75.1331V83.7013H16.7767V75.1331ZM14.4663 66.53L19.2126 60.6065L23.9589 66.53H14.4663ZM26.7387 83.7039V67.1144L19.2126 57.7213L11.6865 67.1144V83.704H10.1258V57.038H28.8163V83.7039H26.7387ZM30.6288 57.038H39.6167L33.5144 62.9169V83.7039H30.6288V57.038ZM52.9859 83.7039V62.9169L46.8833 57.038H56.3591V83.7039H52.9859ZM61.7674 68.3216H73.1951V83.7013H71.7295V75.1331C71.7295 72.8174 69.8236 70.933 67.481 70.933C65.1388 70.933 63.2329 72.8174 63.2329 75.1331V83.7013H61.7674L61.7674 68.3216ZM65.0455 75.1331C65.0455 73.8051 66.1381 72.7247 67.4811 72.7247C68.8241 72.7247 69.9171 73.8051 69.9171 75.1331V83.7013H65.0455V75.1331ZM62.7348 66.53L67.4811 60.6065L72.2277 66.53H62.7348ZM75.0076 83.7039V67.1144L67.481 57.7213L59.9549 67.1144V83.704H58.1716V57.038H76.871V83.7039H75.0076Z"/>
</mask>
<path d="M78.6835 85.4956H82.92H86.0919V83.7039H82.92V41.4152L79.8897 34.511L76.8709 41.4161V47.4778L71.6127 38.8245V37.216H72.9645V35.4243H71.6127V33.9765H69.8002V35.4243H68.4488V37.216H69.8002V38.8245L64.3343 47.8192V20.3683L61.5859 13.1605L58.826 20.3683V28.9846H58.246L44.9305 14.8481H44.08V11.8798H45.4039V10.0881H44.08V8.77148H42.2675V10.0881H40.944V11.8798H42.2675V14.8481H41.4011L28.3428 28.6977V20.3683L25.5824 13.1605L22.834 20.3683V47.819L17.3683 38.8245V37.216H18.8391V35.4243H17.3683V33.9765H15.5558V35.4243H14.3234V37.216H15.5558V38.8245L10.1258 47.76V41.4152L7.0951 34.511L4.07629 41.416V83.7039H0.904419V85.4956H4.07629H8.31328H10.1258H28.8163H58.1716H76.871H78.6835ZM78.6835 41.787L79.8933 39.0198L81.1075 41.7879V83.7039H78.6835V57.038V48.2721V41.787ZM56.3591 55.2463H45.0235L43.2499 53.5378L41.4764 55.2463H30.6288H29.7225H10.1258V50.0638H12.6768V51.8799H14.4893V50.0638H18.1161V51.8799H19.9286V50.0638H22.8341H23.5554V51.8799H25.3679V50.0638H26.5304H28.3429H28.9943V51.8799H30.8068V50.0638H34.4336V51.8799H36.2461V50.0638H39.8724V51.8799H41.6849V50.0638H45.3118V51.8799H47.1243V50.0638H50.7506V51.8799H52.5631V50.0638H56.1899V51.8799H58.0024V50.0638H58.8264H60.6389H61.6292V51.8799H63.4417V50.0638H64.3348H67.0681V51.8799H68.8806V50.0638H72.5074V51.8799H74.3199V50.0638H76.8714V55.2463H57.2654H56.3591ZM47.7237 83.7013H38.7766V72.8865C38.7766 70.4484 40.7834 68.4643 43.2499 68.4643C45.7169 68.4643 47.7236 70.4484 47.7236 72.8865L47.7237 83.7013ZM43.2499 66.6726C39.7838 66.6726 36.9642 69.4598 36.9642 72.8865V83.7013H35.327V64.1907H51.1735V83.7013H49.5362V72.8865C49.5362 69.4598 46.7161 66.6726 43.2499 66.6726ZM36.649 62.399L43.2499 56.0399L49.8512 62.399H36.649ZM11.929 48.2722L16.462 40.8133L20.995 48.2722H11.929ZM58.8261 43.954H52.3191V30.7763H58.8261V43.954ZM50.5066 43.954H36.6619V30.7763H50.5066V43.954ZM34.8494 43.954H28.3428V30.7763H34.8494V43.954ZM28.3429 45.7457H58.8261V48.2722H28.3429V45.7457ZM70.7064 40.8133L75.2386 48.2704H66.1744L70.7064 40.8133ZM60.6386 20.6956L61.5825 18.2311L62.5219 20.6956V48.2722H60.6386V28.9846V20.6956ZM42.1897 16.6398H44.1421L55.7697 28.9846H30.5496L42.1897 16.6398ZM24.6465 20.6956L25.586 18.2311L26.5303 20.6956V28.9846V30.6201L26.3829 30.7763H26.5303V48.2722H24.6465V20.6956ZM5.88879 83.7039V41.787L7.09864 39.0198L8.31328 41.7878V48.2721V57.038V83.7039H5.88879ZM13.499 68.3216H24.9263V83.7013H23.4612V75.1331C23.4612 72.8174 21.5553 70.933 19.2127 70.933C16.87 70.933 14.9642 72.8174 14.9642 75.1331V83.7013H13.499V68.3216ZM16.7767 75.1331C16.7767 73.8051 17.8697 72.7247 19.2127 72.7247C20.5556 72.7247 21.6487 73.8051 21.6487 75.1331V83.7013H16.7767V75.1331ZM14.4663 66.53L19.2126 60.6065L23.9589 66.53H14.4663ZM26.7387 83.7039V67.1144L19.2126 57.7213L11.6865 67.1144V83.704H10.1258V57.038H28.8163V83.7039H26.7387ZM30.6288 57.038H39.6167L33.5144 62.9169V83.7039H30.6288V57.038ZM52.9859 83.7039V62.9169L46.8833 57.038H56.3591V83.7039H52.9859ZM61.7674 68.3216H73.1951V83.7013H71.7295V75.1331C71.7295 72.8174 69.8236 70.933 67.481 70.933C65.1388 70.933 63.2329 72.8174 63.2329 75.1331V83.7013H61.7674L61.7674 68.3216ZM65.0455 75.1331C65.0455 73.8051 66.1381 72.7247 67.4811 72.7247C68.8241 72.7247 69.9171 73.8051 69.9171 75.1331V83.7013H65.0455V75.1331ZM62.7348 66.53L67.4811 60.6065L72.2277 66.53H62.7348ZM75.0076 83.7039V67.1144L67.481 57.7213L59.9549 67.1144V83.704H58.1716V57.038H76.871V83.7039H75.0076Z" fill="#6B7280" stroke="#6B7280" stroke-width="1.80515" mask="url(#path-10-inside-1_268_12559)"/>
</svg>
