<svg width="87" height="86" viewBox="0 0 87 86" fill="none" xmlns="http://www.w3.org/2000/svg">
<g clip-path="url(#clip0_268_12210)">
<rect width="87" height="86" rx="16" fill="#EBF5FF"/>
<mask id="path-2-inside-1_268_12210" fill="white">
<path d="M86.0919 83.3166H81.551V79.7839H79.3747V39.5318H80.9111V32.4439H82.8519L85.883 27.2211H78.8286V22.7262H82.7412V16.5918H55.8184V14.1186H52.7934V5.05799H49.7038L47.2939 7.53202V5.05799H44.2043L41.7944 7.53202V4.53223C43.4534 4.12758 44.692 2.6542 44.692 0.891113H42.8795C42.8795 1.65248 42.4357 2.30698 41.7944 2.63458V0.891113H39.9819V2.63458C39.3407 2.30698 38.8969 1.65248 38.8969 0.891113H37.0844C37.0844 2.6542 38.3229 4.12758 39.9819 4.53223V7.53202L37.572 5.05799H34.4824V7.53202L32.0725 5.05799H28.9829V14.1187H26.7014V16.5918H4.25156V22.7262H8.16511V27.2212H1.11331L4.14444 32.444H6.08527V39.5319H8.26154V79.784H6.08527V83.3167H0.904419V85.1083H86.0919V83.3166ZM79.7385 81.5756V83.2046H71.9468V81.5756H72.3106H79.3747H79.7385ZM74.1231 79.7839V39.5327H77.5622V79.7839H74.1231ZM72.3106 79.7839H70.1343V83.3166H60.201V79.7839H58.0256V39.5318H72.3106V79.7839ZM31.4231 39.5327H34.8631V79.7839H31.4231V39.5327ZM36.6756 81.5756H37.0394V83.2046H29.2477V81.5756H29.6106H36.6756ZM36.6756 79.7839V39.5318H50.9606V79.7839H48.7843V83.3166H38.8518V79.7839H36.6756ZM56.2131 79.7839H52.7731V39.5327H56.2131V79.7839ZM58.0256 81.5756H58.3885V83.2046H50.5968V81.5756H50.9606H58.0256ZM80.9287 18.3835V20.9346H78.8286H55.8184V18.3835H80.9287ZM50.4756 6.84966H50.9809V14.1187H47.2939V10.1154L50.4756 6.84966ZM44.9762 6.84966H45.4815V9.39284V14.1187H41.7945V10.3779V10.1154L44.9762 6.84966ZM36.2951 6.84966H36.8004L39.982 10.1154V10.3779V14.1187H36.295V9.39284L36.2951 6.84966ZM30.7956 6.84966H31.301L34.4825 10.1154V14.1187H30.7955L30.7956 6.84966ZM28.514 15.9103H28.9831H34.4826H36.2951H39.9821H41.7946H45.4816H47.2941H52.7936H54.006V16.5918V20.9345V22.7262V23.4076H28.514V22.7262V20.9345V16.5918V15.9103ZM6.06406 20.9345V18.3834H26.7016V20.9345H8.16502H6.06406ZM9.97752 22.7262H26.7015V25.1993H55.8184V22.7262H77.0161V27.2211H9.97752V22.7262ZM5.19406 30.6522L4.24268 29.0128H8.16502V29.0154H78.8286V29.0128H82.7537L81.8023 30.6522H80.9111H6.08527H5.19406ZM7.89777 32.4439H79.0986V37.7401H7.89777V32.4439ZM10.074 39.5327H13.5132V79.7839H10.074V39.5327ZM7.89777 81.5756H8.26154H15.3257H15.6894V83.2046H7.89777V81.5756ZM15.3257 79.7839V39.5318H29.6106V79.7839H27.4353V83.3166H17.5019V79.7839H15.3257Z"/>
</mask>
<path d="M86.0919 83.3166H81.551V79.7839H79.3747V39.5318H80.9111V32.4439H82.8519L85.883 27.2211H78.8286V22.7262H82.7412V16.5918H55.8184V14.1186H52.7934V5.05799H49.7038L47.2939 7.53202V5.05799H44.2043L41.7944 7.53202V4.53223C43.4534 4.12758 44.692 2.6542 44.692 0.891113H42.8795C42.8795 1.65248 42.4357 2.30698 41.7944 2.63458V0.891113H39.9819V2.63458C39.3407 2.30698 38.8969 1.65248 38.8969 0.891113H37.0844C37.0844 2.6542 38.3229 4.12758 39.9819 4.53223V7.53202L37.572 5.05799H34.4824V7.53202L32.0725 5.05799H28.9829V14.1187H26.7014V16.5918H4.25156V22.7262H8.16511V27.2212H1.11331L4.14444 32.444H6.08527V39.5319H8.26154V79.784H6.08527V83.3167H0.904419V85.1083H86.0919V83.3166ZM79.7385 81.5756V83.2046H71.9468V81.5756H72.3106H79.3747H79.7385ZM74.1231 79.7839V39.5327H77.5622V79.7839H74.1231ZM72.3106 79.7839H70.1343V83.3166H60.201V79.7839H58.0256V39.5318H72.3106V79.7839ZM31.4231 39.5327H34.8631V79.7839H31.4231V39.5327ZM36.6756 81.5756H37.0394V83.2046H29.2477V81.5756H29.6106H36.6756ZM36.6756 79.7839V39.5318H50.9606V79.7839H48.7843V83.3166H38.8518V79.7839H36.6756ZM56.2131 79.7839H52.7731V39.5327H56.2131V79.7839ZM58.0256 81.5756H58.3885V83.2046H50.5968V81.5756H50.9606H58.0256ZM80.9287 18.3835V20.9346H78.8286H55.8184V18.3835H80.9287ZM50.4756 6.84966H50.9809V14.1187H47.2939V10.1154L50.4756 6.84966ZM44.9762 6.84966H45.4815V9.39284V14.1187H41.7945V10.3779V10.1154L44.9762 6.84966ZM36.2951 6.84966H36.8004L39.982 10.1154V10.3779V14.1187H36.295V9.39284L36.2951 6.84966ZM30.7956 6.84966H31.301L34.4825 10.1154V14.1187H30.7955L30.7956 6.84966ZM28.514 15.9103H28.9831H34.4826H36.2951H39.9821H41.7946H45.4816H47.2941H52.7936H54.006V16.5918V20.9345V22.7262V23.4076H28.514V22.7262V20.9345V16.5918V15.9103ZM6.06406 20.9345V18.3834H26.7016V20.9345H8.16502H6.06406ZM9.97752 22.7262H26.7015V25.1993H55.8184V22.7262H77.0161V27.2211H9.97752V22.7262ZM5.19406 30.6522L4.24268 29.0128H8.16502V29.0154H78.8286V29.0128H82.7537L81.8023 30.6522H80.9111H6.08527H5.19406ZM7.89777 32.4439H79.0986V37.7401H7.89777V32.4439ZM10.074 39.5327H13.5132V79.7839H10.074V39.5327ZM7.89777 81.5756H8.26154H15.3257H15.6894V83.2046H7.89777V81.5756ZM15.3257 79.7839V39.5318H29.6106V79.7839H27.4353V83.3166H17.5019V79.7839H15.3257Z" fill="#6B7280" stroke="#6B7280" stroke-width="1.80515" mask="url(#path-2-inside-1_268_12210)"/>
<path d="M12.6522 34.2231V35.9585H11.7421V34.2231H12.6522Z" fill="#6B7280" stroke="#6B7280" stroke-width="0.902575"/>
<path d="M18.9102 34.2231V35.9585H18V34.2231H18.9102Z" fill="#6B7280" stroke="#6B7280" stroke-width="0.902575"/>
<path d="M25.1716 34.2231V35.9585H24.2615V34.2231H25.1716Z" fill="#6B7280" stroke="#6B7280" stroke-width="0.902575"/>
<path d="M31.4331 34.2231V35.9585H30.5229V34.2231H31.4331Z" fill="#6B7280" stroke="#6B7280" stroke-width="0.902575"/>
<path d="M37.6945 34.2231V35.9585H36.7843V34.2231H37.6945Z" fill="#6B7280" stroke="#6B7280" stroke-width="0.902575"/>
<path d="M43.9568 34.2231V35.9585H43.0466V34.2231H43.9568Z" fill="#6B7280" stroke="#6B7280" stroke-width="0.902575"/>
<path d="M50.2139 34.2231V35.9585H49.3037V34.2231H50.2139Z" fill="#6B7280" stroke="#6B7280" stroke-width="0.902575"/>
<path d="M56.4753 34.2231V35.9585H55.5652V34.2231H56.4753Z" fill="#6B7280" stroke="#6B7280" stroke-width="0.902575"/>
<path d="M62.7367 34.2231V35.9585H61.8265V34.2231H62.7367Z" fill="#6B7280" stroke="#6B7280" stroke-width="0.902575"/>
<path d="M68.999 34.2231V35.9585H68.0889V34.2231H68.999Z" fill="#6B7280" stroke="#6B7280" stroke-width="0.902575"/>
<path d="M75.2605 34.2231V35.9585H74.3503V34.2231H75.2605Z" fill="#6B7280" stroke="#6B7280" stroke-width="0.902575"/>
</g>
<defs>
<clipPath id="clip0_268_12210">
<rect width="87" height="86" rx="16" fill="white"/>
</clipPath>
</defs>
</svg>
