<svg width="35" height="35" viewBox="0 0 35 35" fill="none" xmlns="http://www.w3.org/2000/svg">
<g clip-path="url(#clip0_322_1408)">
<path d="M18.9697 32.1922H7.21565C4.27712 32.1922 2.80786 30.723 2.80786 27.7844V16.0303C2.80786 13.0918 4.27712 11.6226 7.21565 11.6226H14.562V27.7844C14.562 30.723 16.0312 32.1922 18.9697 32.1922Z" stroke="#6B7280" stroke-width="2.20389" stroke-miterlimit="10" stroke-linecap="round" stroke-linejoin="round"/>
<path d="M14.7235 5.74561C14.6059 6.18638 14.5619 6.67124 14.5619 7.21487V11.6227H7.21558V8.68413C7.21558 7.06794 8.53791 5.74561 10.1541 5.74561H14.7235Z" stroke="#6B7280" stroke-width="2.20389" stroke-miterlimit="10" stroke-linecap="round" stroke-linejoin="round"/>
<path d="M20.439 11.6226V18.9689" stroke="#6B7280" stroke-width="2.20389" stroke-miterlimit="10" stroke-linecap="round" stroke-linejoin="round"/>
<path d="M26.3157 11.6226V18.9689" stroke="#6B7280" stroke-width="2.20389" stroke-miterlimit="10" stroke-linecap="round" stroke-linejoin="round"/>
<path d="M24.8468 24.8462H21.9082C21.1001 24.8462 20.439 25.5074 20.439 26.3155V32.1925H26.316V26.3155C26.316 25.5074 25.6548 24.8462 24.8468 24.8462Z" stroke="#6B7280" stroke-width="2.20389" stroke-miterlimit="10" stroke-linecap="round" stroke-linejoin="round"/>
<path d="M8.68457 18.9692V24.8463" stroke="#6B7280" stroke-width="2.20389" stroke-miterlimit="10" stroke-linecap="round" stroke-linejoin="round"/>
<path d="M14.561 27.7846V7.21492C14.561 4.27639 16.0303 2.80713 18.9688 2.80713H27.7844C30.7229 2.80713 32.1922 4.27639 32.1922 7.21492V27.7846C32.1922 30.7231 30.7229 32.1924 27.7844 32.1924H18.9688C16.0303 32.1924 14.561 30.7231 14.561 27.7846Z" stroke="#6B7280" stroke-width="2.20389" stroke-miterlimit="10" stroke-linecap="round" stroke-linejoin="round"/>
</g>
<defs>
<clipPath id="clip0_322_1408">
<rect width="35" height="35" fill="white"/>
</clipPath>
</defs>
</svg>
