<svg width="87" height="86" viewBox="0 0 87 86" fill="none" xmlns="http://www.w3.org/2000/svg">
<rect width="87" height="86" rx="16" fill="#EBF5FF"/>
<path d="M34.6116 16.7329V16.7339C44.5358 25.8821 59.9477 46.4071 51.4504 81.0894L51.3674 81.4302H33.845V16.0259L34.6116 16.7329ZM34.7551 80.5415H50.6487L50.7317 80.1938C50.9308 79.3537 51.1073 78.5282 51.2776 77.7095L51.3909 77.1665H34.7551V80.5415ZM34.7551 76.2769H51.5588L51.6272 75.9087C51.7838 75.0686 51.9286 74.2351 52.0569 73.4116L52.1379 72.8911H34.7551V76.2769ZM34.7551 72.0024H52.2737L52.3264 71.6108C52.4386 70.7698 52.5316 69.9418 52.6145 69.1226L52.6643 68.6255H34.7551V72.0024ZM34.7551 67.7368H52.7375L52.7698 67.3198C52.8348 66.4801 52.8854 65.6502 52.9211 64.8306L52.9417 64.3599H34.7551V67.7368ZM34.7551 63.4712H52.9739L52.9827 63.0278C52.9983 62.1838 52.9988 61.3507 52.9846 60.5288L52.9778 60.0854H34.7551V63.4712ZM34.7551 59.1958H52.9524L52.9319 58.7251C52.895 57.8834 52.8435 57.0522 52.7766 56.2339L52.7424 55.8188H34.7551V59.1958ZM34.7551 54.9302H52.6526L52.5979 54.4292C52.505 53.5867 52.3979 52.7552 52.2747 51.938L52.217 51.5542H34.7551V54.9302ZM34.7551 50.6646H52.0696L51.9729 50.1333C51.8193 49.2858 51.6524 48.4505 51.468 47.6313L51.3889 47.2788H34.7551V50.6646ZM34.7551 46.3901H51.176L51.0305 45.8257C50.8125 44.9807 50.5828 44.1468 50.3342 43.3325L50.2366 43.0132H34.7551V46.3901ZM34.7551 42.1245H49.9524L49.7493 41.5269C49.4598 40.6783 49.157 39.8455 48.8381 39.0337L48.7258 38.7476H34.7551V42.1245ZM34.7551 37.8589H48.3655L48.093 37.228C47.7213 36.3681 47.3336 35.5365 46.9358 34.7251L46.8118 34.4731H34.7551V37.8589ZM35.6252 21.6099L34.7551 21.7769V33.5835H40.3958L40.1497 32.9653L35.6252 21.6099ZM37.0813 20.4575L36.3323 20.9331L41.259 33.2993L41.3723 33.5835H46.3665L46.012 32.9194C43.2749 27.7982 40.081 23.6651 37.0813 20.4575Z" stroke="#6B7280" stroke-width="0.902575"/>
<path d="M31.0424 0.899414V9.20312L31.2465 9.33691C33.1617 10.5867 41.1407 16.1988 47.891 26.9277L47.9515 27.0234L48.0492 27.0791L61.8373 34.9355H52.1429L52.4115 35.5645C57.2223 46.843 60.1022 62.8353 54.6234 83.6445L54.475 84.2109H86.0277V85.1006C73.0282 85.1006 11.7592 85.1008 1.74255 85.1006V84.2109H30.1322V35.6992H22.7269L29.9301 30.916L30.1322 30.7822V0.899414H31.0424ZM31.0424 31.252L26.932 33.9824L25.6859 34.8096H31.0424V84.2109H53.5414L53.6302 83.877C60.5205 58.2008 54.554 39.8962 47.9535 28.7598L47.3129 27.7041C41.5484 18.4199 34.6609 12.8694 31.7562 10.7822L31.0424 10.2686V31.252ZM49.7084 30.0156C50.3607 31.201 51.0003 32.4575 51.6166 33.7852L51.7377 34.0469H58.4711L56.9906 33.2031L50.3275 29.4062L48.9369 28.6143L49.7084 30.0156Z" fill="#6B7280" stroke="#6B7280" stroke-width="0.902575"/>
</svg>
