<svg width="1001" height="240" viewBox="0 0 1001 240" fill="none" xmlns="http://www.w3.org/2000/svg">
<path d="M186.651 206.316C141.025 220.399 0 240 0 240H1001C1001 240 913.941 233.116 866.888 206.316C825.9 182.969 806.054 123.509 778.402 123.509C760.077 123.509 739.689 145.965 718.95 145.965C698.211 145.965 683.003 42.1053 656.733 42.1053C630.464 42.1053 615.39 72.9825 588.986 72.9825C558.569 72.9825 541.978 2.20991e-10 515.709 0C475.613 -3.37302e-10 398.188 164.211 371.919 164.211C345.649 164.211 316.615 138.947 294.493 138.947C272.372 138.947 242.482 189.082 186.651 206.316Z" fill="url(#paint0_linear_742_28076)"/>
<defs>
<linearGradient id="paint0_linear_742_28076" x1="500.5" y1="-523.509" x2="500.5" y2="196.491" gradientUnits="userSpaceOnUse">
<stop stop-color="#A4CAFE"/>
<stop offset="1" stop-color="#C3DDFD"/>
</linearGradient>
</defs>
</svg>
