<svg width="87" height="86" viewBox="0 0 87 86" fill="none" xmlns="http://www.w3.org/2000/svg">
<rect width="87" height="86" rx="16" fill="#EBF5FF"/>
<mask id="path-2-inside-1_268_12458" fill="white">
<path d="M43.3934 4.52019C43.3926 4.52019 43.3917 4.52019 43.3909 4.52019C29.8791 4.51974 16.2151 3.60581 2.77854 1.80313L0.90686 1.55176L8.11762 12.6293C8.30521 12.6544 10.5308 12.9709 13.3354 13.3069V19.2918H20.2829V23.7863H22.8925V29.5459L18.3483 28.1159V31.8617H8.75209L17.2761 37.3113H22.8886V66.9235C22.0821 67.156 21.1876 67.2832 20.2587 67.2832C15.7047 67.2832 14.7367 64.8809 14.4199 64.6498C14.0766 64.8988 13.1789 67.2832 8.58706 67.2832C6.38922 67.2832 4.31971 66.5572 3.43811 65.4767L2.08227 66.558C3.31431 68.0672 5.8065 69.0051 8.58706 69.0051C10.9321 69.0051 13.0713 68.3409 14.4246 67.2302C15.783 68.3409 17.9213 69.0051 20.2587 69.0051C22.2092 69.0051 24.5503 68.4981 26.0943 67.2317C27.6134 68.4769 29.9304 69.0051 31.9299 69.0051C34.2673 69.0051 36.4056 68.3409 37.7635 67.2307C39.1159 68.341 41.2521 69.0051 43.592 69.0051C45.9371 69.0051 48.0763 68.3409 49.4296 67.2302C50.7879 68.3409 52.9262 69.0051 55.2636 69.0051C57.8204 69.0051 59.8783 68.2211 61.0963 67.2312C62.2857 68.2043 64.4271 69.0051 66.9348 69.0051C69.2722 69.0051 71.4105 68.3409 72.7684 67.2307C74.1208 68.341 76.2575 69.0051 78.5974 69.0051C81.383 69.0051 83.8786 68.0672 85.1107 66.558L83.7549 65.4767C82.8733 66.5572 80.8004 67.2832 78.5974 67.2832C74.062 67.2832 73.0411 64.8447 72.7727 64.6498C72.3909 64.9285 71.4806 67.2832 66.9348 67.2832C66.0153 67.2832 65.1367 67.1619 64.3478 66.9386V37.3113H69.7259L78.2491 31.8617H68.8881V28.1159L64.3439 29.5459V23.7863H66.9535V19.2918H73.6661V13.3981C76.5221 13.0095 78.7915 12.6324 78.881 12.6184L86.0944 1.55471L84.2239 1.80268C70.6403 3.60581 56.9031 4.52019 43.3934 4.52019ZM22.0249 22.0643V19.2918H30.1972V22.0643C19.9407 22.0595 24.0807 22.0642 22.0249 22.0643ZM57.9097 31.8617H55.105V30.471L57.9097 31.3535V31.8617ZM53.363 28.1159V31.8617H33.8734V28.1159L29.3267 29.5468V23.7863H31.9392V19.2918H55.2976V23.7863H57.9097V29.5467L53.363 28.1159ZM29.3267 31.8617V31.3536L32.1314 30.471V31.8617H29.3267ZM24.6345 23.7862H27.5847V30.0949L27.5842 31.8616H24.6378V30.0951L24.6344 30.094L24.6345 23.7862ZM20.0903 30.471L22.8925 31.3527V31.8617H20.0903V30.471ZM26.0941 64.6473C25.469 65.3732 25.3495 65.6869 24.6307 66.1599V37.3125H27.5834V66.1775C26.8999 65.7353 26.7468 65.4273 26.0941 64.6473ZM62.6058 66.1929C61.6035 65.4636 61.7554 65.3718 61.1024 64.6405C60.6109 65.1639 60.4701 65.6046 59.6535 66.1429V37.3125H62.6059L62.6058 66.1929ZM57.9114 66.915C57.0931 67.1528 56.1923 67.2832 55.2636 67.2832C50.7097 67.2832 49.7417 64.8809 49.4249 64.6498C49.0816 64.8988 48.1839 67.2832 43.592 67.2832C39.0566 67.2832 38.0372 64.8454 37.7678 64.6498C37.386 64.9285 36.4757 67.2832 31.9299 67.2832C31.002 67.2832 30.1187 67.1599 29.3254 66.9324V37.3113H57.9115L57.9114 66.915ZM72.3486 33.5836L69.2113 35.5893H17.7907L14.6533 33.5836C33.7371 33.5837 63.0276 33.586 72.3486 33.5836ZM67.1461 30.471V31.8617H64.3439V31.3527L67.1461 30.471ZM62.6019 30.0941L62.5985 30.0952V31.8617H59.6525V30.0952L59.6517 23.7863H62.6019V30.0941ZM65.2115 22.0643H64.3439V22.0609H57.9097V22.0643H57.0396V19.2918H65.2116L65.2115 22.0643ZM15.0774 17.5698V13.5508C33.7962 15.6917 53.0068 16.0267 71.9242 13.6211V17.5698C64.173 17.5698 23.3896 17.5698 15.0774 17.5698ZM77.8362 11.0431C68.2132 12.5835 56.3833 13.5621 44.7333 13.5709C32.83 13.562 20.8026 12.6217 9.14984 11.0326L7.41709 8.37057C20.5954 9.69766 33.2814 10.3692 45.3876 10.3692C57.3661 10.3692 68.7739 9.71092 79.5518 8.41133L77.8362 11.0431ZM80.7778 6.53044C58.4982 9.35267 33.4159 9.35008 6.21304 6.52068L4.41205 3.75381C17.3233 5.4051 30.4264 6.24171 43.3909 6.24216C43.3926 6.24216 43.3917 6.24216 43.3934 6.24216C56.3608 6.24216 69.5392 5.40429 82.5895 3.7513L80.7778 6.53044ZM8.59141 79.1821C10.9352 79.1821 13.0731 78.5183 14.4259 77.4084C15.7783 78.5183 17.9163 79.1821 20.26 79.1821C22.6038 79.1821 24.7417 78.5183 26.0941 77.4084C27.4465 78.5183 29.5844 79.1821 31.9282 79.1821C34.2719 79.1821 36.4098 78.5183 37.7622 77.4084C39.1151 78.5183 41.253 79.1821 43.5963 79.1821C45.9401 79.1821 48.078 78.5183 49.4308 77.4084C50.7832 78.5183 52.9212 79.1821 55.2649 79.1821C57.6087 79.1821 59.7466 78.5183 61.099 77.4084C62.4514 78.5183 64.5893 79.1821 66.9331 79.1821C69.2768 79.1821 71.4147 78.5183 72.7671 77.4084C74.12 78.5183 76.2579 79.1821 78.6017 79.1821C81.3881 79.1821 83.8833 78.2438 85.1141 76.7337L83.7574 75.6532C82.863 76.7509 80.8396 77.4601 78.6017 77.4601C74.0291 77.4601 73.0812 75.0513 72.7671 74.8208C72.3845 75.1016 71.4976 77.4601 66.9331 77.4601C62.3605 77.4601 61.4143 75.0523 61.099 74.8208C60.7164 75.1016 59.8294 77.4601 55.2649 77.4601C50.6923 77.4601 49.7461 75.0523 49.4308 74.8208C49.0519 75.0989 48.1608 77.4601 43.5963 77.4601C39.0237 77.4601 38.0775 75.0522 37.7622 74.8208C37.3796 75.1016 36.4927 77.4601 31.9282 77.4601C27.3556 77.4601 26.4094 75.0523 26.0941 74.8208C25.7115 75.1016 24.8245 77.4601 20.26 77.4601C15.6874 77.4601 14.7412 75.0523 14.4259 74.8208C14.047 75.0989 13.1559 77.4601 8.59141 77.4601C6.35351 77.4601 4.33004 76.7509 3.43566 75.6532L2.079 76.7337C3.30969 78.2438 5.80487 79.1821 8.59141 79.1821ZM8.59141 84.4489C10.9352 84.4489 13.0731 83.785 14.4259 82.6752C15.7783 83.785 17.9163 84.4489 20.26 84.4489C22.6038 84.4489 24.7417 83.785 26.0941 82.6752C27.4465 83.785 29.5844 84.4489 31.9282 84.4489C34.2719 84.4489 36.4098 83.785 37.7622 82.6752C39.1151 83.785 41.253 84.4489 43.5963 84.4489C45.9401 84.4489 48.078 83.785 49.4308 82.6752C50.7832 83.785 52.9212 84.4489 55.2649 84.4489C57.6087 84.4489 59.7466 83.785 61.099 82.6752C62.4514 83.785 64.5893 84.4489 66.9331 84.4489C69.2768 84.4489 71.4147 83.785 72.7671 82.6752C74.12 83.785 76.2579 84.4489 78.6017 84.4489C81.3881 84.4489 83.8833 83.5106 85.1141 82.0005L83.7574 80.92C82.863 82.0177 80.8396 82.7269 78.6017 82.7269C74.0291 82.7269 73.0812 80.3181 72.7671 80.0876C72.3845 80.3684 71.4976 82.7269 66.9331 82.7269C62.3605 82.7269 61.4143 80.319 61.099 80.0876C60.7164 80.3684 59.8294 82.7269 55.2649 82.7269C50.6923 82.7269 49.7461 80.319 49.4308 80.0876C49.0519 80.3656 48.1608 82.7269 43.5963 82.7269C39.0237 82.7269 38.0775 80.319 37.7622 80.0876C37.3796 80.3684 36.4927 82.7269 31.9282 82.7269C27.3556 82.7269 26.4094 80.319 26.0941 80.0876C25.7115 80.3684 24.8245 82.7269 20.26 82.7269C15.6874 82.7269 14.7412 80.319 14.4259 80.0876C14.047 80.3656 13.1559 82.7269 8.59141 82.7269C6.35351 82.7269 4.33004 82.0177 3.43566 80.92L2.079 82.0005C3.30969 83.5105 5.80487 84.4489 8.59141 84.4489ZM14.4258 72.0487C15.7782 73.1581 17.9162 73.8219 20.2599 73.8219C22.6037 73.8219 24.7416 73.1581 26.094 72.0487C27.4464 73.1581 29.5843 73.8219 31.9281 73.8219C34.2718 73.8219 36.4097 73.1581 37.7621 72.0487C39.115 73.1581 41.2529 73.8219 43.5962 73.8219C45.9395 73.8219 48.0779 73.1581 49.4307 72.0487C50.7831 73.1581 52.9211 73.8219 55.2648 73.8219C57.6086 73.8219 59.7465 73.1581 61.0989 72.0487C62.4513 73.1581 64.5892 73.8219 66.933 73.8219C69.2767 73.8219 71.4146 73.1581 72.767 72.0487C74.1199 73.1581 76.2582 73.8219 78.6016 73.8219C81.3877 73.8219 83.8832 72.884 85.114 71.374L83.7573 70.2935C82.8629 71.3907 80.839 72.1 78.6016 72.1C74.029 72.1 73.0824 69.6929 72.767 69.4616C72.3843 69.7423 71.4975 72.1 66.933 72.1C62.3604 72.1 61.4164 69.6945 61.0989 69.4616C60.7162 69.7423 59.8293 72.1 55.2648 72.1C50.6922 72.1 49.7482 69.6945 49.4307 69.4616C49.048 69.7423 48.1607 72.1 43.5962 72.1C39.0236 72.1 38.0796 69.6945 37.7621 69.4616C37.3794 69.7423 36.4926 72.1 31.9281 72.1C27.3555 72.1 26.4115 69.6945 26.094 69.4616C25.7113 69.7423 24.8244 72.1 20.2599 72.1C15.6873 72.1 14.7433 69.6945 14.4258 69.4616C14.0431 69.7423 13.1558 72.1 8.59132 72.1C6.35388 72.1 4.32995 71.3907 3.43557 70.2935L2.07891 71.374C3.30969 72.8841 5.80523 73.8219 8.59132 73.8219C10.9347 73.822 13.0731 73.1582 14.4258 72.0487Z"/>
</mask>
<path d="M43.3934 4.52019C43.3926 4.52019 43.3917 4.52019 43.3909 4.52019C29.8791 4.51974 16.2151 3.60581 2.77854 1.80313L0.90686 1.55176L8.11762 12.6293C8.30521 12.6544 10.5308 12.9709 13.3354 13.3069V19.2918H20.2829V23.7863H22.8925V29.5459L18.3483 28.1159V31.8617H8.75209L17.2761 37.3113H22.8886V66.9235C22.0821 67.156 21.1876 67.2832 20.2587 67.2832C15.7047 67.2832 14.7367 64.8809 14.4199 64.6498C14.0766 64.8988 13.1789 67.2832 8.58706 67.2832C6.38922 67.2832 4.31971 66.5572 3.43811 65.4767L2.08227 66.558C3.31431 68.0672 5.8065 69.0051 8.58706 69.0051C10.9321 69.0051 13.0713 68.3409 14.4246 67.2302C15.783 68.3409 17.9213 69.0051 20.2587 69.0051C22.2092 69.0051 24.5503 68.4981 26.0943 67.2317C27.6134 68.4769 29.9304 69.0051 31.9299 69.0051C34.2673 69.0051 36.4056 68.3409 37.7635 67.2307C39.1159 68.341 41.2521 69.0051 43.592 69.0051C45.9371 69.0051 48.0763 68.3409 49.4296 67.2302C50.7879 68.3409 52.9262 69.0051 55.2636 69.0051C57.8204 69.0051 59.8783 68.2211 61.0963 67.2312C62.2857 68.2043 64.4271 69.0051 66.9348 69.0051C69.2722 69.0051 71.4105 68.3409 72.7684 67.2307C74.1208 68.341 76.2575 69.0051 78.5974 69.0051C81.383 69.0051 83.8786 68.0672 85.1107 66.558L83.7549 65.4767C82.8733 66.5572 80.8004 67.2832 78.5974 67.2832C74.062 67.2832 73.0411 64.8447 72.7727 64.6498C72.3909 64.9285 71.4806 67.2832 66.9348 67.2832C66.0153 67.2832 65.1367 67.1619 64.3478 66.9386V37.3113H69.7259L78.2491 31.8617H68.8881V28.1159L64.3439 29.5459V23.7863H66.9535V19.2918H73.6661V13.3981C76.5221 13.0095 78.7915 12.6324 78.881 12.6184L86.0944 1.55471L84.2239 1.80268C70.6403 3.60581 56.9031 4.52019 43.3934 4.52019ZM22.0249 22.0643V19.2918H30.1972V22.0643C19.9407 22.0595 24.0807 22.0642 22.0249 22.0643ZM57.9097 31.8617H55.105V30.471L57.9097 31.3535V31.8617ZM53.363 28.1159V31.8617H33.8734V28.1159L29.3267 29.5468V23.7863H31.9392V19.2918H55.2976V23.7863H57.9097V29.5467L53.363 28.1159ZM29.3267 31.8617V31.3536L32.1314 30.471V31.8617H29.3267ZM24.6345 23.7862H27.5847V30.0949L27.5842 31.8616H24.6378V30.0951L24.6344 30.094L24.6345 23.7862ZM20.0903 30.471L22.8925 31.3527V31.8617H20.0903V30.471ZM26.0941 64.6473C25.469 65.3732 25.3495 65.6869 24.6307 66.1599V37.3125H27.5834V66.1775C26.8999 65.7353 26.7468 65.4273 26.0941 64.6473ZM62.6058 66.1929C61.6035 65.4636 61.7554 65.3718 61.1024 64.6405C60.6109 65.1639 60.4701 65.6046 59.6535 66.1429V37.3125H62.6059L62.6058 66.1929ZM57.9114 66.915C57.0931 67.1528 56.1923 67.2832 55.2636 67.2832C50.7097 67.2832 49.7417 64.8809 49.4249 64.6498C49.0816 64.8988 48.1839 67.2832 43.592 67.2832C39.0566 67.2832 38.0372 64.8454 37.7678 64.6498C37.386 64.9285 36.4757 67.2832 31.9299 67.2832C31.002 67.2832 30.1187 67.1599 29.3254 66.9324V37.3113H57.9115L57.9114 66.915ZM72.3486 33.5836L69.2113 35.5893H17.7907L14.6533 33.5836C33.7371 33.5837 63.0276 33.586 72.3486 33.5836ZM67.1461 30.471V31.8617H64.3439V31.3527L67.1461 30.471ZM62.6019 30.0941L62.5985 30.0952V31.8617H59.6525V30.0952L59.6517 23.7863H62.6019V30.0941ZM65.2115 22.0643H64.3439V22.0609H57.9097V22.0643H57.0396V19.2918H65.2116L65.2115 22.0643ZM15.0774 17.5698V13.5508C33.7962 15.6917 53.0068 16.0267 71.9242 13.6211V17.5698C64.173 17.5698 23.3896 17.5698 15.0774 17.5698ZM77.8362 11.0431C68.2132 12.5835 56.3833 13.5621 44.7333 13.5709C32.83 13.562 20.8026 12.6217 9.14984 11.0326L7.41709 8.37057C20.5954 9.69766 33.2814 10.3692 45.3876 10.3692C57.3661 10.3692 68.7739 9.71092 79.5518 8.41133L77.8362 11.0431ZM80.7778 6.53044C58.4982 9.35267 33.4159 9.35008 6.21304 6.52068L4.41205 3.75381C17.3233 5.4051 30.4264 6.24171 43.3909 6.24216C43.3926 6.24216 43.3917 6.24216 43.3934 6.24216C56.3608 6.24216 69.5392 5.40429 82.5895 3.7513L80.7778 6.53044ZM8.59141 79.1821C10.9352 79.1821 13.0731 78.5183 14.4259 77.4084C15.7783 78.5183 17.9163 79.1821 20.26 79.1821C22.6038 79.1821 24.7417 78.5183 26.0941 77.4084C27.4465 78.5183 29.5844 79.1821 31.9282 79.1821C34.2719 79.1821 36.4098 78.5183 37.7622 77.4084C39.1151 78.5183 41.253 79.1821 43.5963 79.1821C45.9401 79.1821 48.078 78.5183 49.4308 77.4084C50.7832 78.5183 52.9212 79.1821 55.2649 79.1821C57.6087 79.1821 59.7466 78.5183 61.099 77.4084C62.4514 78.5183 64.5893 79.1821 66.9331 79.1821C69.2768 79.1821 71.4147 78.5183 72.7671 77.4084C74.12 78.5183 76.2579 79.1821 78.6017 79.1821C81.3881 79.1821 83.8833 78.2438 85.1141 76.7337L83.7574 75.6532C82.863 76.7509 80.8396 77.4601 78.6017 77.4601C74.0291 77.4601 73.0812 75.0513 72.7671 74.8208C72.3845 75.1016 71.4976 77.4601 66.9331 77.4601C62.3605 77.4601 61.4143 75.0523 61.099 74.8208C60.7164 75.1016 59.8294 77.4601 55.2649 77.4601C50.6923 77.4601 49.7461 75.0523 49.4308 74.8208C49.0519 75.0989 48.1608 77.4601 43.5963 77.4601C39.0237 77.4601 38.0775 75.0522 37.7622 74.8208C37.3796 75.1016 36.4927 77.4601 31.9282 77.4601C27.3556 77.4601 26.4094 75.0523 26.0941 74.8208C25.7115 75.1016 24.8245 77.4601 20.26 77.4601C15.6874 77.4601 14.7412 75.0523 14.4259 74.8208C14.047 75.0989 13.1559 77.4601 8.59141 77.4601C6.35351 77.4601 4.33004 76.7509 3.43566 75.6532L2.079 76.7337C3.30969 78.2438 5.80487 79.1821 8.59141 79.1821ZM8.59141 84.4489C10.9352 84.4489 13.0731 83.785 14.4259 82.6752C15.7783 83.785 17.9163 84.4489 20.26 84.4489C22.6038 84.4489 24.7417 83.785 26.0941 82.6752C27.4465 83.785 29.5844 84.4489 31.9282 84.4489C34.2719 84.4489 36.4098 83.785 37.7622 82.6752C39.1151 83.785 41.253 84.4489 43.5963 84.4489C45.9401 84.4489 48.078 83.785 49.4308 82.6752C50.7832 83.785 52.9212 84.4489 55.2649 84.4489C57.6087 84.4489 59.7466 83.785 61.099 82.6752C62.4514 83.785 64.5893 84.4489 66.9331 84.4489C69.2768 84.4489 71.4147 83.785 72.7671 82.6752C74.12 83.785 76.2579 84.4489 78.6017 84.4489C81.3881 84.4489 83.8833 83.5106 85.1141 82.0005L83.7574 80.92C82.863 82.0177 80.8396 82.7269 78.6017 82.7269C74.0291 82.7269 73.0812 80.3181 72.7671 80.0876C72.3845 80.3684 71.4976 82.7269 66.9331 82.7269C62.3605 82.7269 61.4143 80.319 61.099 80.0876C60.7164 80.3684 59.8294 82.7269 55.2649 82.7269C50.6923 82.7269 49.7461 80.319 49.4308 80.0876C49.0519 80.3656 48.1608 82.7269 43.5963 82.7269C39.0237 82.7269 38.0775 80.319 37.7622 80.0876C37.3796 80.3684 36.4927 82.7269 31.9282 82.7269C27.3556 82.7269 26.4094 80.319 26.0941 80.0876C25.7115 80.3684 24.8245 82.7269 20.26 82.7269C15.6874 82.7269 14.7412 80.319 14.4259 80.0876C14.047 80.3656 13.1559 82.7269 8.59141 82.7269C6.35351 82.7269 4.33004 82.0177 3.43566 80.92L2.079 82.0005C3.30969 83.5105 5.80487 84.4489 8.59141 84.4489ZM14.4258 72.0487C15.7782 73.1581 17.9162 73.8219 20.2599 73.8219C22.6037 73.8219 24.7416 73.1581 26.094 72.0487C27.4464 73.1581 29.5843 73.8219 31.9281 73.8219C34.2718 73.8219 36.4097 73.1581 37.7621 72.0487C39.115 73.1581 41.2529 73.8219 43.5962 73.8219C45.9395 73.8219 48.0779 73.1581 49.4307 72.0487C50.7831 73.1581 52.9211 73.8219 55.2648 73.8219C57.6086 73.8219 59.7465 73.1581 61.0989 72.0487C62.4513 73.1581 64.5892 73.8219 66.933 73.8219C69.2767 73.8219 71.4146 73.1581 72.767 72.0487C74.1199 73.1581 76.2582 73.8219 78.6016 73.8219C81.3877 73.8219 83.8832 72.884 85.114 71.374L83.7573 70.2935C82.8629 71.3907 80.839 72.1 78.6016 72.1C74.029 72.1 73.0824 69.6929 72.767 69.4616C72.3843 69.7423 71.4975 72.1 66.933 72.1C62.3604 72.1 61.4164 69.6945 61.0989 69.4616C60.7162 69.7423 59.8293 72.1 55.2648 72.1C50.6922 72.1 49.7482 69.6945 49.4307 69.4616C49.048 69.7423 48.1607 72.1 43.5962 72.1C39.0236 72.1 38.0796 69.6945 37.7621 69.4616C37.3794 69.7423 36.4926 72.1 31.9281 72.1C27.3555 72.1 26.4115 69.6945 26.094 69.4616C25.7113 69.7423 24.8244 72.1 20.2599 72.1C15.6873 72.1 14.7433 69.6945 14.4258 69.4616C14.0431 69.7423 13.1558 72.1 8.59132 72.1C6.35388 72.1 4.32995 71.3907 3.43557 70.2935L2.07891 71.374C3.30969 72.8841 5.80523 73.8219 8.59132 73.8219C10.9347 73.822 13.0731 73.1582 14.4258 72.0487Z" fill="#6B7280" stroke="#6B7280" stroke-width="1.80515" mask="url(#path-2-inside-1_268_12458)"/>
</svg>
