<svg width="87" height="86" viewBox="0 0 87 86" fill="none" xmlns="http://www.w3.org/2000/svg">
<rect width="87" height="86" rx="16" fill="#EBF5FF"/>
<path d="M43.6753 14.0996C43.7731 15.9122 44.2724 23.119 46.3286 32.1201C48.6774 42.4018 53.0681 55.0746 61.2544 64.7129L61.4448 64.9365L61.4468 64.9355C66.3873 70.6826 72.6973 75.3323 80.7534 77.6982L82.9556 78.3447C17.7709 78.3486 69.1318 78.3475 4.03857 78.3447L6.23779 77.6982C20.1386 73.6106 29.1728 62.1888 34.7983 49.543C40.338 37.0902 42.6054 23.3803 42.9604 14.0996H43.6753ZM15.9116 74.0381C14.2441 75.0878 12.4914 76.0247 10.6392 76.8184L10.8169 77.6846H15.5347L15.6382 77.376L16.5806 74.5635L16.9819 73.3643L15.9116 74.0381ZM23.5972 67.7822C21.8763 69.5427 20.0293 71.1662 18.0376 72.6074L17.9204 72.6924L17.8745 72.8301L16.4478 77.0898L16.2485 77.6846H21.5317L21.6274 77.3613L24.3521 68.2275L23.5972 67.7822ZM32.7007 55.2607C30.7822 58.7711 28.5631 62.0965 26.0229 65.1104L25.5796 65.6367L25.8091 65.7051L22.4116 77.1035L22.2388 77.6846H27.5269L27.6177 77.3516L33.5327 55.5947L32.7007 55.2607ZM43.7935 22.5449L42.8989 22.5488C41.8617 30.367 39.7211 39.5677 36.0454 48.2881L35.8442 48.7666L36.0747 48.8271L28.3843 77.1143L28.23 77.6846H34.5796L34.6558 77.3271L43.2974 36.7314L51.9399 77.3271L52.0161 77.6846H58.4019L58.2466 77.1143L50.5552 48.8271L50.9419 48.7256L50.7397 48.2471C50.7025 48.1588 50.6642 48.0727 50.6284 47.9922C50.5921 47.9103 50.5575 47.8325 50.5249 47.7539C46.9704 39.1895 44.8511 30.0206 43.7935 22.5449ZM39.2769 58.876L35.3892 77.1387L35.2729 77.6846H51.3228L51.2065 77.1387L47.3188 58.876L47.2427 58.5186H39.353L39.2769 58.876ZM53.7456 54.5762L52.9116 54.9062L59.0132 77.3516L59.104 77.6846H64.396L64.2231 77.1035L60.5981 64.9443L60.5718 64.8564L60.5132 64.7852L60.0513 64.2227C57.759 61.3858 55.656 58.1688 53.7456 54.5762ZM62.9624 67.5254L62.2056 67.9678L65.0063 77.3623L65.1021 77.6846H70.3784L70.1792 77.0898L68.6763 72.6045L68.6304 72.4688L68.5142 72.3838C66.568 70.9632 64.7192 69.3391 62.9624 67.5254ZM69.9761 74.3525L70.9888 77.376L71.0923 77.6846H76.1421L76.3179 76.8174C74.3505 75.9841 72.4621 74.9822 70.646 73.8281L69.5708 73.1455L69.9761 74.3525ZM39.6099 57.3125L39.4937 57.8574H47.1021L46.9858 57.3125L43.7388 42.0605H42.856L39.6099 57.3125Z" fill="#6B7280" stroke="#6B7280" stroke-width="0.902575"/>
</svg>
