<svg width="35" height="35" viewBox="0 0 35 35" fill="none" xmlns="http://www.w3.org/2000/svg">
<path d="M21.2442 2.80713H13.7509C11.1063 2.80713 10.5186 4.12948 10.1806 5.76036L8.97583 11.5198H26.0193L24.8145 5.76036C24.4765 4.12948 23.8889 2.80713 21.2442 2.80713Z" stroke="#6B7280" stroke-width="2.20389" stroke-linecap="round" stroke-linejoin="round"/>
<path d="M28.1359 20.9082C28.2535 22.1571 27.2544 23.2297 25.9761 23.2297H23.9779C22.8319 23.2297 22.6703 22.7448 22.4646 22.1277L22.2442 21.4958C21.9503 20.629 21.7593 20.0413 20.2166 20.0413H14.7656C13.2376 20.0413 13.0025 20.7024 12.7381 21.4958L12.5177 22.1277C12.312 22.7301 12.1504 23.2297 11.0043 23.2297H9.00614C7.72788 23.2297 6.72878 22.1571 6.84632 20.9082L7.44872 14.4141C7.59565 12.8126 7.90418 11.5049 10.6958 11.5049H24.2865C27.0781 11.5049 27.3866 12.8126 27.5335 14.4141L28.1359 20.9082Z" stroke="#6B7280" stroke-width="2.20389" stroke-linecap="round" stroke-linejoin="round"/>
<path d="M8.97685 8.31689H7.9043" stroke="#6B7280" stroke-width="2.20389" stroke-linecap="round" stroke-linejoin="round"/>
<path d="M27.0921 8.31689H26.0195" stroke="#6B7280" stroke-width="2.20389" stroke-linecap="round" stroke-linejoin="round"/>
<path d="M11.1089 15.7808H14.2972" stroke="#6B7280" stroke-width="2.20389" stroke-linecap="round" stroke-linejoin="round"/>
<path d="M20.7017 15.7808H23.89" stroke="#6B7280" stroke-width="2.20389" stroke-linecap="round" stroke-linejoin="round"/>
<path d="M17.5 24.8462V26.3155" stroke="#6B7280" stroke-width="2.20389" stroke-linecap="round" stroke-linejoin="round"/>
<path d="M17.5 30.7231V32.1924" stroke="#6B7280" stroke-width="2.20389" stroke-linecap="round" stroke-linejoin="round"/>
<path d="M4.27664 26.3154L2.80737 32.1925" stroke="#6B7280" stroke-width="2.20389" stroke-linecap="round" stroke-linejoin="round"/>
<path d="M30.7234 26.3154L32.1927 32.1925" stroke="#6B7280" stroke-width="2.20389" stroke-linecap="round" stroke-linejoin="round"/>
</svg>
