<svg width="87" height="86" viewBox="0 0 87 86" fill="none" xmlns="http://www.w3.org/2000/svg">
<rect width="87" height="86" rx="16" fill="#EBF5FF"/>
<mask id="path-2-inside-1_268_12358" fill="white">
<path d="M86.0923 83.7066H67.2688C64.0938 77.3788 61.2871 70.9919 58.855 64.6299H60.297V62.8383H58.1734C56.5395 58.4373 55.0915 54.0548 53.8364 49.717H56.615V47.9253H53.331C51.654 41.8896 50.3609 35.956 49.4651 30.1954H51.5761V28.4038H49.1909C49.0943 27.7227 49.0106 27.0481 48.9255 26.3724H51.5762V24.5807H48.7083C48.6323 23.8999 48.5654 23.2241 48.5014 22.5493H51.5762V20.7577H48.3436C48.2186 19.1899 48.1181 17.6355 48.0601 16.105C48.5115 15.4285 48.7783 14.6215 48.7783 13.7523C48.7783 11.6948 47.3038 9.97397 45.3453 9.56045V2.53613H43.5328V9.56054C41.5747 9.97415 40.1003 11.6949 40.1003 13.7524C40.1003 14.623 40.3676 15.4316 40.8205 16.1087C40.7625 17.6381 40.6622 19.1912 40.5374 20.7577H37.3024V22.5493H40.3796C40.3155 23.2241 40.2488 23.8999 40.1727 24.5807H37.3024V26.3724H39.9556C39.8704 27.0481 39.7869 27.7227 39.6903 28.4038H37.3025V30.1954H39.4161C38.5201 35.9564 37.2268 41.89 35.5493 47.9253H32.2633V49.717H35.0438C33.7881 54.0549 32.3394 58.4375 30.7047 62.8383H28.5817V64.6299H30.0226C27.589 70.9923 24.7804 77.3792 21.603 83.7066H0.904785V85.4983C18.8159 85.4983 69.091 85.4983 86.0923 85.4983V83.7066ZM56.2471 62.8382H52.2788L48.8674 49.7169H51.9549C53.1966 54.055 54.6301 58.4373 56.2471 62.8382ZM46.996 49.717L50.4073 62.8383H38.4707L41.8819 49.717H46.996ZM42.3476 47.9253L44.4389 39.8812L46.5302 47.9253H42.3476ZM44.4389 11.2547C45.8323 11.2547 46.9656 12.375 46.9656 13.7524C46.9656 15.1294 45.8323 16.2496 44.4389 16.2496C43.0459 16.2496 41.9126 15.1294 41.9126 13.7524C41.9126 12.375 43.0459 11.2547 44.4389 11.2547ZM42.5564 17.5987C43.1282 17.8735 43.7615 18.0413 44.4389 18.0413C45.1173 18.0413 45.7515 17.873 46.3239 17.5974C46.3772 18.6435 46.4413 19.6951 46.5249 20.7577H42.3558C42.4392 19.6956 42.5032 18.6443 42.5564 17.5987ZM42.1999 22.5493H46.6809C46.7442 23.2241 46.81 23.8999 46.885 24.5807H41.996C42.0708 23.8999 42.1366 23.2241 42.1999 22.5493ZM41.7816 26.3724H47.0992C47.1832 27.048 47.2662 27.7228 47.3616 28.4038H41.5193C41.6147 27.7228 41.6975 27.048 41.7816 26.3724ZM41.249 30.1954H47.6319C48.517 35.9581 49.7936 41.891 51.4519 47.9253H48.4016L44.4389 32.6831L40.4762 47.9253H37.4282C39.087 41.8914 40.3639 35.9584 41.249 30.1954ZM36.925 49.717H40.0105L36.5993 62.8383H32.6308C34.2486 58.4375 35.6829 54.0552 36.925 49.717ZM56.5042 83.7066L54.7723 76.1813C53.6674 71.3801 49.4166 68.0269 44.4353 68.0269C39.4545 68.0269 35.2038 71.3802 34.0988 76.1813L32.3669 83.7066H23.6301C26.7757 77.3778 29.5511 70.9908 31.9593 64.6299C39.3524 64.6299 49.5446 64.6299 56.9183 64.6299C59.3249 70.9904 62.0983 77.3775 65.2416 83.7066H56.5042ZM34.2263 83.7031L35.8663 76.5785C36.7822 72.5984 40.3059 69.8186 44.4354 69.8186C48.5649 69.8186 52.089 72.5984 53.005 76.5785L54.645 83.7031H34.2263Z"/>
</mask>
<path d="M86.0923 83.7066H67.2688C64.0938 77.3788 61.2871 70.9919 58.855 64.6299H60.297V62.8383H58.1734C56.5395 58.4373 55.0915 54.0548 53.8364 49.717H56.615V47.9253H53.331C51.654 41.8896 50.3609 35.956 49.4651 30.1954H51.5761V28.4038H49.1909C49.0943 27.7227 49.0106 27.0481 48.9255 26.3724H51.5762V24.5807H48.7083C48.6323 23.8999 48.5654 23.2241 48.5014 22.5493H51.5762V20.7577H48.3436C48.2186 19.1899 48.1181 17.6355 48.0601 16.105C48.5115 15.4285 48.7783 14.6215 48.7783 13.7523C48.7783 11.6948 47.3038 9.97397 45.3453 9.56045V2.53613H43.5328V9.56054C41.5747 9.97415 40.1003 11.6949 40.1003 13.7524C40.1003 14.623 40.3676 15.4316 40.8205 16.1087C40.7625 17.6381 40.6622 19.1912 40.5374 20.7577H37.3024V22.5493H40.3796C40.3155 23.2241 40.2488 23.8999 40.1727 24.5807H37.3024V26.3724H39.9556C39.8704 27.0481 39.7869 27.7227 39.6903 28.4038H37.3025V30.1954H39.4161C38.5201 35.9564 37.2268 41.89 35.5493 47.9253H32.2633V49.717H35.0438C33.7881 54.0549 32.3394 58.4375 30.7047 62.8383H28.5817V64.6299H30.0226C27.589 70.9923 24.7804 77.3792 21.603 83.7066H0.904785V85.4983C18.8159 85.4983 69.091 85.4983 86.0923 85.4983V83.7066ZM56.2471 62.8382H52.2788L48.8674 49.7169H51.9549C53.1966 54.055 54.6301 58.4373 56.2471 62.8382ZM46.996 49.717L50.4073 62.8383H38.4707L41.8819 49.717H46.996ZM42.3476 47.9253L44.4389 39.8812L46.5302 47.9253H42.3476ZM44.4389 11.2547C45.8323 11.2547 46.9656 12.375 46.9656 13.7524C46.9656 15.1294 45.8323 16.2496 44.4389 16.2496C43.0459 16.2496 41.9126 15.1294 41.9126 13.7524C41.9126 12.375 43.0459 11.2547 44.4389 11.2547ZM42.5564 17.5987C43.1282 17.8735 43.7615 18.0413 44.4389 18.0413C45.1173 18.0413 45.7515 17.873 46.3239 17.5974C46.3772 18.6435 46.4413 19.6951 46.5249 20.7577H42.3558C42.4392 19.6956 42.5032 18.6443 42.5564 17.5987ZM42.1999 22.5493H46.6809C46.7442 23.2241 46.81 23.8999 46.885 24.5807H41.996C42.0708 23.8999 42.1366 23.2241 42.1999 22.5493ZM41.7816 26.3724H47.0992C47.1832 27.048 47.2662 27.7228 47.3616 28.4038H41.5193C41.6147 27.7228 41.6975 27.048 41.7816 26.3724ZM41.249 30.1954H47.6319C48.517 35.9581 49.7936 41.891 51.4519 47.9253H48.4016L44.4389 32.6831L40.4762 47.9253H37.4282C39.087 41.8914 40.3639 35.9584 41.249 30.1954ZM36.925 49.717H40.0105L36.5993 62.8383H32.6308C34.2486 58.4375 35.6829 54.0552 36.925 49.717ZM56.5042 83.7066L54.7723 76.1813C53.6674 71.3801 49.4166 68.0269 44.4353 68.0269C39.4545 68.0269 35.2038 71.3802 34.0988 76.1813L32.3669 83.7066H23.6301C26.7757 77.3778 29.5511 70.9908 31.9593 64.6299C39.3524 64.6299 49.5446 64.6299 56.9183 64.6299C59.3249 70.9904 62.0983 77.3775 65.2416 83.7066H56.5042ZM34.2263 83.7031L35.8663 76.5785C36.7822 72.5984 40.3059 69.8186 44.4354 69.8186C48.5649 69.8186 52.089 72.5984 53.005 76.5785L54.645 83.7031H34.2263Z" fill="#6B7280" stroke="#6B7280" stroke-width="1.80515" mask="url(#path-2-inside-1_268_12358)"/>
</svg>
