<svg width="87" height="86" viewBox="0 0 87 86" fill="none" xmlns="http://www.w3.org/2000/svg">
<rect width="87" height="86" rx="16" fill="#EBF5FF"/>
<mask id="path-2-inside-1_268_12096" fill="white">
<path d="M28.2558 33.4985C23.3681 33.4985 23.5261 39.5012 19.3127 42.6576C16.3347 44.8888 16.0444 55.8864 16.9799 62.9669C17.9658 70.4284 16.5312 78.7709 16.5072 78.9152C16.4497 79.469 16.2187 82.2929 17.34 83.5212C18.1065 84.362 19.422 84.3513 20.2083 83.4915C21.3242 82.2731 20.1745 81.7681 21.4252 78.3894C22.4429 75.6389 23.5298 63.1397 23.8723 58.9475C24.1183 59.0346 24.3661 59.0927 24.5891 59.0927C25.4818 59.0927 25.8494 58.3657 25.9431 57.4498C25.9582 57.3111 25.9821 57.0792 25.9892 57.0447C26.0798 57.0478 26.2892 56.8731 27.6017 57.2323C29.5625 57.7685 30.8777 57.5973 32.3763 57.0775C32.7185 56.9589 33.0608 56.8169 33.2578 56.9283C33.8813 57.2801 34.0818 58.7428 35.4792 60.6105C36.7528 62.3134 35.927 65.6566 35.0527 69.1957C34.2163 72.5796 33.3525 76.0781 33.9915 79.1138L34.011 79.2056C34.1721 79.9597 34.2695 80.4151 32.7499 81.0551C32.2587 81.262 31.9985 81.7405 32.1029 82.2457C32.3454 83.4201 34.7438 84.3755 37.4492 84.3755C41.1262 84.3755 41.8441 82.5431 41.3548 81.0226C40.3043 77.7538 41.4185 70.7468 43.7992 67.0598C44.4099 69.1826 45.4259 72.8648 45.8339 75.226C46.1808 77.2372 47.9314 79.5525 50.9785 80.1154L52.7254 83.7775C52.8162 83.7707 57.7951 85.7004 58.8887 77.5754C59.1093 75.9282 57.9416 74.4883 55.9398 74.3831C54.8114 74.3236 53.0007 73.7641 52.9476 72.5149C52.9343 72.1917 52.8963 71.7629 52.8529 71.2704C52.7281 69.8567 52.3953 66.1001 53.3034 65.5048C55.9125 63.7898 59.4584 66.9144 61.5047 69.2784C61.9941 69.8432 62.2641 70.5373 62.2853 71.2848C62.3358 73.0739 62.2268 77.3898 60.1259 78.8299C58.8302 79.7187 58.3187 80.6308 58.6063 81.5397C59.3095 83.7605 64.3118 83.4423 66.6581 83.1634C68.7494 82.9153 68.7804 81.0844 68.7954 80.2043C68.8211 78.7666 69.759 78.9075 68.8335 76.1826C68.2095 74.3507 68.9609 70.578 70.3212 68.7072C70.7864 68.0673 71.3177 67.568 71.9417 68.0156C79.6774 73.5667 75.9719 81.3926 75.995 81.4824C77.3994 82.9649 78.9973 83.6629 80.9148 83.6629C82.2139 83.6629 85.4127 82.9365 85.8673 81.7602C86.0868 81.1902 86.1744 80.0127 84.4079 76.3777C82.4323 72.3126 83.1621 71.2546 83.522 69.1678C83.7893 67.628 83.6574 65.2905 83.5309 63.0299C83.3406 59.6238 83.3652 59.4769 83.5857 57.0792C83.9742 52.8901 84.5052 47.1529 80.859 42.9108C78.2279 39.8489 73.7497 38.0756 67.5511 37.6395C65.9475 37.5267 64.5781 37.2674 61.9189 35.2463V21.3873C66.6805 21.3873 70.7064 21.3873 75.4224 21.3873V20.4914C75.4224 12.6429 68.9627 6.25781 61.0233 6.25781C53.0838 6.25781 46.6241 12.6428 46.6241 20.4914V21.3873C51.3347 21.3873 55.3543 21.3873 60.1064 21.3873V34.1346C58.7341 33.5212 57.0492 33.2142 54.9937 33.2142C54.1364 33.2142 53.2503 33.2698 52.3563 33.3606V31.0203L54.8795 30.6697L57.4124 23.5507L55.7026 22.9567L53.5361 29.0468L45.9674 30.0988L46.2206 31.873L50.5438 31.2722V33.5924C48.5983 33.8816 46.6774 34.2882 44.9904 34.6492C42.6834 35.1425 40.8714 35.5699 38.6732 35.5699C38.6723 35.5699 38.6723 35.5699 38.6714 35.5699C33.8718 35.5701 30.9317 33.4985 28.2558 33.4985ZM61.9295 19.5956V8.21673C62.9013 8.5481 63.803 9.39045 64.5651 10.6171H63.0676V12.4088H65.4699C65.7001 12.9665 65.9084 13.564 66.0899 14.1983H64.1845V15.99H66.5126C66.7297 17.1268 66.8716 18.3371 66.9165 19.5956H61.9295ZM70.3561 12.1573H69.2592V13.949H71.7192C72.7646 15.6128 73.4287 17.5339 73.578 19.5956H68.7211C68.7109 19.2799 68.6976 18.9666 68.6768 18.6573H71.1822V16.8656H68.4922C68.0382 13.5727 66.981 10.7774 65.535 8.88386C67.3942 9.59246 69.0421 10.721 70.3561 12.1573ZM48.4685 19.5956C48.5044 19.1007 48.5792 18.6172 48.6721 18.1399H51.3474V16.3482H49.1629C50.3911 12.924 53.0908 10.1876 56.5113 8.88386C55.8435 9.75837 55.2599 10.8255 54.7781 12.0457H52.3616V13.8374H54.1727C53.6868 15.5664 53.3926 17.5144 53.3252 19.5955L48.4685 19.5956ZM56.5766 12.4089H58.8772V10.6172H57.4813C58.2436 9.39054 59.1452 8.54819 60.117 8.21682V16.3483H57.5858V18.14H60.117V19.5957H55.13C55.2268 16.884 55.7607 14.3859 56.5766 12.4089ZM60.5205 36.4485C61.2993 37.0563 61.993 37.5335 62.626 37.914V39.1998H62.1728V40.9915H62.626V44.1037H62.1728V45.8954H62.626V49.0072H62.1728V50.7988H62.626V54.0812H45.4161V50.7988H45.8692V49.0072H45.4161V45.8954H45.8692V44.1037H45.4161V40.9915H45.8692V39.1998H45.4161V36.3915C48.4603 35.7401 51.9038 35.0058 54.9937 35.0058C57.4699 35.0059 59.2772 35.4778 60.5205 36.4485ZM38.6732 37.3618C40.4821 37.3618 41.8747 37.1236 43.6036 36.7718V55.8729H64.4385V38.8167C65.5494 39.2449 66.4789 39.3604 67.4218 39.4268C73.1169 39.8271 77.1737 41.3895 79.4774 44.0709C82.6307 47.7396 82.1395 53.0432 81.7811 56.9162C81.5517 59.3889 81.5268 59.6462 81.7209 63.1293C81.8821 65.9952 82 67.767 81.5669 69.6713C81.1873 71.3471 80.7944 73.0802 82.7741 77.1538C83.9449 79.5627 84.1423 80.6015 84.1671 80.9746C83.0387 81.57 81.9457 81.8713 80.9146 81.8713C79.5464 81.8713 78.5835 81.346 78.0861 80.989C80.2668 74.0665 75.9692 68.691 73.0053 66.5651C71.7829 65.688 70.1885 65.8182 68.8493 67.6613C67.128 70.0286 66.3014 74.3626 67.1147 76.7534C67.8813 79.0067 67.0222 77.9693 66.9828 80.1744C66.9643 81.2737 66.8474 81.3367 66.4421 81.3848C65.0301 81.5523 61.3779 81.8056 60.3745 81.0217C60.4373 80.9128 60.625 80.6683 61.1586 80.3022C63.8853 78.4331 64.1702 73.8192 64.0977 71.234C64.0641 70.0889 63.6322 68.9805 62.8817 68.113C60.0941 64.8943 55.8713 61.6674 52.3005 64.0123C50.634 65.1058 50.7571 68.1432 51.0473 71.4266C51.088 71.8863 51.1244 72.2869 51.1367 72.5896C51.234 74.8861 53.6448 76.0566 55.844 76.1721C56.6034 76.2124 57.191 76.5883 57.0919 77.3395C56.6769 80.4255 55.5432 82.1992 53.9811 82.2092L52.1961 78.4693C52.1054 78.4213 48.2104 78.3395 47.6197 74.9241C47.0037 71.3543 45.1275 65.1469 45.0479 64.8845L44.6124 63.4471L43.5389 64.5083C39.9343 68.0711 38.2518 77.287 39.6271 81.5654C39.9482 82.5562 38.5055 82.5837 37.4491 82.5837C36.1827 82.5837 35.2092 82.3479 34.5809 82.106C36.2403 80.9692 35.9491 79.6053 35.7659 78.7488C35.2101 76.1094 36.0252 72.8109 36.8129 69.6207C37.7917 65.6621 38.7147 61.923 36.9358 59.5448C35.5175 57.6468 35.5216 56.1411 34.1551 55.3713C32.3383 54.3509 31.5425 56.4496 28.0849 55.5052C27.3662 55.3088 26.7786 55.2134 26.2892 55.2134C24.5068 55.2134 24.2342 56.4784 24.1573 57.1166C23.9705 57.0225 23.7608 56.9027 23.5794 56.7828L22.289 55.9329L22.1722 57.4604C21.8049 62.2616 20.6491 75.2704 19.7225 77.7737C18.4459 81.225 19.2992 82.3658 18.7199 82.3518C18.4012 82.1956 18.1499 80.6638 18.3022 79.1599C18.3642 78.8091 19.7996 70.4723 18.7765 62.7348C17.7393 54.8796 18.5624 45.4677 20.4085 44.085C25.0754 40.5868 24.7038 35.2898 28.2559 35.2898C30.4462 35.2898 33.6009 37.3614 38.6716 37.3614C38.6723 37.3618 38.6723 37.3618 38.6732 37.3618Z"/>
</mask>
<path d="M28.2558 33.4985C23.3681 33.4985 23.5261 39.5012 19.3127 42.6576C16.3347 44.8888 16.0444 55.8864 16.9799 62.9669C17.9658 70.4284 16.5312 78.7709 16.5072 78.9152C16.4497 79.469 16.2187 82.2929 17.34 83.5212C18.1065 84.362 19.422 84.3513 20.2083 83.4915C21.3242 82.2731 20.1745 81.7681 21.4252 78.3894C22.4429 75.6389 23.5298 63.1397 23.8723 58.9475C24.1183 59.0346 24.3661 59.0927 24.5891 59.0927C25.4818 59.0927 25.8494 58.3657 25.9431 57.4498C25.9582 57.3111 25.9821 57.0792 25.9892 57.0447C26.0798 57.0478 26.2892 56.8731 27.6017 57.2323C29.5625 57.7685 30.8777 57.5973 32.3763 57.0775C32.7185 56.9589 33.0608 56.8169 33.2578 56.9283C33.8813 57.2801 34.0818 58.7428 35.4792 60.6105C36.7528 62.3134 35.927 65.6566 35.0527 69.1957C34.2163 72.5796 33.3525 76.0781 33.9915 79.1138L34.011 79.2056C34.1721 79.9597 34.2695 80.4151 32.7499 81.0551C32.2587 81.262 31.9985 81.7405 32.1029 82.2457C32.3454 83.4201 34.7438 84.3755 37.4492 84.3755C41.1262 84.3755 41.8441 82.5431 41.3548 81.0226C40.3043 77.7538 41.4185 70.7468 43.7992 67.0598C44.4099 69.1826 45.4259 72.8648 45.8339 75.226C46.1808 77.2372 47.9314 79.5525 50.9785 80.1154L52.7254 83.7775C52.8162 83.7707 57.7951 85.7004 58.8887 77.5754C59.1093 75.9282 57.9416 74.4883 55.9398 74.3831C54.8114 74.3236 53.0007 73.7641 52.9476 72.5149C52.9343 72.1917 52.8963 71.7629 52.8529 71.2704C52.7281 69.8567 52.3953 66.1001 53.3034 65.5048C55.9125 63.7898 59.4584 66.9144 61.5047 69.2784C61.9941 69.8432 62.2641 70.5373 62.2853 71.2848C62.3358 73.0739 62.2268 77.3898 60.1259 78.8299C58.8302 79.7187 58.3187 80.6308 58.6063 81.5397C59.3095 83.7605 64.3118 83.4423 66.6581 83.1634C68.7494 82.9153 68.7804 81.0844 68.7954 80.2043C68.8211 78.7666 69.759 78.9075 68.8335 76.1826C68.2095 74.3507 68.9609 70.578 70.3212 68.7072C70.7864 68.0673 71.3177 67.568 71.9417 68.0156C79.6774 73.5667 75.9719 81.3926 75.995 81.4824C77.3994 82.9649 78.9973 83.6629 80.9148 83.6629C82.2139 83.6629 85.4127 82.9365 85.8673 81.7602C86.0868 81.1902 86.1744 80.0127 84.4079 76.3777C82.4323 72.3126 83.1621 71.2546 83.522 69.1678C83.7893 67.628 83.6574 65.2905 83.5309 63.0299C83.3406 59.6238 83.3652 59.4769 83.5857 57.0792C83.9742 52.8901 84.5052 47.1529 80.859 42.9108C78.2279 39.8489 73.7497 38.0756 67.5511 37.6395C65.9475 37.5267 64.5781 37.2674 61.9189 35.2463V21.3873C66.6805 21.3873 70.7064 21.3873 75.4224 21.3873V20.4914C75.4224 12.6429 68.9627 6.25781 61.0233 6.25781C53.0838 6.25781 46.6241 12.6428 46.6241 20.4914V21.3873C51.3347 21.3873 55.3543 21.3873 60.1064 21.3873V34.1346C58.7341 33.5212 57.0492 33.2142 54.9937 33.2142C54.1364 33.2142 53.2503 33.2698 52.3563 33.3606V31.0203L54.8795 30.6697L57.4124 23.5507L55.7026 22.9567L53.5361 29.0468L45.9674 30.0988L46.2206 31.873L50.5438 31.2722V33.5924C48.5983 33.8816 46.6774 34.2882 44.9904 34.6492C42.6834 35.1425 40.8714 35.5699 38.6732 35.5699C38.6723 35.5699 38.6723 35.5699 38.6714 35.5699C33.8718 35.5701 30.9317 33.4985 28.2558 33.4985ZM61.9295 19.5956V8.21673C62.9013 8.5481 63.803 9.39045 64.5651 10.6171H63.0676V12.4088H65.4699C65.7001 12.9665 65.9084 13.564 66.0899 14.1983H64.1845V15.99H66.5126C66.7297 17.1268 66.8716 18.3371 66.9165 19.5956H61.9295ZM70.3561 12.1573H69.2592V13.949H71.7192C72.7646 15.6128 73.4287 17.5339 73.578 19.5956H68.7211C68.7109 19.2799 68.6976 18.9666 68.6768 18.6573H71.1822V16.8656H68.4922C68.0382 13.5727 66.981 10.7774 65.535 8.88386C67.3942 9.59246 69.0421 10.721 70.3561 12.1573ZM48.4685 19.5956C48.5044 19.1007 48.5792 18.6172 48.6721 18.1399H51.3474V16.3482H49.1629C50.3911 12.924 53.0908 10.1876 56.5113 8.88386C55.8435 9.75837 55.2599 10.8255 54.7781 12.0457H52.3616V13.8374H54.1727C53.6868 15.5664 53.3926 17.5144 53.3252 19.5955L48.4685 19.5956ZM56.5766 12.4089H58.8772V10.6172H57.4813C58.2436 9.39054 59.1452 8.54819 60.117 8.21682V16.3483H57.5858V18.14H60.117V19.5957H55.13C55.2268 16.884 55.7607 14.3859 56.5766 12.4089ZM60.5205 36.4485C61.2993 37.0563 61.993 37.5335 62.626 37.914V39.1998H62.1728V40.9915H62.626V44.1037H62.1728V45.8954H62.626V49.0072H62.1728V50.7988H62.626V54.0812H45.4161V50.7988H45.8692V49.0072H45.4161V45.8954H45.8692V44.1037H45.4161V40.9915H45.8692V39.1998H45.4161V36.3915C48.4603 35.7401 51.9038 35.0058 54.9937 35.0058C57.4699 35.0059 59.2772 35.4778 60.5205 36.4485ZM38.6732 37.3618C40.4821 37.3618 41.8747 37.1236 43.6036 36.7718V55.8729H64.4385V38.8167C65.5494 39.2449 66.4789 39.3604 67.4218 39.4268C73.1169 39.8271 77.1737 41.3895 79.4774 44.0709C82.6307 47.7396 82.1395 53.0432 81.7811 56.9162C81.5517 59.3889 81.5268 59.6462 81.7209 63.1293C81.8821 65.9952 82 67.767 81.5669 69.6713C81.1873 71.3471 80.7944 73.0802 82.7741 77.1538C83.9449 79.5627 84.1423 80.6015 84.1671 80.9746C83.0387 81.57 81.9457 81.8713 80.9146 81.8713C79.5464 81.8713 78.5835 81.346 78.0861 80.989C80.2668 74.0665 75.9692 68.691 73.0053 66.5651C71.7829 65.688 70.1885 65.8182 68.8493 67.6613C67.128 70.0286 66.3014 74.3626 67.1147 76.7534C67.8813 79.0067 67.0222 77.9693 66.9828 80.1744C66.9643 81.2737 66.8474 81.3367 66.4421 81.3848C65.0301 81.5523 61.3779 81.8056 60.3745 81.0217C60.4373 80.9128 60.625 80.6683 61.1586 80.3022C63.8853 78.4331 64.1702 73.8192 64.0977 71.234C64.0641 70.0889 63.6322 68.9805 62.8817 68.113C60.0941 64.8943 55.8713 61.6674 52.3005 64.0123C50.634 65.1058 50.7571 68.1432 51.0473 71.4266C51.088 71.8863 51.1244 72.2869 51.1367 72.5896C51.234 74.8861 53.6448 76.0566 55.844 76.1721C56.6034 76.2124 57.191 76.5883 57.0919 77.3395C56.6769 80.4255 55.5432 82.1992 53.9811 82.2092L52.1961 78.4693C52.1054 78.4213 48.2104 78.3395 47.6197 74.9241C47.0037 71.3543 45.1275 65.1469 45.0479 64.8845L44.6124 63.4471L43.5389 64.5083C39.9343 68.0711 38.2518 77.287 39.6271 81.5654C39.9482 82.5562 38.5055 82.5837 37.4491 82.5837C36.1827 82.5837 35.2092 82.3479 34.5809 82.106C36.2403 80.9692 35.9491 79.6053 35.7659 78.7488C35.2101 76.1094 36.0252 72.8109 36.8129 69.6207C37.7917 65.6621 38.7147 61.923 36.9358 59.5448C35.5175 57.6468 35.5216 56.1411 34.1551 55.3713C32.3383 54.3509 31.5425 56.4496 28.0849 55.5052C27.3662 55.3088 26.7786 55.2134 26.2892 55.2134C24.5068 55.2134 24.2342 56.4784 24.1573 57.1166C23.9705 57.0225 23.7608 56.9027 23.5794 56.7828L22.289 55.9329L22.1722 57.4604C21.8049 62.2616 20.6491 75.2704 19.7225 77.7737C18.4459 81.225 19.2992 82.3658 18.7199 82.3518C18.4012 82.1956 18.1499 80.6638 18.3022 79.1599C18.3642 78.8091 19.7996 70.4723 18.7765 62.7348C17.7393 54.8796 18.5624 45.4677 20.4085 44.085C25.0754 40.5868 24.7038 35.2898 28.2559 35.2898C30.4462 35.2898 33.6009 37.3614 38.6716 37.3614C38.6723 37.3618 38.6723 37.3618 38.6732 37.3618Z" fill="#6B7280" stroke="#6B7280" stroke-width="1.80515" mask="url(#path-2-inside-1_268_12096)"/>
<path d="M34.9358 41.5117C37.1325 41.7945 38.9709 44.1152 38.9709 47.1035C38.9709 50.2944 36.8748 52.7245 34.4846 52.7246C32.2075 52.7246 30.1995 50.5207 30.0129 47.5547H30.9241C31.0018 48.645 31.3578 49.6387 31.9104 50.3955C32.538 51.255 33.4431 51.8359 34.4846 51.8359C35.5257 51.8359 36.4305 51.255 37.0579 50.3955C37.6857 49.5355 38.0608 48.3696 38.0608 47.1035C38.0608 45.8379 37.6855 44.6725 37.0579 43.8125C36.523 43.0798 35.7864 42.5497 34.9358 42.4092V41.5117ZM24.3323 44.2588C25.4765 44.2588 26.3988 45.1788 26.3987 46.2979C26.3986 47.4164 25.4764 48.3359 24.3323 48.3359C23.188 48.3358 22.2649 47.4161 22.2649 46.2979C22.2649 45.1791 23.1881 44.2589 24.3323 44.2588ZM24.3323 45.1484C23.6986 45.1485 23.175 45.6588 23.175 46.2979C23.1751 46.9366 23.6989 47.4462 24.3323 47.4463C24.9651 47.4463 25.4895 46.9364 25.4895 46.2979C25.4895 45.6591 24.9655 45.1484 24.3323 45.1484Z" fill="#6B7280" stroke="#6B7280" stroke-width="0.902575"/>
<path d="M59.8044 39.6514V40.541H57.8298V39.6514H59.8044Z" fill="#6B7280" stroke="#6B7280" stroke-width="0.902575"/>
<path d="M50.2163 39.6514V40.541H48.2417V39.6514H50.2163Z" fill="#6B7280" stroke="#6B7280" stroke-width="0.902575"/>
<path d="M55.0081 39.6514V40.541H53.0334V39.6514H55.0081Z" fill="#6B7280" stroke="#6B7280" stroke-width="0.902575"/>
<path d="M50.2163 44.5547V45.4443H48.2417V44.5547H50.2163Z" fill="#6B7280" stroke="#6B7280" stroke-width="0.902575"/>
<path d="M59.8044 44.5547V45.4443H57.8298V44.5547H59.8044Z" fill="#6B7280" stroke="#6B7280" stroke-width="0.902575"/>
<path d="M55.0081 44.5547V45.4443H53.0334V44.5547H55.0081Z" fill="#6B7280" stroke="#6B7280" stroke-width="0.902575"/>
<path d="M50.2163 49.458V50.3477H48.2417V49.458H50.2163Z" fill="#6B7280" stroke="#6B7280" stroke-width="0.902575"/>
<path d="M55.0081 49.458V50.3477H53.0334V49.458H55.0081Z" fill="#6B7280" stroke="#6B7280" stroke-width="0.902575"/>
<path d="M59.8044 49.458V50.3477H57.8298V49.458H59.8044Z" fill="#6B7280" stroke="#6B7280" stroke-width="0.902575"/>
<path d="M76.1388 45.2773C78.1546 47.3012 80.1974 50.7623 79.3556 56.2354L78.4611 56.0781C79.0881 51.9726 78.1127 48.5418 75.5177 45.9268L76.1388 45.2773ZM71.173 42.1006C72.0464 42.414 73.2147 42.997 74.298 43.7451L73.756 44.459C72.7542 43.7712 71.672 43.2318 70.92 42.9561L71.173 42.1006Z" fill="#6B7280" stroke="#6B7280" stroke-width="0.902575"/>
</svg>
