<svg width="18" height="18" viewBox="0 0 18 18" fill="none" xmlns="http://www.w3.org/2000/svg">
<path d="M10.2125 1.63125L11.6791 4.56458C11.8791 4.97292 12.4125 5.36458 12.8625 5.43958L15.5208 5.88125C17.2208 6.16458 17.6208 7.39792 16.3958 8.61458L14.3291 10.6812C13.9791 11.0312 13.7875 11.7062 13.8958 12.1896L14.4875 14.7479C14.9541 16.7729 13.8791 17.5562 12.0875 16.4979L9.5958 15.0229C9.1458 14.7563 8.40413 14.7563 7.9458 15.0229L5.45413 16.4979C3.6708 17.5562 2.58746 16.7646 3.05413 14.7479L3.6458 12.1896C3.75413 11.7062 3.56246 11.0312 3.21246 10.6812L1.1458 8.61458C-0.0708685 7.39792 0.320798 6.16458 2.0208 5.88125L4.67913 5.43958C5.1208 5.36458 5.65413 4.97292 5.85413 4.56458L7.3208 1.63125C8.1208 0.0395834 9.4208 0.0395834 10.2125 1.63125Z" fill="url(#paint0_linear_685_21999)" stroke="#FCBA42" stroke-width="0.875" stroke-linecap="round" stroke-linejoin="round"/>
<defs>
<linearGradient id="paint0_linear_685_21999" x1="14.7256" y1="7.5226" x2="1.62896" y2="7.5226" gradientUnits="userSpaceOnUse">
<stop stop-color="white"/>
<stop offset="0.457634" stop-color="white"/>
<stop offset="0.457634" stop-color="#FCBA42"/>
<stop offset="1" stop-color="#FCBA42"/>
</linearGradient>
</defs>
</svg>
