<svg width="100" height="99" viewBox="0 0 100 99" fill="none" xmlns="http://www.w3.org/2000/svg">
<mask id="mask0_256_23628" style="mask-type:luminance" maskUnits="userSpaceOnUse" x="0" y="0" width="100" height="99">
<path d="M0 38.7058L62.1308 0L99.529 60.0318L37.3981 98.7376L0 38.7058Z" fill="white"/>
</mask>
<g mask="url(#mask0_256_23628)">
<mask id="mask1_256_23628" style="mask-type:luminance" maskUnits="userSpaceOnUse" x="10" y="2" width="84" height="96">
<path d="M10.4861 21.6228L68.9653 2.65091L93.5373 78.3919L35.0581 97.3638L10.4861 21.6228Z" fill="white"/>
</mask>
<g mask="url(#mask1_256_23628)">
<mask id="mask2_256_23628" style="mask-type:luminance" maskUnits="userSpaceOnUse" x="10" y="2" width="84" height="96">
<path d="M10.4861 21.6228L68.9653 2.65091L93.5373 78.3919L35.0581 97.3638L10.4861 21.6228Z" fill="white"/>
</mask>
<g mask="url(#mask2_256_23628)">
<path d="M79.7738 56.273C79.9497 55.3349 80.1012 54.3869 80.2111 53.4306C80.2691 52.9939 80.3023 52.543 80.3425 52.1105C80.3813 51.6174 80.3796 51.1177 80.3594 50.625C80.3336 50.1744 80.301 49.7053 80.2389 49.266C80.1713 48.7481 80.0674 48.2415 79.9618 47.7359C79.9265 47.6282 79.9097 47.5135 79.8804 47.4225C79.8339 47.2784 79.8058 47.1275 79.7583 46.9818C79.6937 46.783 79.6344 46.6038 79.5714 46.404C79.4649 46.138 79.3583 45.872 79.2528 45.6077C79.1981 45.5052 79.1645 45.3964 79.1097 45.2939C79.0566 45.1904 79.0089 45.1064 78.9568 45.0045C78.7184 44.5817 78.4507 44.1885 78.1477 43.8082C77.8873 43.4924 77.5873 43.1899 77.2959 42.9048C77.1165 42.7229 76.9079 42.5706 76.6992 42.4184C76.5126 42.2797 76.3336 42.1567 76.153 42.0348L75.909 41.8954L76.0725 41.723C76.2182 41.5549 76.3454 41.3937 76.491 41.2255C76.5942 41.1135 76.6726 40.9872 76.7705 40.8557C76.8684 40.7241 76.9102 40.6708 76.9831 40.5867C77.106 40.4077 77.2263 40.228 77.3297 40.0543C77.4583 39.8331 77.6052 39.605 77.7084 39.3723C77.8132 39.1386 77.9222 38.9227 78.027 38.6889C78.1318 38.4552 78.2363 38.1625 78.3146 37.9156C78.4082 37.6457 78.4834 37.3826 78.5575 37.1179C78.595 36.9261 78.6563 36.7468 78.6744 36.5602C78.7511 36.1755 78.7831 35.7846 78.8107 35.3759C78.834 34.8287 78.7898 34.2644 78.6984 33.7341C78.6463 33.391 78.5352 33.0482 78.423 32.7038C78.3248 32.3962 78.1886 32.1009 78.0399 31.8293C77.7494 31.3046 77.3924 30.8192 76.9691 30.3772C76.7311 30.134 76.4983 29.9102 76.2363 29.7161C75.9953 29.5339 75.757 29.3523 75.5051 29.1928C75.2542 29.0349 74.9671 28.8883 74.6968 28.7357C74.6029 28.6873 74.5063 28.6382 74.4097 28.5891C74.3148 28.539 74.2192 28.4915 74.1295 28.4609C73.9363 28.3627 73.7333 28.2889 73.547 28.2092C73.0612 28.0065 72.5822 27.8223 72.1033 27.6381C71.6955 27.4915 71.2769 27.3676 70.8556 27.2431C70.4353 27.1202 69.9551 26.996 69.5055 26.9028L69.1402 26.8208C69.6936 26.0026 70.1687 25.1284 70.5305 24.211C71.0587 22.9396 71.3637 21.6023 71.4661 20.2502C71.4812 19.8652 71.4963 19.4802 71.4929 19.1022C71.4942 18.8009 71.4727 18.4888 71.4404 18.1994C71.3998 17.9515 71.384 17.7178 71.3434 17.4699C71.281 16.9716 71.1646 16.4887 71.0492 16.0075C70.8974 15.4168 70.691 14.8443 70.419 14.3127C69.8806 13.2072 69.1247 12.235 68.1875 11.4394C67.6857 11.0031 67.1411 10.6185 66.592 10.2778C66.1664 10.0148 65.7108 9.78415 65.2503 9.59302L64.4404 9.25761C64.2304 9.16535 64.0037 9.079 63.7811 9.01048C63.5597 8.9436 63.3918 8.85693 63.1931 8.80094L62.3904 8.54295C62.1679 8.47443 61.9286 8.41182 61.6946 8.36868C61.4596 8.32389 61.2506 8.23327 61.035 8.18319C60.5844 8.08833 60.1153 8.00041 59.6602 7.94936C59.3467 7.91019 59.0467 7.84894 58.7402 7.82821L58.0249 7.77986C57.5924 7.7397 57.1359 7.74866 56.6962 7.75171C56.3956 7.74779 56.0835 7.76924 55.7697 7.79172C55.596 7.80888 55.4391 7.82012 55.2644 7.83563L54.4944 7.92605C54.2245 7.9531 53.9403 8.00491 53.6572 8.05835C53.47 8.09761 53.2795 8.12067 53.0738 8.16686L52.1905 8.21411C51.9848 8.2603 51.7666 8.33022 51.5636 8.37703C51.3579 8.42322 51.1229 8.49906 50.9004 8.55116C50.4423 8.68177 49.9848 8.80971 49.5385 8.97392C49.3203 9.04385 49.1031 9.11541 48.9043 9.18004L48.139 9.46789C47.9277 9.55626 47.7165 9.64463 47.4868 9.73993C47.2587 9.83422 47.0642 9.91667 46.8599 10.0235C46.4485 10.2365 46.0135 10.437 45.6091 10.6684C44.7765 11.1188 43.9357 11.6107 43.1398 12.1088C42.3422 12.608 41.5796 13.1559 40.8288 13.7374C40.4788 14.0124 40.1446 14.2798 39.8005 14.5715C39.6242 14.7087 39.497 14.8699 39.3767 15.0495C39.1868 15.3294 39.1114 15.6541 39.1398 15.9847C39.223 16.7978 39.9334 17.3864 40.7525 17.32C41.1609 17.2887 41.5175 17.0938 41.7736 16.7704C41.912 16.6455 42.0758 16.5321 42.2142 16.4071C42.3836 16.2515 42.5777 16.1101 42.7709 15.967C43.0128 15.789 43.2563 15.61 43.4788 15.4372C43.7029 15.2635 43.9995 15.0673 44.2777 14.8781C44.7549 14.5626 45.2569 14.2612 45.7394 13.9652C45.9747 13.8277 46.2111 13.6919 46.4464 13.5544C46.7358 13.4014 47.0198 13.229 47.3109 13.075L47.8231 12.8083C47.9434 12.7492 48.0762 12.6665 48.2034 12.6259L49.0053 12.2652L49.7891 11.9704C50.0004 11.8821 50.2245 11.829 50.4358 11.7406C50.8863 11.5942 51.3395 11.4484 51.7792 11.3248L52.5881 11.1031C52.8105 11.051 53.0136 11.0042 53.2377 10.9511C53.478 10.8947 53.7189 10.8357 53.9836 10.7892L54.7071 10.6753L55.2055 10.613C55.3623 10.6017 55.5133 10.5737 55.6702 10.5625L56.573 10.5099L57.0701 10.5076C57.2102 10.5022 57.3486 10.4979 57.4913 10.5115L58.4531 10.5792L59.2709 10.6935C59.499 10.7198 59.7331 10.7629 59.9486 10.813C60.1642 10.8631 60.3923 10.8894 60.6148 10.958L61.2691 11.124L61.8038 11.2917C61.9594 11.3404 62.109 11.3724 62.2521 11.4449L63.0976 11.7718L63.7503 12.0594C64.099 12.2064 64.4326 12.3764 64.7688 12.5471C65.1104 12.7372 65.4215 12.9554 65.738 13.193C66.0001 13.3871 66.2523 13.6056 66.4833 13.8304C66.6696 14.0308 66.8532 14.2305 67.0201 14.4361C67.1631 14.6293 67.2825 14.8099 67.4071 15.0099C67.5317 15.21 67.655 15.4701 67.7493 15.6981C67.8628 15.9826 67.961 16.2901 68.055 16.5798C68.1424 16.9101 68.2113 17.2473 68.2829 17.5851C68.2984 17.7598 68.3393 17.946 68.3549 18.1207C68.407 18.4638 68.4354 18.7944 68.4443 19.1303C68.4404 19.5516 68.4322 19.955 68.3852 20.369C68.3407 20.7837 68.2712 21.1252 68.1777 21.5158C68.0535 21.996 67.9055 22.4638 67.7154 22.9259C67.527 23.3871 67.3121 23.835 67.0729 24.2732C66.8784 24.5969 66.683 24.9189 66.4649 25.2301L66.0819 25.7737L65.784 26.1505C65.1343 26.0613 64.4932 25.9895 63.8379 25.9424C63.3448 25.9036 62.8398 25.8859 62.3468 25.8471C62.1424 25.8333 61.945 25.8379 61.7465 25.8409C61.5474 25.8465 61.3615 25.8258 61.1624 25.8314C60.6627 25.8332 60.1462 25.8408 59.6535 25.861C59.1607 25.8811 58.6554 25.925 58.1669 25.963C57.7163 25.9888 57.2585 26.0578 56.8079 26.0835C56.5963 26.1129 56.3626 26.1287 56.1332 26.1624C55.9595 26.1796 55.7664 26.202 55.5969 26.237C55.1045 26.3161 54.6045 26.3795 54.0936 26.4656C53.5801 26.5511 53.1292 26.6385 52.648 26.7539C52.4423 26.8001 52.2139 26.8354 52.0151 26.9L51.2383 27.0926C50.7376 27.2133 50.2491 27.3719 49.7564 27.5127C49.3157 27.6348 48.8872 27.7947 48.4535 27.9352C48.2715 27.9939 48.0965 28.071 47.9162 28.1287C47.699 28.2003 47.4824 28.2692 47.289 28.3533C46.8496 28.5359 46.4034 28.7002 45.9683 28.9006L45.1539 29.2851C44.9789 29.3622 44.7913 29.4631 44.6222 29.5571C44.3994 29.6708 44.1756 29.7829 43.9588 29.9135L43.2383 30.3464C43.0702 30.442 42.9123 30.5722 42.7317 30.6916C42.4704 30.8749 42.21 31.0598 41.9513 31.2438C41.4071 31.6601 40.9148 32.1194 40.4616 32.627C40.2606 32.8707 40.0605 33.1159 39.8842 33.3737C39.7079 33.6315 39.5418 33.9239 39.4147 34.2057C39.3224 34.4157 39.2486 34.6187 39.1985 34.8343C39.1481 34.9909 39.1172 35.1422 39.0921 35.3103C39.0477 35.6043 39.0395 35.8871 39.0735 36.1755C39.1127 36.4834 39.2126 36.7899 39.3419 37.0668C39.4131 37.225 39.5143 37.3509 39.6208 37.4963C39.7161 37.6053 39.813 37.7134 39.9208 37.7988C40.0566 37.9145 40.2135 38.0239 40.3872 38.1273C40.5118 38.2068 40.6559 38.2809 40.8115 38.3297C41.069 38.447 41.3564 38.532 41.621 38.6061C41.9095 38.6927 42.2035 38.7372 42.5087 38.8179C42.6179 38.8433 42.72 38.8502 42.8222 38.8571L43.199 38.9137C43.4703 38.9473 43.7353 38.9598 44.0164 38.969C44.2392 38.9759 44.4631 38.9844 44.6789 38.9728C44.8942 38.9639 45.118 38.9725 45.3533 38.9556C45.6292 38.9454 45.8867 38.942 46.1583 38.914L46.8919 38.8348C47.3383 38.7912 47.7707 38.7107 48.2117 38.6477C48.5001 38.6137 48.7589 38.5504 49.042 38.4969C49.2098 38.463 49.4029 38.4405 49.5891 38.3996C50.0595 38.3069 50.5282 38.2152 50.9873 38.0863C51.4448 37.9583 51.9682 37.8485 52.4636 37.7083C52.9564 37.5675 53.4686 37.4214 53.957 37.2628C54.3924 37.1213 54.8387 36.9571 55.2725 36.8167C55.7062 36.6762 56.105 36.4869 56.515 36.3339C56.9728 36.1443 57.4079 35.9439 57.8667 35.7559C58.077 35.6659 58.2823 35.5607 58.4936 35.4724C58.6686 35.3952 58.8252 35.325 58.9949 35.2284C59.4046 35.0164 59.8218 34.8202 60.2262 34.5888C60.6794 34.3224 61.1326 34.056 61.5805 33.7701C61.7974 33.6396 62.0153 33.5107 62.2268 33.3606L62.8131 32.9499C62.9763 32.8391 63.1207 32.731 63.2845 32.6176L63.9697 32.0769C64.349 31.7723 64.7082 31.4574 65.0817 31.136C65.2385 31.0042 65.3852 30.8377 65.5615 30.7005C65.7362 30.5644 65.9128 30.3656 66.0931 30.1872C66.3966 29.8889 66.6817 29.5975 66.9615 29.2866L67.4895 29.3742C68.2272 29.4951 68.9663 29.6766 69.7043 29.8565C70.0587 29.9612 70.413 30.066 70.7657 30.1717C71.0779 30.2709 71.396 30.3869 71.7141 30.5029C72.0849 30.6633 72.4505 30.8044 72.8035 30.9691C73.1269 31.1046 73.4269 31.2864 73.7377 31.4456C73.9184 31.5675 74.0921 31.671 74.2516 31.7992C74.4128 31.9264 74.581 32.0721 74.7491 32.2177C74.9145 32.3628 74.9973 32.4956 75.1232 32.6357C75.206 32.7685 75.3013 32.8776 75.384 33.0104C75.4684 33.1422 75.5031 33.2526 75.5621 33.3729C75.6211 33.4932 75.6676 33.6373 75.7151 33.783C75.7616 33.927 75.7965 34.0964 75.8321 34.2632C75.8671 34.4326 75.8701 34.631 75.8757 34.8301C75.8678 35.0513 75.8593 35.2751 75.8524 35.4979C75.8205 35.6476 75.8139 35.8087 75.783 35.96L75.6953 36.3675C75.6574 36.5003 75.6212 36.6321 75.5823 36.7634C75.5461 36.8952 75.4663 37.0814 75.4176 37.237L75.4733 37.0999C75.4176 37.237 75.3672 37.3936 75.2947 37.5367L75.0683 38.01L74.8854 38.3083C74.8179 38.4119 74.7579 38.5312 74.6725 38.639C74.5512 38.817 74.4099 39.0029 74.2701 39.1879C74.1304 39.3728 74.0282 39.4865 73.9136 39.624L73.5372 40.0064C73.3668 40.1603 73.2211 40.3285 73.0465 40.4646C72.7775 40.3727 72.4891 40.286 72.2076 40.2178C71.7273 40.0936 71.2345 39.9932 70.7417 39.8927C70.5261 39.8427 70.3033 39.8358 70.0693 39.7926C69.9196 39.7607 69.7628 39.7719 69.6131 39.74C69.4925 39.74 69.385 39.7136 69.2644 39.7136C68.7772 39.6916 68.29 39.6696 67.7972 39.6898C67.3635 39.7096 66.9307 39.7311 66.487 39.7753C65.986 39.8371 65.5045 39.8935 65.0104 39.9737C64.5595 40.0611 64.0839 40.1343 63.6389 40.2385C63.1923 40.3437 62.7289 40.4549 62.2714 40.5828C61.8122 40.7118 61.3547 40.8397 60.9151 40.9634C60.5107 41.0742 60.0953 41.2078 59.6794 41.3439C59.1968 41.5194 58.7084 41.678 58.2381 41.8913C58.0084 41.9866 57.7793 42.0793 57.5733 42.1871L56.9576 42.5069C56.7522 42.6121 56.5532 42.7383 56.3479 42.8435C56.1125 42.981 55.8832 43.1353 55.6653 43.2642C55.4342 43.4195 55.2118 43.5922 54.9877 43.766C54.7517 43.9608 54.5335 44.1514 54.3223 44.3603C53.904 44.7962 53.5742 45.3226 53.4009 45.8995C53.1976 46.5633 53.3071 47.269 53.6747 47.8481C54.0249 48.3151 54.515 48.6562 55.0922 48.7678C55.6384 48.9102 56.1912 49.0119 56.7426 49.0531C57.2173 49.0988 57.6992 49.1014 58.1735 49.0881C58.6495 49.0739 59.1185 49.0412 59.5816 48.9917C60.0453 48.9395 60.5447 48.8788 61.0319 48.7802C61.4659 48.6987 61.9053 48.6367 62.3335 48.5384C62.8038 48.4457 63.2672 48.3346 63.7307 48.2234C64.2119 48.108 64.7004 47.9494 65.1763 47.8145C66.0145 47.5632 66.8161 47.2642 67.6308 46.9387C68.0896 46.7507 68.529 46.5681 68.9894 46.3791C69.4472 46.1895 69.8444 46.0013 70.2616 45.8051C70.7092 45.5809 71.1542 45.3561 71.5906 45.0956C71.988 44.8457 72.3756 44.6202 72.7504 44.3594C73.0275 44.1685 73.2879 43.9836 73.5608 43.7749C73.7048 43.849 73.842 43.9047 73.9682 43.9831C74.0632 44.0332 74.1657 44.0991 74.2606 44.1492C74.4106 44.2402 74.5606 44.3311 74.6921 44.429L74.9542 44.6231C75.0679 44.7253 75.1995 44.8231 75.3185 44.9448L75.5749 45.1811C75.7009 45.3211 75.8258 45.4595 75.9518 45.5996C76.0767 45.738 76.1776 45.9256 76.29 46.0877C76.3668 46.2037 76.4328 46.3425 76.4971 46.4822C76.5561 46.6025 76.622 46.7413 76.681 46.8616C76.7401 46.9819 76.7918 47.1454 76.8383 47.2894L76.9927 47.7601C77.0448 47.9826 77.1147 48.2008 77.1668 48.4232C77.2189 48.6457 77.2654 48.9104 77.3119 49.1751C77.3568 49.4407 77.3796 49.6929 77.4007 49.946C77.4235 50.1982 77.4321 50.4751 77.4549 50.7272C77.4635 51.1247 77.4553 51.5282 77.4208 51.9185C77.3888 52.3094 77.349 52.6802 77.3154 53.0721C77.2503 53.6727 77.1683 54.2792 77.0609 54.8742C76.9848 55.3768 76.8784 55.8528 76.7602 56.3499C76.6613 56.721 76.544 57.0991 76.4268 57.4772C76.3095 57.8553 76.181 58.1971 76.0508 58.5399C75.9421 58.8148 75.8416 59.0664 75.7144 59.3482C75.5539 59.719 75.3777 60.0975 75.2172 60.4683C74.9127 61.1269 74.5634 61.7793 74.2167 62.4323C73.7346 63.288 73.2341 64.1507 72.6986 64.9646C72.3885 65.4241 72.0836 65.9031 71.7735 66.3626C71.4993 66.752 71.2199 67.1218 70.9457 67.5111C70.7331 67.7801 70.5275 68.0676 70.3139 68.3349C70.072 68.6336 69.8344 68.95 69.5741 69.2556L69.1252 69.7811C69.0204 69.8942 68.9252 70.0264 68.8204 70.1395L68.0024 71.0041C67.6748 71.3516 67.3242 71.6839 66.9897 72.0129C66.7589 72.2272 66.5352 72.4599 66.2877 72.6801L65.6206 73.2755C65.1853 73.6583 64.7311 74.0436 64.272 74.4139C63.9263 74.7066 63.5627 75.0037 63.1949 75.2829L63.0984 75.3544L63.037 75.4131C63.0061 75.4438 62.9573 75.4787 62.928 75.5084L62.9095 75.5153C62.8607 75.5503 62.813 75.5868 62.7642 75.6218C62.7164 75.6584 62.6676 75.6933 62.6366 75.724L62.6073 75.7537C62.5585 75.7886 62.5107 75.8252 62.4787 75.8542C62.431 75.8908 62.4016 75.9205 62.3529 75.9554C62.3041 75.9904 62.2731 76.021 62.2253 76.0576L62.196 76.0873L62.1162 76.1529C61.3232 76.7289 60.5497 77.2995 59.7271 77.8461L59.0037 78.3219C58.8204 78.4406 58.6582 78.553 58.4776 78.6723L57.2143 79.4616C56.7249 79.7392 56.2348 80.0195 55.7453 80.2971C55.1366 80.6353 54.5252 80.9729 53.9095 81.2928C53.6564 81.4345 53.3974 81.5595 53.1426 81.7023L52.0388 82.2397C51.5375 82.4837 51.0256 82.6887 50.519 82.9133L49.6555 83.2737L49.2151 83.4547L49.1604 83.4728C49.1057 83.491 49.0527 83.5081 49.0164 83.5193C48.9432 83.5444 48.8944 83.5794 48.8229 83.6034C48.7867 83.6146 48.7504 83.6258 48.7194 83.6565C48.6664 83.6736 48.6301 83.6848 48.5823 83.7214C48.5276 83.7396 48.4719 83.7561 48.4241 83.7927L48.2676 83.8629L48.1598 83.8982L48.0873 83.9206L48.0688 83.9275C48.0141 83.9457 47.961 83.9628 47.9122 83.9977L47.876 84.009L47.8213 84.0271C47.7498 84.0512 47.6657 84.099 47.5916 84.1224C47.169 84.2991 46.7659 84.4706 46.3365 84.6289C45.8256 84.8356 45.3062 85.0249 44.8111 85.224C43.9001 85.5594 42.996 85.9132 42.1087 86.2611C41.2762 86.5908 40.4268 86.9265 39.5883 87.2394C38.8777 87.5091 38.1417 87.7673 37.4235 88.0212C37.7589 87.3319 38.0776 86.6486 38.42 85.9778C38.8599 85.1164 39.2945 84.2356 39.7038 83.3433C40.0405 82.5941 39.7164 81.7193 38.9741 81.401C38.2485 81.0768 37.4048 81.3702 37.0568 82.0832C36.6459 82.9766 36.2254 83.8326 35.8023 84.6881C35.3509 85.5748 34.9232 86.474 34.4944 87.3716C34.2806 87.8212 34.0668 88.2709 33.8713 88.7136C33.7791 88.9235 33.669 89.1378 33.5767 89.3478C33.5095 89.5103 33.4298 89.6965 33.3616 89.8574C33.3194 89.9724 33.2832 90.1043 33.2443 90.2355C33.2025 90.4095 33.2055 90.608 33.2404 90.7774C33.1334 91.3107 33.3101 91.8539 33.7093 92.2243C33.8834 92.3868 34.1171 92.4916 34.3327 92.5417C34.484 92.5726 34.6267 92.5861 34.7652 92.5818C34.8548 92.6125 34.9392 92.6236 35.0299 92.6559C35.2039 92.6977 35.3957 92.7353 35.5886 92.7745C35.929 92.8424 36.29 92.9066 36.6446 92.9497C37.1905 93.033 37.738 93.1153 38.2727 93.1624C38.7473 93.2082 39.215 93.2355 39.6897 93.2812C40.2734 93.3523 40.843 93.4482 41.4077 93.5835L41.6902 93.6534L41.4973 93.6142L41.8626 93.6962L41.8458 93.7021L41.9117 93.7203L41.9704 93.7816L41.9466 93.769C42.536 93.9186 43.1174 94.048 43.7108 94.1564C44.516 94.2944 45.284 93.7659 45.422 92.9607C45.561 92.1571 45.0325 91.3891 44.2289 91.2501C43.6998 91.1609 43.1843 91.0495 42.6608 90.9181L42.5781 90.9059L42.6186 90.9125L42.3134 90.8318C41.9887 90.7564 41.6581 90.6641 41.3403 90.6071C40.807 90.5001 40.2664 90.4362 39.7318 90.3891C40.2143 90.2137 40.7153 90.0314 41.1909 89.8375C42.0782 89.4896 42.9823 89.1358 43.8696 88.788C44.6474 88.4764 45.4549 88.1941 46.2387 87.8993C46.6672 87.7394 47.0772 87.5864 47.4997 87.4097L48.3811 87.045L48.7186 86.9144C48.7548 86.9032 48.8079 86.8861 48.8458 86.8738C48.9173 86.8498 48.9661 86.8148 49.0376 86.7908C49.0739 86.7795 49.1101 86.7683 49.1411 86.7377C49.1942 86.7205 49.2305 86.7093 49.2782 86.6727C49.3339 86.6562 49.3887 86.6381 49.4364 86.6015L49.5442 86.5662L49.737 86.4848C49.7917 86.4666 49.8464 86.4485 49.8758 86.4188L49.912 86.4076L49.9667 86.3895C50.0393 86.3671 50.1233 86.3193 50.1975 86.2958L50.2327 86.283C50.8833 86.0119 51.5297 85.7231 52.1803 85.4521C52.4951 85.3106 52.8326 85.18 53.1404 85.0201L54.3536 84.4464C54.7703 84.2529 55.1747 84.0215 55.586 83.8085C55.9963 83.5938 56.3529 83.399 56.7389 83.1745C57.5368 82.7343 58.3272 82.2783 59.1133 81.8046C59.4939 81.5606 59.8815 81.3351 60.2605 81.0921C60.6412 80.8481 61.0344 80.5804 61.4276 80.3127C61.8208 80.045 62.214 79.7773 62.6065 79.5123C62.9997 79.2446 63.3497 78.9696 63.7202 78.691L63.7386 78.6841L63.8352 78.6125L63.8955 78.5522C63.9258 78.5242 63.9611 78.5114 63.9931 78.4823L64.0224 78.4527C64.0702 78.4161 64.1021 78.387 64.1499 78.3505L64.1667 78.3445L64.2643 78.2746L64.3121 78.2381L64.343 78.2074C64.3918 78.1724 64.4212 78.1428 64.47 78.1078C64.5009 78.0772 64.5487 78.0406 64.579 78.0126C64.61 77.9819 64.6578 77.9453 64.7066 77.9103L64.7234 77.9044L64.8199 77.8329C64.8519 77.8039 64.8997 77.7673 64.929 77.7376C65.311 77.4337 65.6746 77.1366 66.0549 76.8337C66.4369 76.5297 66.7641 76.2439 67.1267 75.9452C67.4902 75.6481 67.7937 75.3498 68.1335 75.0402C68.4707 74.73 68.7742 74.4317 69.1071 74.1037C69.4399 73.7757 69.7266 73.4832 70.0285 73.1859C70.6959 72.5289 71.3082 71.831 71.8915 71.1011C73.0813 69.6566 74.2053 68.1323 75.2118 66.547C75.4915 66.1155 75.7469 65.6742 76.0099 65.2486C76.2419 64.8537 76.4723 64.4598 76.7043 64.0649C77.1923 63.2259 77.589 62.3573 78.0052 61.4835C78.1716 61.1294 78.3294 60.7579 78.4721 60.3914C78.5808 60.1165 78.6981 59.859 78.7901 59.59L79.0428 58.8886C79.1911 58.4798 79.3014 58.0833 79.4075 57.6689C79.4701 57.4296 79.5495 57.1844 79.5884 56.9326C79.6862 56.6804 79.7422 56.4816 79.7738 56.273ZM63.1214 28.9724L62.2738 29.6871L61.6331 30.175C61.4274 30.3418 61.1921 30.4793 60.9865 30.6461C60.7798 30.8113 60.5629 30.9418 60.3444 31.0734L59.5343 31.5963L59.1299 31.8277C58.9608 31.9217 58.8165 32.0298 58.6404 32.1053L58.008 32.4311C57.8682 32.4954 57.7364 32.5798 57.5966 32.6441C57.2288 32.8027 56.8715 33.0002 56.5037 33.1588L55.5383 33.5712L54.5865 33.9616C54.3389 34.0612 54.0855 34.144 53.831 34.2251C53.5792 34.3069 53.3132 34.4134 53.043 34.5021L52.0954 34.7897C51.7651 34.877 51.4197 34.9875 51.0835 35.0581L49.9332 35.3309C49.7469 35.3717 49.5597 35.411 49.3735 35.4519C49.1856 35.4938 48.9984 35.5331 48.8316 35.5687L47.7709 35.7514C47.3326 35.8151 46.8916 35.8781 46.4479 35.9223C46.2115 35.9376 45.9831 35.9729 45.7495 35.9887L45.0203 36.0241L44.2995 36.0179C44.1788 36.0179 44.0345 36.0054 43.9086 35.986L43.602 35.9653L43.0561 35.882C42.9302 35.8625 42.7799 35.8332 42.6471 35.7953L42.5406 35.7706C42.3656 35.7271 42.1863 35.6659 42.0059 35.6029C42.0126 35.5624 42.0366 35.5133 42.0432 35.4727C42.0923 35.3761 42.1229 35.2865 42.172 35.1899C42.2445 35.0468 42.3424 34.9153 42.4403 34.7838C42.579 34.5972 42.7425 34.4248 42.9076 34.2514C43.1492 34.0144 43.3983 33.7931 43.6696 33.5855C44.0206 33.3122 44.3834 33.0725 44.7582 32.8117C44.891 32.7289 45.0238 32.6462 45.1751 32.5565L45.508 32.3491L45.9839 32.0936C46.1167 32.0109 46.2749 31.9396 46.4131 31.8763L47.2822 31.4738C47.6012 31.3501 47.9344 31.2017 48.2535 31.0781C48.6088 30.9432 48.9826 30.8014 49.3448 30.685C49.706 30.567 50.0992 30.4199 50.5027 30.3074L51.5271 30.0153C52.0808 29.8774 52.6352 29.7369 53.1771 29.6202C53.4358 29.5568 53.7005 29.5103 53.9609 29.446L54.9421 29.2672L54.8452 29.2798C55.2246 29.2164 55.6234 29.1478 56.0071 29.1023C56.4886 29.0458 56.9896 28.9841 57.4712 28.9277C57.9511 28.8722 58.458 28.8273 58.9439 28.7887C59.3707 28.7504 59.7867 28.7348 60.202 28.7219L60.1588 28.7147C60.4963 28.7048 60.8322 28.6958 61.1582 28.7113C61.6022 28.726 62.0403 28.724 62.4685 28.7463C62.7081 28.7473 62.9546 28.7667 63.1827 28.7931L63.1214 28.9724ZM56.2505 46.7943C56.2565 46.8111 56.2439 46.8348 56.2551 46.8711L56.2505 46.7943ZM68.813 43.3774C68.4336 43.5614 68.0473 43.7269 67.6617 43.8897C67.0289 44.1565 66.4119 44.4157 65.7668 44.6445C65.4125 44.781 65.0319 44.9044 64.6696 45.0208C64.3631 45.1207 64.0549 45.2216 63.7289 45.3268C63.1567 45.4716 62.5856 45.618 62.0074 45.7459C61.4283 45.8723 60.839 45.964 60.2734 46.0682C59.8703 46.119 59.484 46.1639 59.0808 46.2147C58.714 46.2544 58.3587 46.2686 58.0043 46.2844C57.7637 46.2818 57.5241 46.2809 57.3003 46.2724C57.1196 46.2711 56.9515 46.246 56.7893 46.2378L56.9163 46.1383C57.2076 45.9226 57.5026 45.7275 57.8061 45.5498C58.107 45.3714 58.3786 45.2227 58.6749 45.0882C58.9703 44.952 59.2293 44.8271 59.5256 44.6925C59.9666 44.5089 60.406 44.3262 60.8651 44.1973C61.3226 44.0693 61.7873 43.8982 62.2448 43.7702C62.9254 43.5875 63.607 43.4064 64.3107 43.2389C64.9436 43.0928 65.5692 42.9899 66.2142 42.8817C66.5211 42.8408 66.8457 42.7956 67.1589 42.7757C67.4727 42.7533 67.7426 42.7262 68.0202 42.7149C68.296 42.7047 68.5604 42.7198 68.8248 42.735C69.0897 42.7474 69.3963 42.7682 69.6844 42.7958L69.9184 42.839C69.5084 42.992 69.1755 43.1993 68.813 43.3774ZM33.8596 89.356L34.0102 89.269C33.9251 89.3151 33.8596 89.356 33.7923 89.3979L33.8596 89.356ZM41.9941 93.7941L41.9536 93.7875L41.9704 93.7816L41.9941 93.7941ZM41.7479 93.7131C41.7732 93.7246 41.8148 93.7328 41.8385 93.7453L41.857 93.7384L41.8332 93.7259L41.7479 93.7131Z" fill="#1E429F"/>
</g>
</g>
</g>
</svg>
