<svg width="87" height="86" viewBox="0 0 87 86" fill="none" xmlns="http://www.w3.org/2000/svg">
<rect width="87" height="86" rx="16" fill="#EBF5FF"/>
<mask id="path-2-inside-1_268_12526" fill="white">
<path d="M58.8587 47.3136L65.3052 40.8308L67.2077 43.3148L70.018 40.8206L73.0117 42.9099L74.451 40.9162L84.6259 55.5237L86.0923 54.5246L70.8921 32.7009L65.7937 37.8279L45.2016 9.28906L44.4683 10.2271C44.4683 10.2271 41.4571 14.0754 37.5196 19.1473C32.7614 25.2723 26.1388 33.816 22.2913 38.9211L16.1058 32.7L0.904785 54.5246L2.37119 55.5236L12.0063 41.6906L13.7801 44.0077L16.8312 41.547L19.578 43.6698L21.6575 40.797L28.1331 47.3083V51.504H25.9429V45.888H19.904V51.504H18.2871L15.3331 62.3521C8.8207 57.7717 1.591 60.9276 1.2691 61.0716L2.00669 62.6743C2.07883 62.6432 9.00177 59.6356 14.8299 64.2005L9.49739 83.7835H1.63631V85.5444C32.0693 85.5444 55.0285 85.5444 85.3574 85.5444V83.7835H77.4966L72.7961 66.5358C78.4446 62.6541 84.7189 65.3534 84.9921 65.4755L85.728 63.872C85.4266 63.7362 78.6482 60.7817 72.3054 64.7352L68.6995 51.5041H67.0879V45.8881H61.049V51.5041H58.8588L58.8587 47.3136ZM54.6012 51.5041V47.6489H57.0774V51.5041H54.6012ZM73.3765 39.3736L72.5908 40.4612L69.8841 38.5714L67.4582 40.7252L66.567 39.562L70.6486 35.4573L73.3765 39.3736ZM45.1441 12.2424L50.3588 19.4698L47.7847 22.0069L44.7292 18.2634L41.8259 21.7782L39.4256 19.5843C41.9762 16.3008 44.0877 13.5944 45.1441 12.2424ZM38.3363 20.9868L42.0068 24.342L44.7205 21.0576L47.6404 24.6343L51.407 20.9224L64.5251 39.1035L57.7786 45.888H52.8199V51.504H50.6298V45.888H48.5015V43.558H54.1367L57.7489 37.6152V34.8974H29.7909V37.6143L33.3952 43.558H38.4903V45.888H36.362V51.504H34.1719V45.888H29.2184L23.5549 40.1919C27.2138 35.3315 33.5639 27.1321 38.3363 20.9868ZM38.1433 51.5041V47.6489H40.6196V51.5041H38.1433ZM40.2717 45.8881V43.5581H46.7202V45.8881H44.5909V51.5041H42.4008V45.8881H40.2717ZM34.4041 41.7972L31.5721 37.1278V36.6584H55.9676V37.127L53.1295 41.7973L34.4041 41.7972ZM46.3723 51.5041V47.6489H48.8485V51.5041H46.3723ZM19.2109 41.1507L16.8068 39.2945L14.0862 41.4886L13.071 40.1623L16.3476 35.4581L20.3895 39.5223L19.2109 41.1507ZM29.9144 47.6489H32.3906V51.5041H29.9144V47.6489ZM21.6855 47.6489H24.1617V51.5041H21.6855V47.6489ZM61.3703 83.7837L56.5834 64.6382H30.4049L25.6292 83.7837H18.0237L24.5965 58.146H62.3978L68.9707 83.7837H61.3703ZM27.4633 83.7776L30.5589 71.3804L31.7966 66.3989H55.1918L59.532 83.7776H27.4633ZM62.8301 47.6489H65.3064V51.5041H62.8301V47.6489ZM67.0877 53.2685V53.2651H67.3355L68.1858 56.3852H65.1663V58.146H68.6657L69.1369 59.8751H66.9346V61.6359H69.6168L75.6524 83.7838H70.8086L63.7842 56.3853H23.2101L16.1858 83.7838H11.3421L17.3733 61.6359H19.8232V59.8751H17.8527L18.3235 58.146H21.0357V56.3852H18.803L19.6527 53.2651C22.7189 53.2653 70.1168 53.2697 67.0877 53.2685Z"/>
</mask>
<path d="M58.8587 47.3136L65.3052 40.8308L67.2077 43.3148L70.018 40.8206L73.0117 42.9099L74.451 40.9162L84.6259 55.5237L86.0923 54.5246L70.8921 32.7009L65.7937 37.8279L45.2016 9.28906L44.4683 10.2271C44.4683 10.2271 41.4571 14.0754 37.5196 19.1473C32.7614 25.2723 26.1388 33.816 22.2913 38.9211L16.1058 32.7L0.904785 54.5246L2.37119 55.5236L12.0063 41.6906L13.7801 44.0077L16.8312 41.547L19.578 43.6698L21.6575 40.797L28.1331 47.3083V51.504H25.9429V45.888H19.904V51.504H18.2871L15.3331 62.3521C8.8207 57.7717 1.591 60.9276 1.2691 61.0716L2.00669 62.6743C2.07883 62.6432 9.00177 59.6356 14.8299 64.2005L9.49739 83.7835H1.63631V85.5444C32.0693 85.5444 55.0285 85.5444 85.3574 85.5444V83.7835H77.4966L72.7961 66.5358C78.4446 62.6541 84.7189 65.3534 84.9921 65.4755L85.728 63.872C85.4266 63.7362 78.6482 60.7817 72.3054 64.7352L68.6995 51.5041H67.0879V45.8881H61.049V51.5041H58.8588L58.8587 47.3136ZM54.6012 51.5041V47.6489H57.0774V51.5041H54.6012ZM73.3765 39.3736L72.5908 40.4612L69.8841 38.5714L67.4582 40.7252L66.567 39.562L70.6486 35.4573L73.3765 39.3736ZM45.1441 12.2424L50.3588 19.4698L47.7847 22.0069L44.7292 18.2634L41.8259 21.7782L39.4256 19.5843C41.9762 16.3008 44.0877 13.5944 45.1441 12.2424ZM38.3363 20.9868L42.0068 24.342L44.7205 21.0576L47.6404 24.6343L51.407 20.9224L64.5251 39.1035L57.7786 45.888H52.8199V51.504H50.6298V45.888H48.5015V43.558H54.1367L57.7489 37.6152V34.8974H29.7909V37.6143L33.3952 43.558H38.4903V45.888H36.362V51.504H34.1719V45.888H29.2184L23.5549 40.1919C27.2138 35.3315 33.5639 27.1321 38.3363 20.9868ZM38.1433 51.5041V47.6489H40.6196V51.5041H38.1433ZM40.2717 45.8881V43.5581H46.7202V45.8881H44.5909V51.5041H42.4008V45.8881H40.2717ZM34.4041 41.7972L31.5721 37.1278V36.6584H55.9676V37.127L53.1295 41.7973L34.4041 41.7972ZM46.3723 51.5041V47.6489H48.8485V51.5041H46.3723ZM19.2109 41.1507L16.8068 39.2945L14.0862 41.4886L13.071 40.1623L16.3476 35.4581L20.3895 39.5223L19.2109 41.1507ZM29.9144 47.6489H32.3906V51.5041H29.9144V47.6489ZM21.6855 47.6489H24.1617V51.5041H21.6855V47.6489ZM61.3703 83.7837L56.5834 64.6382H30.4049L25.6292 83.7837H18.0237L24.5965 58.146H62.3978L68.9707 83.7837H61.3703ZM27.4633 83.7776L30.5589 71.3804L31.7966 66.3989H55.1918L59.532 83.7776H27.4633ZM62.8301 47.6489H65.3064V51.5041H62.8301V47.6489ZM67.0877 53.2685V53.2651H67.3355L68.1858 56.3852H65.1663V58.146H68.6657L69.1369 59.8751H66.9346V61.6359H69.6168L75.6524 83.7838H70.8086L63.7842 56.3853H23.2101L16.1858 83.7838H11.3421L17.3733 61.6359H19.8232V59.8751H17.8527L18.3235 58.146H21.0357V56.3852H18.803L19.6527 53.2651C22.7189 53.2653 70.1168 53.2697 67.0877 53.2685Z" fill="#6B7280" stroke="#6B7280" stroke-width="1.80515" mask="url(#path-2-inside-1_268_12526)"/>
<path d="M50.2451 61.0938V61.9521H36.7549V61.0938H50.2451Z" fill="#6B7280" stroke="#6B7280" stroke-width="0.902575"/>
</svg>
