<svg width="87" height="86" viewBox="0 0 87 86" fill="none" xmlns="http://www.w3.org/2000/svg">
<rect width="87" height="86" rx="16" fill="#EBF5FF"/>
<path d="M7.29541 29.041V30.6885H6.40479V29.041H7.29541Z" fill="#6B7280" stroke="#6B7280" stroke-width="0.902575"/>
<path d="M11.3735 29.041V30.6885H10.4829V29.041H11.3735Z" fill="#6B7280" stroke="#6B7280" stroke-width="0.902575"/>
<path d="M15.4517 29.0176V30.665H14.561V29.0176H15.4517Z" fill="#6B7280" stroke="#6B7280" stroke-width="0.902575"/>
<path d="M19.5298 29.0176V30.665H18.6392V29.0176H19.5298Z" fill="#6B7280" stroke="#6B7280" stroke-width="0.902575"/>
<mask id="path-6-inside-1_268_12123" fill="white">
<path d="M76.1522 9.43321V4.01172H74.3588V9.43267C64.3979 31.85 67.8334 24.1182 67.0902 25.7909H64.4249V33.9156H67.9921V44.7377H66.1106V39.8651H58.947V44.7377H56.8563V39.8651H49.6927V44.7377H47.6107V39.8651H44.9214V30.9224H53.001L50.6191 27.4079L53.3377 24.4293H43.128V25.3157V30.9224V39.8652H40.4383V44.7378H38.3564V39.8652H31.1844V44.7378H29.102V39.8652H21.9384V44.7378H20.1095V33.9157H23.8036V25.791H21.1379L14.5379 10.8649L13.8614 9.43321V4.01172H12.0681V9.43267L11.3815 10.8795L4.79984 25.7909H2.1341V33.9156H5.57468V83.24H0.90686V85.0129C28.9367 85.0129 57.0784 85.0129 85.1976 85.0129V83.24H82.5267V33.9157H86.0944V25.791H83.4282C82.6842 24.1183 86.1233 31.8499 76.1522 9.43321ZM49.641 29.1495H44.9214V26.202H49.3042L48.351 27.2469L49.641 29.1495ZM75.2542 11.7288L81.4711 25.791H69.0468L75.2542 11.7288ZM80.7333 69.5225H69.7854V58.7809H80.7333V69.5225ZM80.7333 57.0081H69.7854V46.2656H80.7333V57.0081ZM23.7319 46.5106V41.638H27.3086V46.5106H32.9779V41.638H36.563V46.5106H42.2318V41.638H45.8173V46.5106H51.486V41.638H55.0628V46.5106H60.7404V41.638H64.3172V46.5106H67.9395V48.7188H20.1095V46.5106H23.7319ZM7.36815 46.2656H18.3161V57.0081H7.36815V46.2656ZM7.36815 58.7809H18.3161V69.5225H7.36815V58.7809ZM12.9634 11.7288L19.1808 25.791H6.75652L12.9634 11.7288ZM3.92757 32.1429V27.5637H4.01729H21.9217H22.0102V32.1429H20.1095H5.57477H3.92757ZM18.3161 33.9157V44.4928H7.36815V33.9157H18.3161ZM7.36815 83.24V71.2952H18.3161V83.24H7.36815ZM49.3463 83.1483H38.1931V70.9585C38.1931 67.9193 40.695 65.4462 43.7699 65.4462C46.8449 65.4462 49.3464 67.9193 49.3464 70.9585L49.3463 83.1483ZM55.2568 83.1483H51.1397V70.9585C51.1397 66.9411 47.8335 63.6734 43.7699 63.6734C39.7058 63.6734 36.3996 66.9411 36.3996 70.9585V83.1483H32.2825V66.2287C32.2825 59.9676 37.4355 54.8734 43.7699 54.8734C50.1037 54.8734 55.2568 59.9676 55.2568 66.2287V83.1483ZM57.0502 83.24V77.752H59.7833V75.9791H57.0502V66.2288C57.0502 65.3422 56.9584 64.4765 56.7881 63.6388H59.7833V61.866H56.2805C54.4554 56.7683 49.544 53.1006 43.7699 53.1006C37.9959 53.1006 33.0842 56.7682 31.259 61.866H27.7565V63.6388H30.7513C30.581 64.4765 30.4891 65.3422 30.4891 66.2288V75.9792H27.7565V77.7521H30.4891V83.2401H20.1095V80.7038H23.4052V78.931H20.1095V55.862H23.4052V54.0892H20.1095V50.4916H67.9395V54.0892H64.022V55.862H67.9395V78.4125H64.022V80.1853H67.9395V83.2401L57.0502 83.24ZM69.7854 83.24V71.2952H80.7333V83.24H69.7854ZM80.7333 44.4928H69.7854V33.9157H80.7333V44.4928ZM84.3009 27.5637V32.1429H82.5267H67.992H66.2183V27.5637H66.3077H84.2121H84.3009Z"/>
</mask>
<path d="M76.1522 9.43321V4.01172H74.3588V9.43267C64.3979 31.85 67.8334 24.1182 67.0902 25.7909H64.4249V33.9156H67.9921V44.7377H66.1106V39.8651H58.947V44.7377H56.8563V39.8651H49.6927V44.7377H47.6107V39.8651H44.9214V30.9224H53.001L50.6191 27.4079L53.3377 24.4293H43.128V25.3157V30.9224V39.8652H40.4383V44.7378H38.3564V39.8652H31.1844V44.7378H29.102V39.8652H21.9384V44.7378H20.1095V33.9157H23.8036V25.791H21.1379L14.5379 10.8649L13.8614 9.43321V4.01172H12.0681V9.43267L11.3815 10.8795L4.79984 25.7909H2.1341V33.9156H5.57468V83.24H0.90686V85.0129C28.9367 85.0129 57.0784 85.0129 85.1976 85.0129V83.24H82.5267V33.9157H86.0944V25.791H83.4282C82.6842 24.1183 86.1233 31.8499 76.1522 9.43321ZM49.641 29.1495H44.9214V26.202H49.3042L48.351 27.2469L49.641 29.1495ZM75.2542 11.7288L81.4711 25.791H69.0468L75.2542 11.7288ZM80.7333 69.5225H69.7854V58.7809H80.7333V69.5225ZM80.7333 57.0081H69.7854V46.2656H80.7333V57.0081ZM23.7319 46.5106V41.638H27.3086V46.5106H32.9779V41.638H36.563V46.5106H42.2318V41.638H45.8173V46.5106H51.486V41.638H55.0628V46.5106H60.7404V41.638H64.3172V46.5106H67.9395V48.7188H20.1095V46.5106H23.7319ZM7.36815 46.2656H18.3161V57.0081H7.36815V46.2656ZM7.36815 58.7809H18.3161V69.5225H7.36815V58.7809ZM12.9634 11.7288L19.1808 25.791H6.75652L12.9634 11.7288ZM3.92757 32.1429V27.5637H4.01729H21.9217H22.0102V32.1429H20.1095H5.57477H3.92757ZM18.3161 33.9157V44.4928H7.36815V33.9157H18.3161ZM7.36815 83.24V71.2952H18.3161V83.24H7.36815ZM49.3463 83.1483H38.1931V70.9585C38.1931 67.9193 40.695 65.4462 43.7699 65.4462C46.8449 65.4462 49.3464 67.9193 49.3464 70.9585L49.3463 83.1483ZM55.2568 83.1483H51.1397V70.9585C51.1397 66.9411 47.8335 63.6734 43.7699 63.6734C39.7058 63.6734 36.3996 66.9411 36.3996 70.9585V83.1483H32.2825V66.2287C32.2825 59.9676 37.4355 54.8734 43.7699 54.8734C50.1037 54.8734 55.2568 59.9676 55.2568 66.2287V83.1483ZM57.0502 83.24V77.752H59.7833V75.9791H57.0502V66.2288C57.0502 65.3422 56.9584 64.4765 56.7881 63.6388H59.7833V61.866H56.2805C54.4554 56.7683 49.544 53.1006 43.7699 53.1006C37.9959 53.1006 33.0842 56.7682 31.259 61.866H27.7565V63.6388H30.7513C30.581 64.4765 30.4891 65.3422 30.4891 66.2288V75.9792H27.7565V77.7521H30.4891V83.2401H20.1095V80.7038H23.4052V78.931H20.1095V55.862H23.4052V54.0892H20.1095V50.4916H67.9395V54.0892H64.022V55.862H67.9395V78.4125H64.022V80.1853H67.9395V83.2401L57.0502 83.24ZM69.7854 83.24V71.2952H80.7333V83.24H69.7854ZM80.7333 44.4928H69.7854V33.9157H80.7333V44.4928ZM84.3009 27.5637V32.1429H82.5267H67.992H66.2183V27.5637H66.3077H84.2121H84.3009Z" fill="#6B7280" stroke="#6B7280" stroke-width="1.80515" mask="url(#path-6-inside-1_268_12123)"/>
<path d="M69.5884 29.041V30.6885H68.6978V29.041H69.5884Z" fill="#6B7280" stroke="#6B7280" stroke-width="0.902575"/>
<path d="M73.6648 29.041V30.6885H72.7742V29.041H73.6648Z" fill="#6B7280" stroke="#6B7280" stroke-width="0.902575"/>
<path d="M77.7429 29.0176V30.665H76.8523V29.0176H77.7429Z" fill="#6B7280" stroke="#6B7280" stroke-width="0.902575"/>
<path d="M81.821 29.0176V30.665H80.9304V29.0176H81.821Z" fill="#6B7280" stroke="#6B7280" stroke-width="0.902575"/>
<path d="M26.5834 70.8291V71.6992H23.85V74.7197H22.9594V70.8291H26.5834Z" fill="#6B7280" stroke="#6B7280" stroke-width="0.902575"/>
<path d="M65.6548 70.8291V74.7197H64.7642V71.6992H62.0308V70.8291H65.6548Z" fill="#6B7280" stroke="#6B7280" stroke-width="0.902575"/>
<path d="M28.2018 55.1816V57.8662H27.3112V55.1816H28.2018Z" fill="#6B7280" stroke="#6B7280" stroke-width="0.902575"/>
<path d="M33.8386 52.2432V53.1133H31.5769V52.2432H33.8386Z" fill="#6B7280" stroke="#6B7280" stroke-width="0.902575"/>
<path d="M60.5082 55.1816V57.8662H59.6176V55.1816H60.5082Z" fill="#6B7280" stroke="#6B7280" stroke-width="0.902575"/>
<path d="M55.4481 52.2432V53.1133H53.1864V52.2432H55.4481Z" fill="#6B7280" stroke="#6B7280" stroke-width="0.902575"/>
<path d="M23.4865 61.5068V64.6309H22.5958V61.5068H23.4865Z" fill="#6B7280" stroke="#6B7280" stroke-width="0.902575"/>
<path d="M65.6572 61.5068V64.6309H64.7666V61.5068H65.6572Z" fill="#6B7280" stroke="#6B7280" stroke-width="0.902575"/>
<path d="M49.0459 59.8418V60.7119H38.4941V59.8418H49.0459Z" fill="#6B7280" stroke="#6B7280" stroke-width="0.902575"/>
<path d="M53.7562 67.9111V69.498H52.8656V67.9111H53.7562Z" fill="#6B7280" stroke="#6B7280" stroke-width="0.902575"/>
<path d="M53.7562 73.2852V74.8721H52.8656V73.2852H53.7562Z" fill="#6B7280" stroke="#6B7280" stroke-width="0.902575"/>
<path d="M53.7562 78.6572V80.2432H52.8656V78.6572H53.7562Z" fill="#6B7280" stroke="#6B7280" stroke-width="0.902575"/>
<path d="M34.7356 67.9111V69.498H33.845V67.9111H34.7356Z" fill="#6B7280" stroke="#6B7280" stroke-width="0.902575"/>
<path d="M34.7356 73.2852V74.8721H33.845V73.2852H34.7356Z" fill="#6B7280" stroke="#6B7280" stroke-width="0.902575"/>
<path d="M34.7356 78.6572V80.2432H33.845V78.6572H34.7356Z" fill="#6B7280" stroke="#6B7280" stroke-width="0.902575"/>
<path d="M11.2185 37.5029V40.7393H10.3279V37.5029H11.2185Z" fill="#6B7280" stroke="#6B7280" stroke-width="0.902575"/>
<path d="M15.3561 37.5029V40.7393H14.4655V37.5029H15.3561Z" fill="#6B7280" stroke="#6B7280" stroke-width="0.902575"/>
<path d="M11.2185 50.0176V53.2539H10.3279V50.0176H11.2185Z" fill="#6B7280" stroke="#6B7280" stroke-width="0.902575"/>
<path d="M15.3561 50.0176V53.2539H14.4655V50.0176H15.3561Z" fill="#6B7280" stroke="#6B7280" stroke-width="0.902575"/>
<path d="M11.2185 62.5322V65.7686H10.3279V62.5322H11.2185Z" fill="#6B7280" stroke="#6B7280" stroke-width="0.902575"/>
<path d="M15.3561 62.5322V65.7686H14.4655V62.5322H15.3561Z" fill="#6B7280" stroke="#6B7280" stroke-width="0.902575"/>
<path d="M11.2185 75.0469V78.2832H10.3279V75.0469H11.2185Z" fill="#6B7280" stroke="#6B7280" stroke-width="0.902575"/>
<path d="M15.3561 75.0469V78.2832H14.4655V75.0469H15.3561Z" fill="#6B7280" stroke="#6B7280" stroke-width="0.902575"/>
<path d="M73.6329 37.5029V40.7393H72.7423V37.5029H73.6329Z" fill="#6B7280" stroke="#6B7280" stroke-width="0.902575"/>
<path d="M77.7683 37.5029V40.7393H76.8777V37.5029H77.7683Z" fill="#6B7280" stroke="#6B7280" stroke-width="0.902575"/>
<path d="M73.6329 50.0176V53.2539H72.7423V50.0176H73.6329Z" fill="#6B7280" stroke="#6B7280" stroke-width="0.902575"/>
<path d="M77.7683 50.0176V53.2539H76.8777V50.0176H77.7683Z" fill="#6B7280" stroke="#6B7280" stroke-width="0.902575"/>
<path d="M73.6329 62.5322V65.7686H72.7423V62.5322H73.6329Z" fill="#6B7280" stroke="#6B7280" stroke-width="0.902575"/>
<path d="M77.7683 62.5322V65.7686H76.8777V62.5322H77.7683Z" fill="#6B7280" stroke="#6B7280" stroke-width="0.902575"/>
<path d="M73.6329 75.0469V78.2832H72.7423V75.0469H73.6329Z" fill="#6B7280" stroke="#6B7280" stroke-width="0.902575"/>
<path d="M77.7683 75.0469V78.2832H76.8777V75.0469H77.7683Z" fill="#6B7280" stroke="#6B7280" stroke-width="0.902575"/>
</svg>
