<svg width="20" height="24" viewBox="0 0 20 24" fill="none" xmlns="http://www.w3.org/2000/svg">
<g clip-path="url(#clip0_716_15371)">
<path d="M16.9663 1.86771C15.8777 0.605566 13.9099 0.0644531 11.3924 0.0644531H4.08619C3.8371 0.064414 3.59617 0.154788 3.40674 0.319318C3.21732 0.483849 3.09182 0.711736 3.05283 0.96199L0.0106411 20.5885C-0.0498276 20.9755 0.244782 21.326 0.630407 21.326H5.14103L6.27384 14.017L6.23869 14.2459C6.31939 13.7293 6.75377 13.3482 7.26814 13.3482H9.41158C13.6224 13.3482 16.9195 11.6085 17.8826 6.57569C17.9112 6.42684 17.936 6.28196 17.9574 6.14043C17.8358 6.07494 17.8358 6.07494 17.9574 6.14043C18.2442 4.28027 17.9554 3.01407 16.9663 1.86771Z" fill="#27346A"/>
<path d="M7.99978 5.47033C8.12306 5.41051 8.25796 5.37955 8.39455 5.37974H14.1225C14.8008 5.37974 15.4335 5.42464 16.0116 5.51929C16.1733 5.54555 16.3343 5.57687 16.4942 5.61322C16.7207 5.66409 16.9447 5.72634 17.1653 5.79974C17.4495 5.89629 17.7142 6.00874 17.9574 6.14043C18.2442 4.27955 17.9554 3.01407 16.9663 1.86771C15.877 0.605566 13.9099 0.0644531 11.3924 0.0644531H4.08556C3.57111 0.0644531 3.13345 0.445433 3.05283 0.961989L0.0106415 20.5878C-0.0498272 20.9754 0.244782 21.3254 0.629782 21.3254H5.14103L7.49127 6.1649C7.51439 6.01589 7.57276 5.87483 7.66134 5.75384C7.74992 5.63285 7.86606 5.53556 7.99978 5.47033Z" fill="#27346A"/>
<path d="M17.8825 6.57588C16.9194 11.6079 13.6224 13.3484 9.41153 13.3484H7.26747C6.7531 13.3484 6.31864 13.7295 6.23872 14.2461L4.82942 23.3339C4.77677 23.6726 5.03427 23.9795 5.37114 23.9795H9.17349C9.3913 23.9795 9.60194 23.9004 9.76753 23.7564C9.93313 23.6125 10.0428 23.4132 10.0768 23.1944L10.1139 22.9973L10.8305 18.3772L10.8767 18.1219C10.9107 17.903 11.0204 17.7037 11.186 17.5598C11.3515 17.4159 11.5622 17.3368 11.78 17.3367H12.349C16.0324 17.3367 18.9165 15.8145 19.7593 11.4122C20.1111 9.57247 19.9291 8.03647 18.9985 6.95758C18.7162 6.6308 18.3657 6.36092 17.9573 6.14062C17.9352 6.28288 17.9112 6.42704 17.8825 6.57588Z" fill="#2790C3"/>
<path d="M16.9494 5.73186C16.7992 5.68725 16.6476 5.64776 16.4949 5.61345C16.3349 5.57768 16.174 5.54656 16.0123 5.52015C15.4335 5.42486 14.8013 5.37988 14.1224 5.37988H8.39518C8.2585 5.37965 8.12355 5.41087 8.00041 5.4712C7.86652 5.53619 7.75022 5.63341 7.6616 5.75444C7.57297 5.87547 7.5147 6.01666 7.49182 6.16576L6.27448 14.0173L6.23932 14.2461C6.3194 13.7295 6.75377 13.3484 7.26822 13.3484H9.41229C13.6231 13.3484 16.9201 11.6087 17.8832 6.57591C17.9119 6.42706 17.936 6.28282 17.9581 6.14065C17.7142 6.00979 17.4502 5.89644 17.1659 5.8006C17.0941 5.7764 17.022 5.75349 16.9495 5.73186" fill="#1F264F"/>
</g>
<defs>
<clipPath id="clip0_716_15371">
<rect width="20" height="24" fill="white"/>
</clipPath>
</defs>
</svg>
