<svg width="87" height="86" viewBox="0 0 87 86" fill="none" xmlns="http://www.w3.org/2000/svg">
<rect width="87" height="86" rx="16" fill="#EBF5FF"/>
<path d="M86.5482 54.3154H72.4849V49.6924V47.9746V41.9986H60.224L58.2467 47.9746H56.5358V83.5503H52.9209C54.6391 73.1772 55.0714 62.2596 54.1834 51.1279L54.1741 50.7351L54.1442 50.707C53.7972 46.3911 53.249 42.0594 52.5137 37.8273L52.5067 37.5255L52.4451 37.4647C51.4582 31.7876 50.103 26.1306 48.438 20.6158H48.4582C47.193 16.5438 45.968 12.9061 44.2402 8.66509C43.4189 6.62976 41.5414 5.31494 39.4567 5.31494C37.2891 5.31494 35.4406 6.72453 34.6644 8.66294C32.6429 13.6297 31.8743 16.1797 30.4478 20.6159H30.4637C26.0549 35.2171 23.9738 50.646 24.3204 65.5509L24.3042 65.551V65.7666L24.3286 65.8138C24.4804 71.8452 25.0294 77.786 25.9833 83.5502H21.8186V57.5728L14.9416 50.6936H0.616868C0.600283 54.2363 0.677043 37.8597 0.454468 85.342C14.8748 85.342 79.2366 85.342 86.5482 85.342V54.3154ZM61.5383 43.7902H70.6724V47.9006H60.1784L61.5383 43.7902ZM14.185 52.4852L18.7346 57.0366H2.42937V52.4852H14.185ZM2.42937 83.5503V58.8283H20.0061V83.5503H2.42937ZM26.1284 59.275L38.6823 83.5481H35.5431L26.1291 65.3592C26.0842 63.3394 26.0832 61.3111 26.1284 59.275ZM27.0035 46.4386L46.2043 83.5481H40.7182L26.2567 55.5863C26.4046 52.5424 26.6577 49.4899 27.0035 46.4386ZM28.1132 38.5799L50.8296 82.5044L51.2911 82.2713C51.2244 82.696 51.1688 83.1252 51.0978 83.5481H48.24L27.3958 43.2626C27.6082 41.6993 27.8494 40.1385 28.1132 38.5799ZM41.6479 20.6158L50.7361 38.1934L50.7549 38.2884C51.2234 41.0058 51.6049 43.765 51.9139 46.5331L38.5093 20.6158H41.6479ZM36.4737 20.6158L52.384 51.3776L52.3974 51.5072C52.5799 53.8612 52.691 56.2 52.756 58.5268L33.153 20.6158H36.4737ZM52.8098 62.5682C52.8072 64.5171 52.7686 66.4554 52.6826 68.379L30.8042 26.0817C31.1512 24.7596 31.517 23.4437 31.9019 22.1335L52.8098 62.5682ZM52.4816 71.9248C52.2829 74.6813 51.9929 77.4057 51.6204 80.0967L28.6342 35.6505C29.0769 33.3274 29.5732 31.013 30.1301 28.7135L52.4816 71.9248ZM49.4734 31.814L43.6837 20.6158H46.5613C47.686 24.2925 48.6488 28.0409 49.4734 31.814ZM36.3478 9.32684C36.8513 8.07124 38.0376 7.10652 39.4568 7.10652C40.7955 7.10652 42.0123 7.9787 42.5579 9.33168C43.804 12.3906 44.9599 15.5781 46.0001 18.8241H32.9025C33.9206 15.6365 35.0553 12.5039 36.3478 9.32684ZM33.5073 83.5481H27.8065C27.0429 79.0016 26.5483 74.3373 26.2924 69.6081L33.5073 83.5481ZM58.3482 83.5503V49.7662H70.6724V54.3153H70.6596V83.5502L58.3482 83.5503ZM72.4849 83.5503V56.1071H84.7357V83.5503H72.4849Z" fill="#6B7280"/>
<path d="M6.19214 60.4404H4.37964V64.1635H6.19214V60.4404Z" fill="#6B7280"/>
<path d="M10.1471 60.4404H8.33459V64.1635H10.1471V60.4404Z" fill="#6B7280"/>
<path d="M14.0978 60.4404H12.2853V64.1635H14.0978V60.4404Z" fill="#6B7280"/>
<path d="M18.0524 60.4404H16.2399V64.1635H18.0524V60.4404Z" fill="#6B7280"/>
<path d="M6.19214 66.3374H4.37964V70.0605H6.19214V66.3374Z" fill="#6B7280"/>
<path d="M10.1471 66.3374H8.33459V70.0605H10.1471V66.3374Z" fill="#6B7280"/>
<path d="M14.0978 66.3374H12.2853V70.0605H14.0978V66.3374Z" fill="#6B7280"/>
<path d="M18.0524 66.3374H16.2399V70.0605H18.0524V66.3374Z" fill="#6B7280"/>
<path d="M6.19214 72.2358H4.37964V75.9589H6.19214V72.2358Z" fill="#6B7280"/>
<path d="M10.1471 72.2358H8.33459V75.9589H10.1471V72.2358Z" fill="#6B7280"/>
<path d="M14.0978 72.2358H12.2853V75.9589H14.0978V72.2358Z" fill="#6B7280"/>
<path d="M18.0524 72.2358H16.2399V75.9589H18.0524V72.2358Z" fill="#6B7280"/>
<path d="M6.19214 78.1338H4.37964V81.8569H6.19214V78.1338Z" fill="#6B7280"/>
<path d="M10.1471 78.1338H8.33459V81.8569H10.1471V78.1338Z" fill="#6B7280"/>
<path d="M14.0978 78.1338H12.2853V81.8569H14.0978V78.1338Z" fill="#6B7280"/>
<path d="M18.0524 78.1338H16.2399V81.8569H18.0524V78.1338Z" fill="#6B7280"/>
<path d="M6.19214 53.6084H4.37964V55.7817H6.19214V53.6084Z" fill="#6B7280"/>
<path d="M10.1471 53.6084H8.33459V55.7817H10.1471V53.6084Z" fill="#6B7280"/>
<path d="M14.0978 53.6084H12.2853V55.7817H14.0978V53.6084Z" fill="#6B7280"/>
<path d="M75.7751 57.2646H73.9626V60.0534H75.7751V57.2646Z" fill="#6B7280"/>
<path d="M79.5093 57.2646H77.6968V60.0534H79.5093V57.2646Z" fill="#6B7280"/>
<path d="M83.2433 57.2646H81.4308V60.0534H83.2433V57.2646Z" fill="#6B7280"/>
<path d="M75.7751 61.6719H73.9626V64.4606H75.7751V61.6719Z" fill="#6B7280"/>
<path d="M79.5093 61.6719H77.6968V64.4606H79.5093V61.6719Z" fill="#6B7280"/>
<path d="M83.2433 61.6719H81.4308V64.4606H83.2433V61.6719Z" fill="#6B7280"/>
<path d="M75.7751 66.0791H73.9626V68.8678H75.7751V66.0791Z" fill="#6B7280"/>
<path d="M79.5093 66.0791H77.6968V68.8678H79.5093V66.0791Z" fill="#6B7280"/>
<path d="M83.2433 66.0791H81.4308V68.8678H83.2433V66.0791Z" fill="#6B7280"/>
<path d="M75.7751 70.4858H73.9626V73.2746H75.7751V70.4858Z" fill="#6B7280"/>
<path d="M79.5093 70.4858H77.6968V73.2746H79.5093V70.4858Z" fill="#6B7280"/>
<path d="M83.2433 70.4858H81.4308V73.2746H83.2433V70.4858Z" fill="#6B7280"/>
<path d="M75.7751 74.8931H73.9626V77.6818H75.7751V74.8931Z" fill="#6B7280"/>
<path d="M79.5093 74.8931H77.6968V77.6818H79.5093V74.8931Z" fill="#6B7280"/>
<path d="M83.2433 74.8931H81.4308V77.6818H83.2433V74.8931Z" fill="#6B7280"/>
<path d="M75.7751 79.3013H73.9626V82.09H75.7751V79.3013Z" fill="#6B7280"/>
<path d="M79.5093 79.3013H77.6968V82.09H79.5093V79.3013Z" fill="#6B7280"/>
<path d="M83.2433 79.3013H81.4308V82.09H83.2433V79.3013Z" fill="#6B7280"/>
<path d="M61.6802 56.3179H59.8677V59.1066H61.6802V56.3179Z" fill="#6B7280"/>
<path d="M65.4142 56.3179H63.6017V59.1066H65.4142V56.3179Z" fill="#6B7280"/>
<path d="M69.1482 56.3179H67.3357V59.1066H69.1482V56.3179Z" fill="#6B7280"/>
<path d="M61.6802 51.8447H59.8677V54.6335H61.6802V51.8447Z" fill="#6B7280"/>
<path d="M65.4142 51.8447H63.6017V54.6335H65.4142V51.8447Z" fill="#6B7280"/>
<path d="M69.1482 51.8447H67.3357V54.6335H69.1482V51.8447Z" fill="#6B7280"/>
<path d="M61.6802 60.791H59.8677V63.5797H61.6802V60.791Z" fill="#6B7280"/>
<path d="M65.4142 60.791H63.6017V63.5797H65.4142V60.791Z" fill="#6B7280"/>
<path d="M69.1482 60.791H67.3357V63.5797H69.1482V60.791Z" fill="#6B7280"/>
<path d="M61.6802 65.2651H59.8677V68.0539H61.6802V65.2651Z" fill="#6B7280"/>
<path d="M65.4142 65.2651H63.6017V68.0539H65.4142V65.2651Z" fill="#6B7280"/>
<path d="M69.1482 65.2651H67.3357V68.0539H69.1482V65.2651Z" fill="#6B7280"/>
<path d="M61.6802 69.7373H59.8677V72.526H61.6802V69.7373Z" fill="#6B7280"/>
<path d="M65.4142 69.7373H63.6017V72.526H65.4142V69.7373Z" fill="#6B7280"/>
<path d="M69.1482 69.7373H67.3357V72.526H69.1482V69.7373Z" fill="#6B7280"/>
<path d="M61.6802 74.2119H59.8677V77.0006H61.6802V74.2119Z" fill="#6B7280"/>
<path d="M65.4142 74.2119H63.6017V77.0006H65.4142V74.2119Z" fill="#6B7280"/>
<path d="M69.1482 74.2119H67.3357V77.0006H69.1482V74.2119Z" fill="#6B7280"/>
<path d="M61.6802 78.6851H59.8677V81.4738H61.6802V78.6851Z" fill="#6B7280"/>
<path d="M65.4142 78.6851H63.6017V81.4738H65.4142V78.6851Z" fill="#6B7280"/>
<path d="M69.1482 78.6851H67.3357V81.4738H69.1482V78.6851Z" fill="#6B7280"/>
<path d="M63.8127 44.8213H62.0002V46.871H63.8127V44.8213Z" fill="#6B7280"/>
<path d="M66.6925 44.8213H64.88V46.871H66.6925V44.8213Z" fill="#6B7280"/>
<path d="M69.573 44.8213H67.7605V46.871H69.573V44.8213Z" fill="#6B7280"/>
</svg>
