<svg width="30" height="30" viewBox="0 0 30 30" fill="none" xmlns="http://www.w3.org/2000/svg">
<path d="M2.8623 9.72497V21.8875C2.8623 24.2625 4.54981 25.2375 6.5998 24.0625L9.5373 22.3875C10.1748 22.025 11.2373 21.9875 11.8998 22.325L18.4623 25.6125C19.1248 25.9375 20.1873 25.9125 20.8248 25.55L26.2373 22.45C26.9248 22.05 27.4998 21.075 27.4998 20.275V8.11247C27.4998 5.73747 25.8123 4.76247 23.7623 5.93747L20.8248 7.61247C20.1873 7.97497 19.1248 8.01247 18.4623 7.67497L11.8998 4.39997C11.2373 4.07497 10.1748 4.09997 9.5373 4.46247L4.1248 7.56247C3.4248 7.96247 2.8623 8.93747 2.8623 9.72497Z" stroke="#1A56DB" stroke-width="1.25" stroke-linecap="round" stroke-linejoin="round"/>
<path d="M10.6992 5.00049V21.2505" stroke="#1A56DB" stroke-width="1.25" stroke-linecap="round" stroke-linejoin="round"/>
<path d="M19.6626 8.2749V24.9999" stroke="#1A56DB" stroke-width="1.25" stroke-linecap="round" stroke-linejoin="round"/>
</svg>
