<svg width="18" height="14" viewBox="0 0 18 14" fill="none" xmlns="http://www.w3.org/2000/svg">
<path d="M17 2.625V11.375C17 12.4105 16.1605 13.25 15.125 13.25H2.625C1.58947 13.25 0.75 12.4105 0.75 11.375V2.625M17 2.625C17 1.58947 16.1605 0.75 15.125 0.75H2.625C1.58947 0.75 0.75 1.58947 0.75 2.625M17 2.625V2.82726C17 3.47837 16.6622 4.08287 16.1077 4.42412L9.85768 8.27027C9.25504 8.64113 8.49496 8.64113 7.89232 8.27027L1.64232 4.42412C1.08779 4.08287 0.75 3.47837 0.75 2.82726V2.625" stroke="#AFAFAF" stroke-width="1.5" stroke-linecap="round" stroke-linejoin="round"/>
</svg>
