<svg width="87" height="86" viewBox="0 0 87 86" fill="none" xmlns="http://www.w3.org/2000/svg">
<rect width="87" height="86" rx="16" fill="#EBF5FF"/>
<mask id="path-2-inside-1_268_12194" fill="white">
<path d="M84.3229 85.1038V83.3494H61.5338L62.1542 76.1789C62.342 74.069 60.7622 72.1982 58.6167 72.0127L57.9795 71.9583L58.6224 64.6061L61.3509 64.8391L61.5034 63.0915L58.7755 62.8584L59.4181 55.5016L62.1472 55.7341L62.2997 53.9865L59.5711 53.7534L60.2144 46.3966L62.9428 46.6298L63.0953 44.8822L60.3674 44.6491L61.01 37.2922L63.7392 37.5248L63.8917 35.7772L61.1631 35.5441L61.8064 28.1872L64.5348 28.4203L64.6873 26.6727L61.9594 26.4396L62.6021 19.0822L65.3312 19.3154L65.4837 17.5678C65.3703 17.5581 60.8608 17.1725 61.1371 17.1962L62.1861 5.19479L65.1198 5.44545L65.2723 3.69785C55.911 2.89823 77.1863 4.71534 32.4694 0.895508L32.3169 2.6431L35.2502 2.89375L34.2012 14.8954C34.1104 14.8876 28.3134 14.3925 28.4043 14.4002L28.2517 16.1478L30.9796 16.3809L30.337 23.7381L27.6078 23.5051L27.4553 25.2527L30.184 25.4858L29.5407 32.8426L26.8122 32.6099L26.6597 34.3575L29.3876 34.5905L28.745 41.9473L26.0158 41.7143L25.8633 43.4619L28.592 43.695L27.9487 51.0519L25.2202 50.8191L25.0677 52.5667L27.7956 52.7997L27.153 60.1566L24.4238 59.9236L24.2713 61.6712L27 61.9043L26.3568 69.2607L25.7237 69.2066C23.5459 69.0203 21.6957 70.5931 21.5094 72.7129L20.5754 83.3495H2.67627V85.1038C26.7875 85.1038 56.8646 85.1038 84.3229 85.1038ZM34.9132 83.3494L35.2902 78.9917C35.3751 78.0014 36.2201 77.2642 37.2704 77.3508C38.1994 77.427 38.9265 78.213 38.9265 79.1398C38.9265 79.1848 38.9282 79.2247 38.9204 79.2961L38.5668 83.3493L34.9132 83.3494ZM43.5403 83.3494L43.8609 79.7211C43.9441 78.7463 44.8055 77.9941 45.8315 78.081C46.7649 78.1577 47.4963 78.9437 47.4963 79.8706C47.4963 79.9186 47.498 79.9614 47.4911 80.0269L47.2009 83.3493L43.5403 83.3494ZM52.1717 83.3494L52.4222 80.457C52.5132 79.4637 53.3539 78.7192 54.4024 78.8118C55.3306 78.888 56.0576 79.674 56.0576 80.6008C56.0576 80.6497 56.0593 80.6994 56.0524 80.7653L55.8245 83.3493L52.1717 83.3494ZM41.6927 15.5352L41.1686 15.4906L39.3857 15.3383L39.8511 10.0253C39.9014 9.45475 40.3928 9.00764 40.9699 9.00764L41.1319 9.01749C41.7531 9.0707 42.2108 9.61062 42.1571 10.2228L41.6927 15.5352ZM37.0183 3.04488C45.2012 3.74399 52.2355 4.34491 60.4184 5.04393L59.3689 17.0453L57.7191 16.9043L58.1834 11.5916C58.3163 10.0916 57.2398 8.63327 55.4813 8.48241C53.8807 8.3406 52.4759 9.54119 52.3416 11.0926L51.8773 16.4053L50.5897 16.2953L51.0546 10.9821C51.1916 9.40709 50.0077 8.01505 48.3516 7.87324C46.7744 7.73914 45.348 8.93077 45.2119 10.4834L44.7477 15.7962L43.4608 15.6863L43.9251 10.3738C44.0581 8.87192 42.9803 7.41484 41.2221 7.26416C39.6397 7.122 38.2176 8.3217 38.0832 9.87391L37.6183 15.1871L35.9687 15.0462L37.0183 3.04488ZM53.645 16.5563L54.1095 11.2434C54.1598 10.6728 54.6512 10.2257 55.2292 10.2257L55.3904 10.2356C56.0112 10.2888 56.4693 10.8283 56.4156 11.4405L55.9511 16.7534L53.645 16.5563ZM46.5154 15.9472L46.9799 10.6347C47.0302 10.0638 47.5224 9.61662 48.0996 9.61662L48.2616 9.62648C48.8804 9.6796 49.3397 10.2201 49.2869 10.8309L48.8215 16.1443L46.5154 15.9472ZM32.7475 16.5324C37.0933 16.9036 52.5888 18.2275 60.8343 18.9319L60.1913 26.2883L56.9998 26.0157L57.4528 20.8332L55.6849 20.6824L55.2319 25.8647L52.0159 25.59L52.4689 20.4074L50.701 20.2566L50.248 25.4389L47.032 25.1642L47.485 19.9816L45.7171 19.8308L45.264 25.0132L42.048 24.7385L42.5011 19.5559L40.7332 19.4051L40.2801 24.5875L37.0633 24.3127L37.5163 19.1301L35.7484 18.9793L35.2954 24.1616L32.1043 23.889L32.7475 16.5324ZM31.952 25.6372C33.9915 25.8114 23.5091 24.9159 60.0388 28.0364L59.3949 35.3932L56.2043 35.1205L56.6573 29.9375L54.8894 29.7868L54.4364 34.9695L51.2203 34.6948L51.6734 29.5118L49.9055 29.3611L49.4524 34.5438L46.2355 34.269L46.6887 29.0861L44.9208 28.9354L44.4677 34.1179L41.2516 33.8431L41.7047 28.6603L39.9368 28.5096L39.4838 33.6921L36.2677 33.4173L36.7208 28.2345L34.9529 28.0838L34.4999 33.2663L31.308 32.9936L31.952 25.6372ZM31.1556 34.7416C33.1951 34.9159 22.7127 34.0203 59.2424 37.1413L58.5994 44.4976L55.4079 44.225L55.8609 39.0425L54.093 38.8917L53.64 44.074L50.424 43.7993L50.877 38.6167L49.1091 38.4659L48.6561 43.6483L45.4401 43.3735L45.8932 38.1909L44.1252 38.0402L43.6722 43.2226L40.4562 42.9478L40.9092 37.7652L39.1413 37.6145L38.6883 42.7969L35.4715 42.522L35.9245 37.3394L34.1566 37.1887L33.7036 42.371L30.5125 42.0984L31.1556 34.7416ZM30.36 43.8465C32.3995 44.0207 21.9171 43.1253 58.4468 46.2457L57.8029 53.6025L54.6123 53.3299L55.0653 48.1473L53.2974 47.9965L52.8444 53.1788L49.6284 52.9041L50.0814 47.7216L48.3135 47.5708L47.8604 52.7531L44.6435 52.4783L45.0967 47.2955L43.3287 47.1447L42.8757 52.3273L39.6596 52.0524L40.1127 46.8697L38.3448 46.7189L37.8918 51.9014L34.6759 51.6265L35.129 46.4438L33.3611 46.293L32.908 51.4755L29.7161 51.2028L30.36 43.8465ZM29.5636 52.9509C31.603 53.1252 21.1207 52.2296 57.6504 55.3506L57.0074 62.7069L53.8159 62.4343L54.2689 57.2518L52.501 57.1011L52.048 62.2834L48.8319 62.0086L49.285 56.8261L47.5171 56.6753L47.064 61.8576L43.848 61.5828L44.3011 56.4003L42.5331 56.2495L42.0801 61.4319L38.8633 61.157L39.3163 55.9745L37.5484 55.8237L37.0954 61.006L33.8794 60.7313L34.3324 55.5487L32.5645 55.3979L32.1115 60.5802L28.9204 60.3076L29.5636 52.9509ZM28.7681 62.0558C30.8075 62.2301 20.3252 61.3346 56.8549 64.4551L56.2115 71.8075L53.0206 71.5354L53.4734 66.3567L51.7055 66.206L51.2527 71.3845L48.0367 71.1102L48.4895 65.9309L46.7216 65.7802L46.2688 70.9593L43.052 70.685L43.5047 65.5051L41.7369 65.3543L41.2842 70.534L38.0681 70.2597L38.521 65.0789L36.7531 64.9281L36.3001 70.1088L33.084 69.8345L33.5371 64.6531L31.7692 64.5024L31.3161 69.6837L28.1242 69.4114L28.7681 62.0558ZM22.3569 83.3528L23.2772 72.8649C23.3743 71.771 24.2782 70.946 25.3814 70.946C25.5022 70.946 26.5013 71.0287 58.4632 73.7601C59.6219 73.8609 60.4886 74.8731 60.3862 76.0276L59.7527 83.3493L57.6062 83.3495L57.8185 80.9349C57.8307 80.8235 57.8324 80.7122 57.8324 80.6008C57.8324 78.7685 56.3903 77.2149 54.5506 77.0633C52.5435 76.9022 50.8337 78.347 50.6543 80.3032L50.3902 83.3502L48.9816 83.3503L49.2573 80.1952C49.2695 80.0822 49.2712 79.9827 49.2712 79.8706C49.2712 78.0382 47.8248 76.4842 45.9807 76.3326C43.9918 76.1711 42.2569 77.6493 42.0931 79.5712L41.7579 83.3511L40.3474 83.3511L40.6858 79.4739C40.6996 79.3582 40.7013 79.2558 40.7013 79.1398C40.7013 77.3075 39.2593 75.7539 37.4186 75.6023C35.3916 75.4339 33.6896 76.8885 33.5224 78.8425L33.1323 83.3518L31.7158 83.3519L32.1246 78.7435C32.1385 78.6279 32.1402 78.5251 32.1402 78.4094C32.1402 76.5779 30.6938 75.024 28.8548 74.8719C26.8538 74.6959 25.1267 76.1774 24.9611 78.1019L24.4997 83.3525L22.3569 83.3528ZM26.2818 83.3494L26.729 78.2524C26.8087 77.3324 27.5991 76.612 28.5289 76.612C28.5834 76.612 28.6381 76.6146 28.7004 76.6201C29.6338 76.6972 30.3652 77.4832 30.3652 78.4096C30.3652 78.4541 30.3669 78.4945 30.3591 78.5647L29.9345 83.3495L26.2818 83.3494Z"/>
</mask>
<path d="M84.3229 85.1038V83.3494H61.5338L62.1542 76.1789C62.342 74.069 60.7622 72.1982 58.6167 72.0127L57.9795 71.9583L58.6224 64.6061L61.3509 64.8391L61.5034 63.0915L58.7755 62.8584L59.4181 55.5016L62.1472 55.7341L62.2997 53.9865L59.5711 53.7534L60.2144 46.3966L62.9428 46.6298L63.0953 44.8822L60.3674 44.6491L61.01 37.2922L63.7392 37.5248L63.8917 35.7772L61.1631 35.5441L61.8064 28.1872L64.5348 28.4203L64.6873 26.6727L61.9594 26.4396L62.6021 19.0822L65.3312 19.3154L65.4837 17.5678C65.3703 17.5581 60.8608 17.1725 61.1371 17.1962L62.1861 5.19479L65.1198 5.44545L65.2723 3.69785C55.911 2.89823 77.1863 4.71534 32.4694 0.895508L32.3169 2.6431L35.2502 2.89375L34.2012 14.8954C34.1104 14.8876 28.3134 14.3925 28.4043 14.4002L28.2517 16.1478L30.9796 16.3809L30.337 23.7381L27.6078 23.5051L27.4553 25.2527L30.184 25.4858L29.5407 32.8426L26.8122 32.6099L26.6597 34.3575L29.3876 34.5905L28.745 41.9473L26.0158 41.7143L25.8633 43.4619L28.592 43.695L27.9487 51.0519L25.2202 50.8191L25.0677 52.5667L27.7956 52.7997L27.153 60.1566L24.4238 59.9236L24.2713 61.6712L27 61.9043L26.3568 69.2607L25.7237 69.2066C23.5459 69.0203 21.6957 70.5931 21.5094 72.7129L20.5754 83.3495H2.67627V85.1038C26.7875 85.1038 56.8646 85.1038 84.3229 85.1038ZM34.9132 83.3494L35.2902 78.9917C35.3751 78.0014 36.2201 77.2642 37.2704 77.3508C38.1994 77.427 38.9265 78.213 38.9265 79.1398C38.9265 79.1848 38.9282 79.2247 38.9204 79.2961L38.5668 83.3493L34.9132 83.3494ZM43.5403 83.3494L43.8609 79.7211C43.9441 78.7463 44.8055 77.9941 45.8315 78.081C46.7649 78.1577 47.4963 78.9437 47.4963 79.8706C47.4963 79.9186 47.498 79.9614 47.4911 80.0269L47.2009 83.3493L43.5403 83.3494ZM52.1717 83.3494L52.4222 80.457C52.5132 79.4637 53.3539 78.7192 54.4024 78.8118C55.3306 78.888 56.0576 79.674 56.0576 80.6008C56.0576 80.6497 56.0593 80.6994 56.0524 80.7653L55.8245 83.3493L52.1717 83.3494ZM41.6927 15.5352L41.1686 15.4906L39.3857 15.3383L39.8511 10.0253C39.9014 9.45475 40.3928 9.00764 40.9699 9.00764L41.1319 9.01749C41.7531 9.0707 42.2108 9.61062 42.1571 10.2228L41.6927 15.5352ZM37.0183 3.04488C45.2012 3.74399 52.2355 4.34491 60.4184 5.04393L59.3689 17.0453L57.7191 16.9043L58.1834 11.5916C58.3163 10.0916 57.2398 8.63327 55.4813 8.48241C53.8807 8.3406 52.4759 9.54119 52.3416 11.0926L51.8773 16.4053L50.5897 16.2953L51.0546 10.9821C51.1916 9.40709 50.0077 8.01505 48.3516 7.87324C46.7744 7.73914 45.348 8.93077 45.2119 10.4834L44.7477 15.7962L43.4608 15.6863L43.9251 10.3738C44.0581 8.87192 42.9803 7.41484 41.2221 7.26416C39.6397 7.122 38.2176 8.3217 38.0832 9.87391L37.6183 15.1871L35.9687 15.0462L37.0183 3.04488ZM53.645 16.5563L54.1095 11.2434C54.1598 10.6728 54.6512 10.2257 55.2292 10.2257L55.3904 10.2356C56.0112 10.2888 56.4693 10.8283 56.4156 11.4405L55.9511 16.7534L53.645 16.5563ZM46.5154 15.9472L46.9799 10.6347C47.0302 10.0638 47.5224 9.61662 48.0996 9.61662L48.2616 9.62648C48.8804 9.6796 49.3397 10.2201 49.2869 10.8309L48.8215 16.1443L46.5154 15.9472ZM32.7475 16.5324C37.0933 16.9036 52.5888 18.2275 60.8343 18.9319L60.1913 26.2883L56.9998 26.0157L57.4528 20.8332L55.6849 20.6824L55.2319 25.8647L52.0159 25.59L52.4689 20.4074L50.701 20.2566L50.248 25.4389L47.032 25.1642L47.485 19.9816L45.7171 19.8308L45.264 25.0132L42.048 24.7385L42.5011 19.5559L40.7332 19.4051L40.2801 24.5875L37.0633 24.3127L37.5163 19.1301L35.7484 18.9793L35.2954 24.1616L32.1043 23.889L32.7475 16.5324ZM31.952 25.6372C33.9915 25.8114 23.5091 24.9159 60.0388 28.0364L59.3949 35.3932L56.2043 35.1205L56.6573 29.9375L54.8894 29.7868L54.4364 34.9695L51.2203 34.6948L51.6734 29.5118L49.9055 29.3611L49.4524 34.5438L46.2355 34.269L46.6887 29.0861L44.9208 28.9354L44.4677 34.1179L41.2516 33.8431L41.7047 28.6603L39.9368 28.5096L39.4838 33.6921L36.2677 33.4173L36.7208 28.2345L34.9529 28.0838L34.4999 33.2663L31.308 32.9936L31.952 25.6372ZM31.1556 34.7416C33.1951 34.9159 22.7127 34.0203 59.2424 37.1413L58.5994 44.4976L55.4079 44.225L55.8609 39.0425L54.093 38.8917L53.64 44.074L50.424 43.7993L50.877 38.6167L49.1091 38.4659L48.6561 43.6483L45.4401 43.3735L45.8932 38.1909L44.1252 38.0402L43.6722 43.2226L40.4562 42.9478L40.9092 37.7652L39.1413 37.6145L38.6883 42.7969L35.4715 42.522L35.9245 37.3394L34.1566 37.1887L33.7036 42.371L30.5125 42.0984L31.1556 34.7416ZM30.36 43.8465C32.3995 44.0207 21.9171 43.1253 58.4468 46.2457L57.8029 53.6025L54.6123 53.3299L55.0653 48.1473L53.2974 47.9965L52.8444 53.1788L49.6284 52.9041L50.0814 47.7216L48.3135 47.5708L47.8604 52.7531L44.6435 52.4783L45.0967 47.2955L43.3287 47.1447L42.8757 52.3273L39.6596 52.0524L40.1127 46.8697L38.3448 46.7189L37.8918 51.9014L34.6759 51.6265L35.129 46.4438L33.3611 46.293L32.908 51.4755L29.7161 51.2028L30.36 43.8465ZM29.5636 52.9509C31.603 53.1252 21.1207 52.2296 57.6504 55.3506L57.0074 62.7069L53.8159 62.4343L54.2689 57.2518L52.501 57.1011L52.048 62.2834L48.8319 62.0086L49.285 56.8261L47.5171 56.6753L47.064 61.8576L43.848 61.5828L44.3011 56.4003L42.5331 56.2495L42.0801 61.4319L38.8633 61.157L39.3163 55.9745L37.5484 55.8237L37.0954 61.006L33.8794 60.7313L34.3324 55.5487L32.5645 55.3979L32.1115 60.5802L28.9204 60.3076L29.5636 52.9509ZM28.7681 62.0558C30.8075 62.2301 20.3252 61.3346 56.8549 64.4551L56.2115 71.8075L53.0206 71.5354L53.4734 66.3567L51.7055 66.206L51.2527 71.3845L48.0367 71.1102L48.4895 65.9309L46.7216 65.7802L46.2688 70.9593L43.052 70.685L43.5047 65.5051L41.7369 65.3543L41.2842 70.534L38.0681 70.2597L38.521 65.0789L36.7531 64.9281L36.3001 70.1088L33.084 69.8345L33.5371 64.6531L31.7692 64.5024L31.3161 69.6837L28.1242 69.4114L28.7681 62.0558ZM22.3569 83.3528L23.2772 72.8649C23.3743 71.771 24.2782 70.946 25.3814 70.946C25.5022 70.946 26.5013 71.0287 58.4632 73.7601C59.6219 73.8609 60.4886 74.8731 60.3862 76.0276L59.7527 83.3493L57.6062 83.3495L57.8185 80.9349C57.8307 80.8235 57.8324 80.7122 57.8324 80.6008C57.8324 78.7685 56.3903 77.2149 54.5506 77.0633C52.5435 76.9022 50.8337 78.347 50.6543 80.3032L50.3902 83.3502L48.9816 83.3503L49.2573 80.1952C49.2695 80.0822 49.2712 79.9827 49.2712 79.8706C49.2712 78.0382 47.8248 76.4842 45.9807 76.3326C43.9918 76.1711 42.2569 77.6493 42.0931 79.5712L41.7579 83.3511L40.3474 83.3511L40.6858 79.4739C40.6996 79.3582 40.7013 79.2558 40.7013 79.1398C40.7013 77.3075 39.2593 75.7539 37.4186 75.6023C35.3916 75.4339 33.6896 76.8885 33.5224 78.8425L33.1323 83.3518L31.7158 83.3519L32.1246 78.7435C32.1385 78.6279 32.1402 78.5251 32.1402 78.4094C32.1402 76.5779 30.6938 75.024 28.8548 74.8719C26.8538 74.6959 25.1267 76.1774 24.9611 78.1019L24.4997 83.3525L22.3569 83.3528ZM26.2818 83.3494L26.729 78.2524C26.8087 77.3324 27.5991 76.612 28.5289 76.612C28.5834 76.612 28.6381 76.6146 28.7004 76.6201C29.6338 76.6972 30.3652 77.4832 30.3652 78.4096C30.3652 78.4541 30.3669 78.4945 30.3591 78.5647L29.9345 83.3495L26.2818 83.3494Z" fill="#6B7280" stroke="#6B7280" stroke-width="1.80515" mask="url(#path-2-inside-1_268_12194)"/>
</svg>
