<svg width="87" height="86" viewBox="0 0 87 86" fill="none" xmlns="http://www.w3.org/2000/svg">
<rect width="87" height="86" rx="16" fill="#EBF5FF"/>
<path d="M5.35948 82.6098H2.4574V84.3827C50.6185 84.3827 32.2399 84.3827 86.0949 84.3827V82.6098H83.1929C83.1929 72.3998 83.1929 64.1936 83.1929 54.025H60.3497L56.8424 39.6093H47.6861L45.0346 25.3169H5.35948C5.35948 36.8817 5.35948 70.9643 5.35948 82.6098ZM15.4672 39.6093H10.9993V33.4348C10.9993 32.2172 12.0016 31.2265 13.2333 31.2265C14.4649 31.2265 15.4672 32.2172 15.4672 33.4348V39.6093ZM18.4944 41.3821V53.9017H17.2605V47.7272C17.2605 45.5319 15.454 43.7462 13.2333 43.7462C11.0125 43.7462 9.20597 45.5319 9.20597 47.7272V53.9017H7.15286V41.3821C11.3745 41.3821 16.1607 41.3821 18.4944 41.3821ZM40.3014 39.6093H35.8336V33.4348C35.8336 32.2172 36.8358 31.2265 38.0675 31.2265C39.2992 31.2265 40.3014 32.2172 40.3014 33.4348V39.6093ZM43.3795 41.3821V53.9017H42.0949V47.7272C42.0949 45.5319 40.2883 43.7462 38.0676 43.7462C35.8468 43.7462 34.0403 45.5319 34.0403 47.7272V53.9017H32.7302V41.3821C37.3973 41.3821 40.6978 41.3821 43.3795 41.3821ZM52.7187 53.9017H48.2509V47.7272C48.2509 46.5096 49.2532 45.5189 50.4848 45.5189C51.7165 45.5189 52.7187 46.5096 52.7187 47.7272V53.9017ZM66.9295 68.3174V62.1425C66.9295 59.9472 65.123 58.1615 62.9022 58.1615C60.6814 58.1615 58.8749 59.9472 58.8749 62.1425V68.3174H57.6157V55.7978H68.265V68.3173L66.9295 68.3174ZM65.1361 68.3174H60.6683V62.1425C60.6683 60.9249 61.6705 59.9342 62.9022 59.9342C64.1339 59.9342 65.1361 60.9249 65.1361 62.1425V68.3174ZM52.7187 68.3174H48.2509V62.1425C48.2509 60.9249 49.2532 59.9342 50.4848 59.9342C51.7165 59.9342 52.7187 60.9249 52.7187 62.1425V68.3174ZM50.4848 58.1615C48.2641 58.1615 46.4576 59.9472 46.4576 62.1425V68.3174H45.1729V55.7978H55.8223V68.3173H54.5121V62.1424C54.5121 59.9472 52.7056 58.1615 50.4848 58.1615ZM40.3014 68.3174H35.8336V62.1425C35.8336 60.9249 36.8358 59.9342 38.0675 59.9342C39.2992 59.9342 40.3014 60.9249 40.3014 62.1425V68.3174ZM38.0675 58.1615C35.8467 58.1615 34.0402 59.9472 34.0402 62.1425V68.3174H32.7301V55.7978H43.3795V68.3173H42.0949V62.1424C42.0949 59.9472 40.2883 58.1615 38.0675 58.1615ZM27.8845 68.3174H23.4167V62.1425C23.4167 60.9249 24.4189 59.9342 25.6506 59.9342C26.8823 59.9342 27.8845 60.9249 27.8845 62.1425V68.3174ZM25.6506 58.1615C23.4298 58.1615 21.6233 59.9472 21.6233 62.1425V68.3174H20.2879V55.7978H30.9368V68.3173H29.678V62.1424C29.6779 59.9472 27.8714 58.1615 25.6506 58.1615ZM15.4672 53.9017H10.9993V47.7272C10.9993 46.5096 12.0016 45.5189 13.2333 45.5189C14.4649 45.5189 15.4672 46.5096 15.4672 47.7272V53.9017ZM27.8845 39.6093H23.4167V33.4348C23.4167 32.2172 24.4189 31.2265 25.6506 31.2265C26.8823 31.2265 27.8845 32.2172 27.8845 33.4348V39.6093ZM30.9368 41.3821V53.9017H29.678V47.7272C29.678 45.5319 27.8715 43.7462 25.6507 43.7462C23.4299 43.7462 21.6234 45.5319 21.6234 47.7272V53.9017H20.288V41.3821C24.957 41.3821 28.2551 41.3821 30.9368 41.3821ZM40.3014 53.9017H35.8336V47.7272C35.8336 46.5096 36.8358 45.5189 38.0675 45.5189C39.2992 45.5189 40.3014 46.5096 40.3014 47.7272V53.9017ZM27.8845 53.9017H23.4167V47.7272C23.4167 46.5096 24.4189 45.5189 25.6506 45.5189C26.8823 45.5189 27.8845 46.5096 27.8845 47.7272V53.9017ZM29.6779 39.6093V33.4348C29.6779 31.2395 27.8714 29.4538 25.6506 29.4538C23.4298 29.4538 21.6233 31.2395 21.6233 33.4348V39.6093H20.2879V27.0897H30.9368V39.6093H29.6779ZM7.15286 55.7978H18.4944V68.3173H17.2605V62.1424C17.2605 59.9471 15.454 58.1614 13.2333 58.1614C11.0125 58.1614 9.20597 59.9471 9.20597 62.1424V68.3173H7.15286V55.7978ZM15.4672 68.3174H10.9993V62.1425C10.9993 60.9249 12.0016 59.9342 13.2333 59.9342C14.4649 59.9342 15.4672 60.9249 15.4672 62.1425V68.3174ZM10.9993 82.6098V76.4348C10.9993 75.2173 12.0016 74.2271 13.2333 74.2271C14.4649 74.2271 15.4672 75.2173 15.4672 76.4348V82.6098H10.9993ZM13.2333 72.4543C11.0125 72.4543 9.20597 74.2401 9.20597 76.4349V82.6099H7.15286V70.0902C11.3745 70.0902 16.1607 70.0902 18.4944 70.0902V82.6097H17.2605V76.4348C17.2605 74.2401 15.454 72.4543 13.2333 72.4543ZM23.4167 82.6098V76.4348C23.4167 75.2173 24.4189 74.2271 25.6506 74.2271C26.8823 74.2271 27.8845 75.2173 27.8845 76.4348V82.6098H23.4167ZM25.6506 72.4543C23.4298 72.4543 21.6233 74.2401 21.6233 76.4349V82.6099H20.2879V70.0902C24.957 70.0902 28.2551 70.0902 30.9368 70.0902V82.6097H29.678V76.4348C29.6779 74.2401 27.8714 72.4543 25.6506 72.4543ZM35.8336 82.6098V76.4348C35.8336 75.2173 36.8358 74.2271 38.0675 74.2271C39.2992 74.2271 40.3014 75.2173 40.3014 76.4348V82.6098H35.8336ZM38.0675 72.4543C35.8467 72.4543 34.0402 74.2401 34.0402 76.4349V82.6099H32.7301V70.0902C37.3973 70.0902 40.6978 70.0902 43.3795 70.0902V82.6097H42.0949V76.4348C42.0949 74.2401 40.2883 72.4543 38.0675 72.4543ZM48.2509 82.6098V76.4348C48.2509 75.2173 49.2532 74.2271 50.4848 74.2271C51.7165 74.2271 52.7187 75.2173 52.7187 76.4348V82.6098H48.2509ZM50.4848 72.4543C48.2641 72.4543 46.4576 74.2401 46.4576 76.4349V82.6099H45.1729V70.0902C49.8345 70.0902 53.1422 70.0902 55.8223 70.0902V82.6097H54.5121V76.4348C54.5121 74.2401 52.7056 72.4543 50.4848 72.4543ZM60.6683 82.6098V76.4348C60.6683 75.2173 61.6705 74.2271 62.9022 74.2271C64.1339 74.2271 65.1361 75.2173 65.1361 76.4348V82.6098H60.6683ZM62.9022 72.4543C60.6814 72.4543 58.8749 74.2401 58.8749 76.4349V82.6099H57.6157V70.0902C60.2788 70.0902 65.6138 70.0902 68.265 70.0902V82.6097H66.9296V76.4348C66.9295 74.2401 65.123 72.4543 62.9022 72.4543ZM73.0852 82.6098V76.4348C73.0852 75.2173 74.0874 74.2271 75.3191 74.2271C76.5508 74.2271 77.553 75.2173 77.553 76.4348V82.6098H73.0852ZM81.3995 82.6098H79.3464V76.4348C79.3464 74.2401 77.5398 72.4542 75.3191 72.4542C73.0983 72.4542 71.2918 74.24 71.2918 76.4348V82.6098H70.0584V70.0902C78.1222 70.0902 72.1024 70.0902 81.3995 70.0902V82.6098ZM77.553 68.3174H73.0852V62.1425C73.0852 60.9249 74.0874 59.9342 75.3191 59.9342C76.5508 59.9342 77.553 60.9249 77.553 62.1425V68.3174ZM81.3995 68.3174H79.3464V62.1425C79.3464 59.9472 77.5398 58.1615 75.3191 58.1615C73.0983 58.1615 71.2918 59.9472 71.2918 62.1425V68.3174H70.0584V55.7978H81.3995V68.3174ZM55.429 41.3821L58.4751 53.9017H54.5121V47.7272C54.5121 45.5319 52.7056 43.7462 50.4848 43.7462C48.2641 43.7462 46.4576 45.5319 46.4576 47.7272V53.9017H45.1729V41.3821C47.7634 41.3821 52.8324 41.3821 55.429 41.3821ZM45.8625 39.6093H42.0949V33.4348C42.0949 31.2395 40.2883 29.4538 38.0676 29.4538C35.8468 29.4538 34.0403 31.2395 34.0403 33.4348V39.6093H32.7302V27.0897H43.5398L45.8625 39.6093ZM7.15286 27.0897H18.4944V39.6093H17.2605V33.4348C17.2605 31.2395 15.454 29.4538 13.2333 29.4538C11.0125 29.4538 9.20597 31.2395 9.20597 33.4348V39.6093H7.15286V27.0897Z" fill="#6B7280"/>
</svg>
