<svg width="36" height="36" viewBox="0 0 36 36" fill="none" xmlns="http://www.w3.org/2000/svg">
<path fill-rule="evenodd" clip-rule="evenodd" d="M5.87698 10.2847H23.5081C24.3196 10.2847 24.9774 10.9425 24.9774 11.7539V18.3656C24.9774 20.3942 23.3329 22.0388 21.3042 22.0388H20.5696C18.9467 22.0388 17.6311 20.7231 17.6311 19.1002C17.6311 17.4773 16.3155 16.1617 14.6926 16.1617C13.0696 16.1617 11.754 17.4773 11.754 19.1002C11.754 20.7231 10.4384 22.0388 8.8155 22.0388H8.08087C6.05224 22.0388 4.40771 20.3942 4.40771 18.3656V11.7539C4.40771 10.9425 5.06553 10.2847 5.87698 10.2847Z" stroke="#6B7280" stroke-width="2.20389" stroke-linecap="round" stroke-linejoin="round"/>
<path d="M14.6926 24.9774C14.6926 26.6003 16.0082 27.9159 17.6312 27.9159H22.7736C27.2366 27.9159 30.8545 24.2979 30.8545 19.8349V5.87695" stroke="#6B7280" stroke-width="2.20389" stroke-linecap="round" stroke-linejoin="round"/>
</svg>
