<svg width="31" height="31" viewBox="0 0 31 31" fill="none" xmlns="http://www.w3.org/2000/svg">
<path d="M17.7312 2.71406L20.2978 7.8474C20.6478 8.56198 21.5812 9.2474 22.3687 9.37865L27.0207 10.1516C29.9957 10.6474 30.6957 12.8057 28.552 14.9349L24.9353 18.5516C24.3228 19.1641 23.9874 20.3453 24.177 21.1911L25.2124 25.6682C26.0291 29.212 24.1478 30.5828 21.0124 28.7307L16.652 26.1495C15.8645 25.6828 14.5666 25.6828 13.7645 26.1495L9.40407 28.7307C6.28324 30.5828 4.38741 29.1974 5.20407 25.6682L6.23949 21.1911C6.42907 20.3453 6.09366 19.1641 5.48116 18.5516L1.86449 14.9349C-0.264675 12.8057 0.420742 10.6474 3.39574 10.1516L8.04782 9.37865C8.82074 9.2474 9.75407 8.56198 10.1041 7.8474L12.6707 2.71406C14.0707 -0.0713542 16.3457 -0.0713542 17.7312 2.71406Z" stroke="#4B5563" stroke-width="1.25" stroke-linecap="round" stroke-linejoin="round"/>
</svg>
