<svg width="87" height="86" viewBox="0 0 87 86" fill="none" xmlns="http://www.w3.org/2000/svg">
<rect width="87" height="86" rx="16" fill="#EBF5FF"/>
<path d="M45.2964 38.1636L48.7837 79.4536H37.9155L41.4028 38.1636H45.2964ZM42.1714 39.4292L38.9048 78.1128L38.8628 78.6021H47.8364L47.7944 78.1128L44.5278 39.4292L44.4937 39.0151H42.2065L42.1714 39.4292Z" fill="#6B7280" stroke="#6B7280" stroke-width="0.902575"/>
<path d="M37.3308 34.2285L33.1863 83.3115L33.1453 83.8008H53.5525L53.5115 83.3115L49.3669 34.2285L49.3318 33.8154H37.366L37.3308 34.2285ZM40.0388 32.9072H42.8689V19.0449H43.741V32.9072H46.4587V15.3438H40.0388V32.9072ZM42.9011 2.20312C42.6022 2.21782 42.3802 2.23888 42.2117 2.2832C42.0582 2.32356 41.9462 2.38294 41.8533 2.45996L41.7664 2.54297C41.5322 2.79177 41.4613 3.14474 41.4343 3.43262C41.4056 3.73991 41.4186 4.09113 41.4373 4.4248C41.4566 4.7717 41.4822 5.09873 41.489 5.40918C41.4941 5.64375 41.4869 5.83944 41.4646 5.99414L41.4373 6.13477C41.3369 6.52453 40.9821 6.97146 40.5837 7.35645C40.205 7.72244 39.8551 7.96864 39.8552 7.96875L39.8542 7.96973C38.5321 8.87797 37.0474 9.15668 35.4099 9.23145C34.5888 9.26892 33.7452 9.25477 32.866 9.24805C31.9926 9.24137 31.0896 9.24217 30.1775 9.3125H30.1667L30.157 9.31445C29.8202 9.35586 28.4183 9.67267 27.6482 9.92188L27.0681 10.1094L27.4167 10.6094C27.4956 10.7226 27.5869 10.838 27.6765 10.9365C27.7583 11.0263 27.8657 11.1326 27.9753 11.2012L28.9939 11.8379L28.8318 11.3008C29.1866 11.2956 29.5603 11.264 29.8494 11.2324C30.0083 11.2151 30.1447 11.1977 30.2419 11.1846C30.3371 11.1717 30.3982 11.1621 30.3982 11.1621H30.4031L30.7185 11.1123L32.0798 13.7861L32.2009 14.0234L32.4666 14.0322C35.2775 14.1265 36.723 13.9986 37.5681 13.8193C37.9983 13.7281 38.2692 13.6242 38.4773 13.5361C38.5644 13.4993 38.6283 13.4715 38.6804 13.4502L39.6492 14.3682L39.7791 14.4922H46.6843L46.8201 14.3271L47.2546 13.7959L47.5271 13.8643C50.425 14.5853 52.3286 14.6968 53.8572 14.1738L54.0994 14.0918L54.1521 13.8418L54.6814 11.3633L57.4236 11.2656L58.072 11.2422L57.825 10.6426C57.7596 10.4842 57.6878 10.3196 57.6199 10.1973L57.5535 10.0908L57.5457 10.0811L57.4529 9.9707C57.2251 9.72752 56.9241 9.57456 56.6052 9.47559C56.2405 9.36244 55.8155 9.30847 55.365 9.28418C54.4716 9.23602 53.3597 9.30218 52.24 9.33398C51.1011 9.36633 49.9238 9.36505 48.8259 9.19531C47.7283 9.02558 46.7417 8.69165 45.9646 8.08301C45.323 7.58074 44.9634 7.0815 44.7605 6.6123C44.5566 6.14075 44.4994 5.67262 44.4978 5.2168C44.497 4.98762 44.5097 4.76461 44.5251 4.54297C44.5402 4.32725 44.5589 4.10137 44.5632 3.89355C44.5715 3.49308 44.5365 3.01079 44.2029 2.64453C43.9083 2.32139 43.4256 2.21838 42.9382 2.20215H42.9197L42.9011 2.20312ZM39.1667 15.0977L39.0261 14.9639L38.6628 14.6201L38.4753 14.4434L38.2283 14.5137C36.4012 15.0374 34.301 14.9516 31.9089 14.8652L31.6492 14.8555L30.363 12.3271L30.2224 12.0498L29.9128 12.083C29.5674 12.1199 29.1357 12.1543 28.7371 12.1543C28.1192 12.1543 27.7804 12.0748 27.5603 11.9512C27.3244 11.8181 26.9134 11.4453 26.6179 10.9766C26.3153 10.4965 26.2187 10.0555 26.3582 9.72949C26.3731 9.69516 26.4164 9.63081 26.5251 9.54492C26.6318 9.46069 26.7787 9.37347 26.9626 9.28613C27.3313 9.11118 27.8002 8.9589 28.2751 8.83398C29.2061 8.58917 30.0822 8.46647 30.1101 8.46191C30.9393 8.39842 31.7697 8.39394 32.5945 8.39941C33.4139 8.40486 34.2372 8.42102 35.0222 8.39551C36.5882 8.3446 38.105 8.12929 39.3523 7.27246C39.6071 7.09726 39.8781 6.85065 40.0925 6.62598C40.201 6.51238 40.3014 6.39786 40.3816 6.29395C40.4509 6.20406 40.5399 6.07997 40.5837 5.95508L40.5896 5.93652L40.5945 5.91699C40.6301 5.77775 40.6357 5.62473 40.6335 5.48926C40.6313 5.34813 40.6195 5.19016 40.6062 5.03027C40.5788 4.70144 40.5433 4.34349 40.5378 3.96484C40.5269 3.19824 40.647 2.47299 41.1248 1.96582C41.5177 1.54878 42.2197 1.3223 42.988 1.34863C43.7555 1.37498 44.465 1.64958 44.8552 2.07812C45.3106 2.57807 45.4367 3.26068 45.4392 3.96973C45.4404 4.32081 45.4112 4.65497 45.3875 4.96191C45.3661 5.23906 45.3419 5.55691 45.3855 5.79004V5.79102C45.4123 5.93307 45.4865 6.08671 45.5525 6.20801C45.626 6.34316 45.7197 6.49235 45.821 6.6377C46.0163 6.91777 46.2737 7.23403 46.5095 7.41895H46.5105C47.3535 8.07859 48.4303 8.34553 49.5447 8.44629C50.6589 8.54701 51.8755 8.48566 53.0193 8.44336C54.1821 8.40035 55.2689 8.37702 56.1941 8.5293C57.1143 8.68077 57.8057 8.99568 58.2468 9.57422C58.3813 9.75102 58.5481 10.1001 58.7087 10.5049C58.7861 10.6998 58.8572 10.8962 58.9187 11.0723L59.0691 11.5205L59.239 12.0518L55.7478 12.1777L55.3972 12.1904L55.323 12.5342L54.865 14.6719C54.8547 14.6769 54.845 14.6819 54.8357 14.6865C54.7363 14.7354 54.6277 14.7907 54.4919 14.8506C54.2255 14.968 53.852 15.1054 53.3269 15.2041C52.2741 15.402 50.5802 15.4497 47.8835 14.8271L47.3308 14.6992V32.9639H50.1345L54.3923 83.3877L54.4275 83.8008H84.1013V84.6523H2.59644V83.8008H32.2703L32.3054 83.3877L36.5632 32.9639H39.1667V15.0977Z" fill="#6B7280" stroke="#6B7280" stroke-width="0.902575"/>
</svg>
