<svg width="87" height="86" viewBox="0 0 87 86" fill="none" xmlns="http://www.w3.org/2000/svg">
<rect width="87" height="86" rx="16" fill="#EBF5FF"/>
<path d="M27.9043 6.5535C27.9043 5.11148 26.9233 3.90416 25.591 3.51376V0.806641H23.7785V3.51259C22.4442 3.90192 21.4615 5.11013 21.4615 6.5535C21.4615 7.99687 22.4443 9.20508 23.7785 9.59441V12.1921L19.5508 17.9596V24.5148H17.7179V33.0865H16.3886V42.4673H14.7682V83.4022H1.35938V85.1939C19.2524 85.1939 68.9243 85.1939 86.5469 85.1939V83.4022H70.1131V42.4673H68.4918V33.0865H67.1634V24.5148H65.3297V17.9596L61.1046 12.1916V9.59351C62.4375 9.20338 63.4189 7.99579 63.4189 6.55341C63.4189 5.11103 62.4375 3.90345 61.1046 3.51331V0.806641H59.2921V3.51286C57.9583 3.90246 56.976 5.11049 56.976 6.5535C56.976 7.99651 57.9583 9.20445 59.2921 9.59414V12.1933L55.0653 17.9597V24.5149H53.2316V33.0866H51.9023V42.4673H50.2818V49.3601H34.5985V42.4673H32.9781V33.0865H31.6488V24.5148H29.8159V17.9596L25.591 12.1926V9.59324C26.9233 9.20284 27.9043 7.99552 27.9043 6.5535ZM23.274 6.5535C23.274 5.78541 23.9059 5.16075 24.6829 5.16075C25.4599 5.16075 26.0918 5.78541 26.0918 6.5535C26.0918 7.32159 25.4599 7.94625 24.6829 7.94625C23.9059 7.94625 23.274 7.32159 23.274 6.5535ZM24.6847 14.0097L27.1345 17.3542H22.2329L24.6847 14.0097ZM50.2818 63.413L44.4256 55.2229H50.2818V63.413ZM34.5985 55.2229H40.4575L34.5985 63.4158V55.2229ZM34.5985 83.4023V66.5191L42.4415 55.5523L50.2818 66.5166V83.4023H34.5985ZM62.6485 17.3542H57.7474L60.1992 14.0097L62.6485 17.3542ZM58.7885 6.5535C58.7885 5.78541 59.4205 5.16075 60.1975 5.16075C60.9745 5.16075 61.6064 5.78541 61.6064 6.5535C61.6064 7.32159 60.9745 7.94625 60.1975 7.94625C59.4205 7.94625 58.7885 7.32159 58.7885 6.5535ZM56.8778 19.1459H63.5172V24.5148H61.1037V21.0097H59.2912V24.5148H56.8778V19.1459ZM55.0441 26.3064H55.0653L65.3297 26.3073L65.3509 26.3064V33.0865H63.149V28.2368H61.3365V33.0865H59.0585V28.2368H57.246V33.0865H55.0441V26.3064ZM53.7148 34.8781H66.6793V42.4674H64.665V37.5031H62.8525V42.4674H61.1037V37.5031H59.2912V42.4674H57.5424V37.5031H55.7299V42.4674H53.7148V34.8781ZM52.0943 44.2589H68.3006V83.4022H65.5819V46.5646H63.7694V83.4023H61.1037V46.5646H59.2912V83.4023H56.6247V46.5646H54.8122V83.4023H52.0943C52.0943 57.4983 52.0943 67.8117 52.0943 44.2589ZM50.2818 53.4312H43.3469V51.1518H50.2818V53.4312ZM41.5344 51.1518V53.4312H34.5986V51.1518H41.5344ZM32.786 83.4023H30.0682V46.5646H28.2557V83.4023H25.5891V46.5646H23.7766V83.4023H21.111V46.5646H19.2985V83.4023H16.5807V44.2589H32.786C32.786 53.479 32.786 74.3609 32.786 83.4023ZM29.1513 42.4673V37.503H27.3388V42.4673H25.5891V37.503H23.7766V42.4673H22.0279V37.503H20.2154V42.4673H18.2011V34.878H31.1657V42.4673H29.1513ZM29.8364 26.3064V33.0865H27.6345V28.2368H25.822V33.0865H23.5439V28.2368H21.7314V33.0865H19.5304V26.3064H19.5508L29.816 26.3073L29.8364 26.3064ZM25.5891 24.5148V21.0097H23.7766V24.5148H21.3632V19.1459H28.0034V24.5148H25.5891Z" fill="#6B7280"/>
</svg>
