<svg width="30" height="10" viewBox="0 0 30 10" fill="none" xmlns="http://www.w3.org/2000/svg">
<path fill-rule="evenodd" clip-rule="evenodd" d="M7.50032 9.92212H4.90401L2.95709 2.16441C2.86468 1.80755 2.66847 1.49207 2.37985 1.34338C1.65957 0.96972 0.865861 0.672341 2.03204e-06 0.522358V0.223686H4.18246C4.7597 0.223686 5.19263 0.672341 5.26478 1.1934L6.27495 6.7893L8.87 0.223686H11.3942L7.50032 9.92212ZM12.8372 9.92212H10.3852L12.4043 0.223686H14.8563L12.8372 9.92212ZM18.0286 2.91045C18.1008 2.3881 18.5337 2.08943 19.0388 2.08943C19.8325 2.01444 20.6971 2.16442 21.4186 2.53679L21.8516 0.448671C21.13 0.149999 20.3363 1.66073e-05 19.616 1.66073e-05C17.2362 1.66073e-05 15.5045 1.34339 15.5045 3.20783C15.5045 4.6262 16.7311 5.37094 17.597 5.8196C18.5337 6.26696 18.8945 6.56563 18.8223 7.01299C18.8223 7.68403 18.1008 7.98271 17.3805 7.98271C16.5146 7.98271 15.6488 7.75903 14.8563 7.38536L14.4234 9.47477C15.2893 9.84714 16.226 9.99713 17.0919 9.99713C19.7603 10.0708 21.4186 8.72874 21.4186 6.71432C21.4186 4.17755 18.0286 4.02886 18.0286 2.91045ZM30 9.92212L28.0531 0.223686H25.9619C25.5289 0.223686 25.096 0.522358 24.9517 0.96972L21.3465 9.92212H23.8706L24.3744 8.50505H27.4758L27.7645 9.92212H30ZM26.3226 2.83544L27.0429 6.49062H25.0238L26.3226 2.83544Z" fill="#172B85"/>
</svg>
