<svg width="87" height="86" viewBox="0 0 87 86" fill="none" xmlns="http://www.w3.org/2000/svg">
<rect width="87" height="86" rx="16" fill="#EBF5FF"/>
<path d="M1.29565 84.054C31.1165 84.054 55.8687 84.054 85.7088 84.054V64.9677H68.9689V59.2231H63.3132V47.1263H66.1222V45.3346C66.019 45.3346 60.8071 45.3346 61.0232 45.3346V36.7669H63.9424V34.9752C63.8052 34.9752 59.2676 34.9752 59.4013 34.9752C58.9458 28.5132 53.7073 22.4385 49.5949 18.6288H51.9652V16.8372H48.049C47.8499 15.8077 47.3215 14.8802 46.5524 14.2433V8.51666C46.5524 7.28928 45.8121 6.08295 44.4085 5.65223V1.94482H42.596V5.65187C41.3533 6.03529 40.4432 7.16699 40.4432 8.51657V14.4205C39.7644 15.0808 39.3235 15.8722 39.1411 16.8372H35.3115V18.6288H37.5636C33.3812 22.437 28.0578 28.508 27.5952 34.9752C27.4594 34.9752 22.97 34.9752 23.0611 34.9752V36.7669H25.9804V45.3346C25.1256 45.3346 20.7865 45.3346 20.8809 45.3346V47.1263H23.6904V59.2231H18.0356V64.9677H1.29565V84.054ZM39.6538 82.2624V72.3741C39.6538 70.2767 41.38 68.5703 43.5022 68.5703C45.6241 68.5703 47.3503 70.2767 47.3503 72.3741V82.2624H39.6538ZM83.8963 66.7593V82.2624H68.9689V66.7593H83.8963ZM34.6221 59.2191H30.0859V53.3923C30.0859 52.1561 31.1033 51.1501 32.3537 51.1501C33.6042 51.1501 34.622 52.1561 34.622 53.3923L34.6221 59.2191ZM45.7697 59.2191H41.2335V53.3923C41.2335 52.1561 42.2513 51.1501 43.5018 51.1501C44.7523 51.1501 45.7696 52.1561 45.7696 53.3923L45.7697 59.2191ZM56.9176 59.2191H52.3815V53.3923C52.3815 52.1561 53.3992 51.1501 54.6498 51.1501C55.9003 51.1501 56.9176 52.1561 56.9176 53.3923L56.9176 59.2191ZM57.5868 34.9752H53.0364C52.7857 28.9513 50.0838 23.2347 47.7962 19.4285C51.73 22.9635 57.0953 28.853 57.5868 34.9752ZM35.7731 34.9752C36.0596 28.7035 39.2579 22.7295 41.5763 19.1855C40.7943 22.921 39.8122 28.7933 39.7232 34.9752H35.7731ZM43.5147 18.7834C44.2851 22.3708 45.366 28.5076 45.4601 34.9752H41.5357C41.6313 28.503 42.7314 22.3677 43.5147 18.7834ZM47.2726 34.9752C47.1837 28.7095 46.1911 22.7539 45.4178 19.0264C47.7041 22.5542 50.9375 28.6175 51.2234 34.9752H47.2726ZM42.2557 8.51666C42.2557 7.84218 42.815 7.29322 43.5022 7.29322C44.1957 7.29322 44.7399 7.8309 44.7399 8.51666V13.3812C44.1884 13.2808 42.8427 13.282 42.2557 13.4219V8.51666ZM43.1332 15.1107C43.2952 15.175 45.4969 14.6374 46.1936 16.8372H41.0022C41.3003 15.8904 42.1137 15.1107 43.1332 15.1107ZM39.1817 19.5969C36.8784 23.4007 34.2109 29.0376 33.9602 34.9752H29.4097C29.9019 28.9457 35.1995 23.1462 39.1817 19.5969ZM27.7929 36.7669H59.2107V45.3346H56.9818V41.5308C56.9818 39.5182 55.3251 37.8806 53.2887 37.8806C51.2527 37.8806 49.596 39.5182 49.596 41.5308V45.3346H47.1949V41.5308C47.1949 39.5182 45.5382 37.8806 43.5018 37.8806C41.4654 37.8806 39.8086 39.5182 39.8086 41.5308V45.3346H37.4076V41.5308C37.4076 39.5182 35.7509 37.8806 33.7145 37.8806C31.6785 37.8806 30.0218 39.5182 30.0218 41.5308V45.3346H27.7929V36.7669ZM55.1693 45.3346H51.4085V41.5308C51.4085 40.506 52.2519 39.6722 53.2887 39.6722C54.3254 39.6722 55.1693 40.506 55.1693 41.5308V45.3346ZM45.3824 45.3346H41.6211V41.5308C41.6211 40.506 42.465 39.6722 43.5018 39.6722C44.5385 39.6722 45.3824 40.506 45.3824 41.5308V45.3346ZM35.5951 45.3346H31.8343V41.5308C31.8343 40.506 32.6777 39.6722 33.7145 39.6722C34.7512 39.6722 35.5951 40.506 35.5951 41.5308V45.3346ZM61.5007 47.1263V59.2191H58.7302V53.3923C58.7302 51.168 56.8996 49.3584 54.6499 49.3584C52.3998 49.3584 50.5692 51.168 50.5692 53.3923V59.2191H47.5822V53.3923C47.5822 51.168 45.7516 49.3584 43.5019 49.3584C41.2518 49.3584 39.4211 51.168 39.4211 53.3923V59.2191H36.4347V53.3923C36.4347 51.168 34.604 49.3584 32.3539 49.3584C30.1042 49.3584 28.2736 51.168 28.2736 53.3923V59.2191H25.5031V47.1263C38.5664 47.1263 49.5626 47.1263 61.5007 47.1263ZM67.1564 61.0147V62.8672H19.8481V61.0147H67.1564ZM19.8481 64.6589H67.1563C67.1563 70.3589 67.1563 73.3005 67.1563 82.2624H49.1627V72.3741C49.1627 69.2886 46.6236 66.7786 43.5022 66.7786C40.3808 66.7786 37.8412 69.2886 37.8412 72.3741V82.2624H19.8481C19.8481 73.2764 19.8481 70.3489 19.8481 64.6589ZM3.10815 66.7593H18.0356V82.2624H3.10815V66.7593Z" fill="#6B7280"/>
<path d="M7.4071 68.7661H5.5946V73.3716H7.4071V68.7661Z" fill="#6B7280"/>
<path d="M11.4768 68.7661H9.66431V73.3716H11.4768V68.7661Z" fill="#6B7280"/>
<path d="M15.546 68.7661H13.7335V73.3716H15.546V68.7661Z" fill="#6B7280"/>
<path d="M7.4071 75.6499H5.5946V80.2554H7.4071V75.6499Z" fill="#6B7280"/>
<path d="M11.4768 75.6499H9.66431V80.2554H11.4768V75.6499Z" fill="#6B7280"/>
<path d="M15.546 75.6499H13.7335V80.2554H15.546V75.6499Z" fill="#6B7280"/>
<path d="M73.2646 68.7661H71.4521V73.3716H73.2646V68.7661Z" fill="#6B7280"/>
<path d="M77.3385 68.7661H75.526V73.3716H77.3385V68.7661Z" fill="#6B7280"/>
<path d="M81.4081 68.7661H79.5956V73.3716H81.4081V68.7661Z" fill="#6B7280"/>
<path d="M73.2646 75.6499H71.4521V80.2554H73.2646V75.6499Z" fill="#6B7280"/>
<path d="M77.3385 75.6499H75.526V80.2554H77.3385V75.6499Z" fill="#6B7280"/>
<path d="M81.4081 75.6499H79.5956V80.2554H81.4081V75.6499Z" fill="#6B7280"/>
<path d="M23.7749 66.1152H21.9624V69.7631H23.7749V66.1152Z" fill="#6B7280"/>
<path d="M27.8275 66.1152H26.015V69.7631H27.8275V66.1152Z" fill="#6B7280"/>
<path d="M23.7749 71.3833H21.9624V75.0311H23.7749V71.3833Z" fill="#6B7280"/>
<path d="M27.8275 71.3833H26.015V75.0311H27.8275V71.3833Z" fill="#6B7280"/>
<path d="M23.7749 76.6514H21.9624V80.2992H23.7749V76.6514Z" fill="#6B7280"/>
<path d="M27.8275 76.6514H26.015V80.2992H27.8275V76.6514Z" fill="#6B7280"/>
<path d="M31.8762 66.1152H30.0637V69.7631H31.8762V66.1152Z" fill="#6B7280"/>
<path d="M31.8762 71.3833H30.0637V75.0311H31.8762V71.3833Z" fill="#6B7280"/>
<path d="M31.8762 76.6514H30.0637V80.2992H31.8762V76.6514Z" fill="#6B7280"/>
<path d="M35.9243 66.1152H34.1118V69.7631H35.9243V66.1152Z" fill="#6B7280"/>
<path d="M35.9243 71.3833H34.1118V75.0311H35.9243V71.3833Z" fill="#6B7280"/>
<path d="M35.9243 76.6514H34.1118V80.2992H35.9243V76.6514Z" fill="#6B7280"/>
<path d="M52.8864 66.9092H51.0739V70.557H52.8864V66.9092Z" fill="#6B7280"/>
<path d="M56.9351 66.9092H55.1226V70.557H56.9351V66.9092Z" fill="#6B7280"/>
<path d="M52.8864 72.1758H51.0739V75.8236H52.8864V72.1758Z" fill="#6B7280"/>
<path d="M56.9351 72.1758H55.1226V75.8236H56.9351V72.1758Z" fill="#6B7280"/>
<path d="M52.8864 77.4448H51.0739V81.0927H52.8864V77.4448Z" fill="#6B7280"/>
<path d="M56.9351 77.4448H55.1226V81.0927H56.9351V77.4448Z" fill="#6B7280"/>
<path d="M60.9878 66.9092H59.1753V70.557H60.9878V66.9092Z" fill="#6B7280"/>
<path d="M60.9878 72.1758H59.1753V75.8236H60.9878V72.1758Z" fill="#6B7280"/>
<path d="M60.9878 77.4448H59.1753V81.0927H60.9878V77.4448Z" fill="#6B7280"/>
<path d="M65.0358 66.9092H63.2233V70.557H65.0358V66.9092Z" fill="#6B7280"/>
<path d="M65.0358 72.1758H63.2233V75.8236H65.0358V72.1758Z" fill="#6B7280"/>
<path d="M65.0358 77.4448H63.2233V81.0927H65.0358V77.4448Z" fill="#6B7280"/>
</svg>
